<svg width="90" height="90" viewBox="0 0 90 90" fill="none" xmlns="http://www.w3.org/2000/svg">
    <g clip-path="url(#clip0_429_362)">
        <g clip-path="url(#clip1_429_362)">
            <path d="M93 20.733L77 29.4659L61 20.733L77 12L93 20.733Z" fill="url(#paint0_linear_429_362)"/>
            <path d="M93 38.1946L77 46.9276V29.4659L93 20.733V38.1946Z" fill="url(#paint1_linear_429_362)"/>
            <path d="M77 46.9276L61 38.1946V20.733L77 29.4659V46.9276Z" fill="url(#paint2_linear_429_362)"/>
            <path opacity="0.3" d="M77.2088 29.6681L77 46.9276V29.4659L77.2088 29.6681Z" fill="#3F75EA"/>
            <path opacity="0.3" d="M93 20.733L77 29.4659L77.2088 29.6681L93 20.733Z" fill="url(#paint3_linear_429_362)"/>
            <path opacity="0.3" d="M77 29.4659L61 20.733L76.7017 29.6681L77 46.9276V29.4659Z" fill="#3F75EA"/>
            <path opacity="0.44" d="M61 20.733L76.7017 29.6681L77 46.9276L61 38.1989V20.733Z" fill="url(#paint4_linear_429_362)"/>
        </g>
        <g clip-path="url(#clip2_429_362)">
            <path d="M74 30.733L58 39.4659L42 30.733L58 22L74 30.733Z" fill="url(#paint5_linear_429_362)"/>
            <path d="M74 48.1946L58 56.9276V39.4659L74 30.733V48.1946Z" fill="url(#paint6_linear_429_362)"/>
            <path d="M58 56.9276L42 48.1946V30.733L58 39.4659V56.9276Z" fill="url(#paint7_linear_429_362)"/>
            <path d="M58.2088 39.6681L58 56.9276V39.4659L58.2088 39.6681Z" fill="#3F75EA"/>
            <path d="M74 30.733L58 39.4659L58.2088 39.6681L74 30.733Z" fill="url(#paint8_linear_429_362)"/>
            <path opacity="0.76" d="M58 39.4659L42 30.733L57.7017 39.6681L58 56.9276V39.4659Z" fill="#3F75EA"/>
            <path opacity="0.44" d="M42 30.733L57.7017 39.6681L58 56.9276L42 48.1989V30.733Z" fill="url(#paint9_linear_429_362)"/>
        </g>
        <path d="M55 40.733L39 49.4659L23 40.733L39 32L55 40.733Z" fill="url(#paint10_linear_429_362)"/>
        <path d="M55 58.1946L39 66.9276V49.4659L55 40.7329V58.1946Z" fill="url(#paint11_linear_429_362)"/>
        <path d="M39 66.9276L23 58.1946V40.7329L39 49.4659V66.9276Z" fill="url(#paint12_linear_429_362)"/>
        <path d="M39.2088 49.6681L39 66.9275V49.4659L39.2088 49.6681Z" fill="#04BB8B"/>
        <path d="M55 40.7329L39 49.4659L39.2088 49.6681L55 40.7329Z" fill="#04BB8B"/>
        <path opacity="0.75" d="M39 49.4659L23 40.7329L38.7017 49.6681L39 66.9276V49.4659Z" fill="#04BB8B"/>
        <g clip-path="url(#clip3_429_362)">
            <path d="M36 51.733L20 60.4659L4 51.733L20 43L36 51.733Z" fill="url(#paint13_linear_429_362)"/>
            <path d="M36 69.1946L20 77.9276V60.4659L36 51.733V69.1946Z" fill="url(#paint14_linear_429_362)"/>
            <path d="M20 77.9276L4 69.1946V51.733L20 60.4659V77.9276Z" fill="url(#paint15_linear_429_362)"/>
            <path d="M20.2088 60.6681L20 77.9276V60.4659L20.2088 60.6681Z" fill="#3F75EA"/>
            <path d="M36 51.733L20 60.4659L20.2088 60.6681L36 51.733Z" fill="url(#paint16_linear_429_362)"/>
            <path opacity="0.76" d="M20 60.4659L4 51.733L19.7017 60.6681L20 77.9276V60.4659Z" fill="#3F75EA"/>
            <path opacity="0.44" d="M4 51.733L19.7017 60.6681L20 77.9276L4 69.1989V51.733Z" fill="url(#paint17_linear_429_362)"/>
        </g>
    </g>
    <defs>
        <linearGradient id="paint0_linear_429_362" x1="77.5" y1="29.5" x2="81.2837" y2="22.4463" gradientUnits="userSpaceOnUse">
            <stop stop-color="#4D1E75" stop-opacity="0.87"/>
            <stop offset="1" stop-color="#6B2F91" stop-opacity="0"/>
        </linearGradient>
        <linearGradient id="paint1_linear_429_362" x1="77" y1="46.9998" x2="86.4972" y2="46.8367" gradientUnits="userSpaceOnUse">
            <stop offset="0.0156" stop-color="#5F328E" stop-opacity="0.44"/>
            <stop offset="0.9799" stop-color="#C597EB" stop-opacity="0"/>
        </linearGradient>
        <linearGradient id="paint2_linear_429_362" x1="74.0476" y1="29.2942" x2="47.6211" y2="52.5962" gradientUnits="userSpaceOnUse">
            <stop offset="0.0816" stop-color="#2E074F"/>
            <stop offset="0.2321" stop-color="#280648"/>
            <stop offset="0.4467" stop-color="#190536"/>
            <stop offset="0.661" stop-color="#03031C"/>
        </linearGradient>
        <linearGradient id="paint3_linear_429_362" x1="78.9525" y1="28.5292" x2="88.0433" y2="23.4001" gradientUnits="userSpaceOnUse">
            <stop offset="0.1456" stop-color="#3F75EA"/>
            <stop offset="0.9674" stop-color="#6B2F91" stop-opacity="0"/>
        </linearGradient>
        <linearGradient id="paint4_linear_429_362" x1="50" y1="14.0586" x2="85.467" y2="45.3363" gradientUnits="userSpaceOnUse">
            <stop stop-color="#AD3784"/>
            <stop offset="0.42" stop-color="#952E79" stop-opacity="0.7785"/>
            <stop offset="0.7271" stop-color="#56175D" stop-opacity="0.3122"/>
            <stop offset="0.9328" stop-color="#290749" stop-opacity="0"/>
        </linearGradient>
        <linearGradient id="paint5_linear_429_362" x1="42" y1="48.7969" x2="36.0773" y2="26.5083" gradientUnits="userSpaceOnUse">
            <stop offset="0.0156" stop-color="#1B0E72"/>
            <stop offset="0.9799" stop-color="#707DDF" stop-opacity="0.78"/>
        </linearGradient>
        <linearGradient id="paint6_linear_429_362" x1="75.0667" y1="47.156" x2="65.9177" y2="28.8703" gradientUnits="userSpaceOnUse">
            <stop offset="0.0156" stop-color="#1B0E72"/>
            <stop offset="0.9799" stop-color="#707DDF"/>
        </linearGradient>
        <linearGradient id="paint7_linear_429_362" x1="55.0476" y1="39.2942" x2="28.6211" y2="62.5962" gradientUnits="userSpaceOnUse">
            <stop offset="0.0816" stop-color="#2E074F"/>
            <stop offset="0.2321" stop-color="#280648"/>
            <stop offset="0.4467" stop-color="#190536"/>
            <stop offset="0.661" stop-color="#03031C"/>
        </linearGradient>
        <linearGradient id="paint8_linear_429_362" x1="59.9525" y1="38.5292" x2="74.2896" y2="30.6337" gradientUnits="userSpaceOnUse">
            <stop offset="0.1456" stop-color="#3F75EA"/>
            <stop offset="0.9674" stop-color="#6B2F91" stop-opacity="0"/>
        </linearGradient>
        <linearGradient id="paint9_linear_429_362" x1="27.6" y1="34.031" x2="60.3224" y2="41.3939" gradientUnits="userSpaceOnUse">
            <stop offset="0.03125" stop-color="#6E7DE3"/>
            <stop offset="1" stop-color="#0015A0"/>
        </linearGradient>
        <linearGradient id="paint10_linear_429_362" x1="16.607" y1="27.8193" x2="48.2631" y2="45.7287" gradientUnits="userSpaceOnUse">
            <stop offset="0.0575" stop-color="#2E3386"/>
            <stop offset="0.2313" stop-color="#2E3986"/>
            <stop offset="0.457" stop-color="#2C4986"/>
            <stop offset="0.7101" stop-color="#2A6485"/>
            <stop offset="0.9041" stop-color="#287D85"/>
        </linearGradient>
        <linearGradient id="paint11_linear_429_362" x1="35.5605" y1="71.7617" x2="56.7731" y2="39.1438" gradientUnits="userSpaceOnUse">
            <stop offset="0.2691" stop-color="#005B71"/>
            <stop offset="0.3379" stop-color="#006774"/>
            <stop offset="0.7146" stop-color="#03A385"/>
            <stop offset="0.8941" stop-color="#04BB8B"/>
        </linearGradient>
        <linearGradient id="paint12_linear_429_362" x1="23.5181" y1="58.325" x2="40.2282" y2="48.4783" gradientUnits="userSpaceOnUse">
            <stop stop-color="#015576"/>
            <stop offset="0.9573" stop-color="#113B62"/>
        </linearGradient>
        <linearGradient id="paint13_linear_429_362" x1="0.0391584" y1="40.2219" x2="31.6953" y2="58.1313" gradientUnits="userSpaceOnUse">
            <stop offset="0.323" stop-color="#2E074F"/>
            <stop offset="0.4405" stop-color="#330A55"/>
            <stop offset="0.593" stop-color="#421465"/>
            <stop offset="0.764" stop-color="#5B2480"/>
            <stop offset="0.8562" stop-color="#6B2F91"/>
        </linearGradient>
        <linearGradient id="paint14_linear_429_362" x1="21.2156" y1="75.4654" x2="37.5839" y2="50.2964" gradientUnits="userSpaceOnUse">
            <stop offset="0.0156" stop-color="#253E81"/>
            <stop offset="0.4345" stop-color="#6B2F91"/>
            <stop offset="0.5107" stop-color="#713090"/>
            <stop offset="0.6145" stop-color="#83328C"/>
            <stop offset="0.7342" stop-color="#9F3587"/>
            <stop offset="0.8648" stop-color="#C73A7F"/>
            <stop offset="0.9799" stop-color="#F03F77"/>
        </linearGradient>
        <linearGradient id="paint15_linear_429_362" x1="17.0476" y1="60.2942" x2="-9.3789" y2="83.5962" gradientUnits="userSpaceOnUse">
            <stop offset="0.0816" stop-color="#2E074F"/>
            <stop offset="0.2321" stop-color="#280648"/>
            <stop offset="0.4467" stop-color="#190536"/>
            <stop offset="0.661" stop-color="#03031C"/>
        </linearGradient>
        <linearGradient id="paint16_linear_429_362" x1="21.9525" y1="59.5292" x2="36.2896" y2="51.6337" gradientUnits="userSpaceOnUse">
            <stop offset="0.1456" stop-color="#3F75EA"/>
            <stop offset="0.9674" stop-color="#6B2F91" stop-opacity="0"/>
        </linearGradient>
        <linearGradient id="paint17_linear_429_362" x1="-2.02959" y1="74.3622" x2="18.7591" y2="60.5068" gradientUnits="userSpaceOnUse">
            <stop offset="0.2741" stop-color="#AD3784"/>
            <stop offset="0.42" stop-color="#952E79" stop-opacity="0.7785"/>
            <stop offset="0.7271" stop-color="#56175D" stop-opacity="0.3122"/>
            <stop offset="0.9328" stop-color="#290749" stop-opacity="0"/>
        </linearGradient>
        <clipPath id="clip0_429_362">
            <rect width="90" height="90" fill="white"/>
        </clipPath>
        <clipPath id="clip1_429_362">
            <rect width="32" height="35" fill="white" transform="translate(61 12)"/>
        </clipPath>
        <clipPath id="clip2_429_362">
            <rect width="32" height="35" fill="white" transform="translate(42 22)"/>
        </clipPath>
        <clipPath id="clip3_429_362">
            <rect width="32" height="35" fill="white" transform="translate(4 43)"/>
        </clipPath>
    </defs>
</svg>
