<svg width="90" height="90" viewBox="0 0 90 90" fill="none" xmlns="http://www.w3.org/2000/svg">
    <g clip-path="url(#clip0_429_263)">
        <path d="M85.9996 23.6805L67.4444 33.3609L48.8891 23.6805L67.4444 14L85.9996 23.6805Z" fill="url(#paint0_linear_429_263)"/>
        <path d="M85.9996 43.0366L67.4444 52.7171V33.3609L85.9996 23.6805V43.0366Z" fill="url(#paint1_linear_429_263)"/>
        <path d="M67.4444 52.7171L48.8891 43.0366V23.6805L67.4444 33.3609V52.7171Z" fill="url(#paint2_linear_429_263)"/>
        <path d="M67.6865 33.5851L67.4444 52.7171V33.3609L67.6865 33.5851Z" fill="#3F75EA"/>
        <path d="M85.9996 23.6805L67.4444 33.3609L67.6865 33.5851L85.9996 23.6805Z" fill="url(#paint3_linear_429_263)"/>
        <path opacity="0.76" d="M67.4444 33.3609L48.8891 23.6805L67.0985 33.5851L67.4444 52.7171V33.3609Z" fill="#3F75EA"/>
        <path opacity="0.44" d="M48.8891 23.6805L67.0985 33.5851L67.4444 52.7171L48.8891 43.0414V23.6805Z" fill="url(#paint4_linear_429_263)"/>
    </g>
    <g clip-path="url(#clip1_429_263)">
        <path d="M63.1339 34.6449L44.5787 44.3254L26.0234 34.6449L44.5787 24.9644L63.1339 34.6449Z" fill="url(#paint5_linear_429_263)"/>
        <path d="M63.1339 54.001L44.5786 63.6815V44.3253L63.1339 34.6449V54.001Z" fill="url(#paint6_linear_429_263)"/>
        <path d="M44.5787 63.6815L26.0234 54.001V34.6449L44.5787 44.3253V63.6815Z" fill="url(#paint7_linear_429_263)"/>
        <path d="M44.8208 44.5494L44.5786 63.6814V44.3253L44.8208 44.5494Z" fill="#04BB8B"/>
        <path d="M63.1339 34.6449L44.5786 44.3253L44.8208 44.5494L63.1339 34.6449Z" fill="#04BB8B"/>
        <path opacity="0.75" d="M44.5787 44.3253L26.0234 34.6449L44.2328 44.5494L44.5787 63.6815V44.3253Z" fill="#04BB8B"/>
    </g>
    <g clip-path="url(#clip2_429_263)">
        <path d="M40.2671 45.8198L22.1336 55.7107L4 45.8198L22.1336 35.9289L40.2671 45.8198Z" fill="url(#paint8_linear_429_263)"/>
        <path d="M40.2671 65.5967L22.1336 75.4876V55.7107L40.2671 45.8198V65.5967Z" fill="url(#paint9_linear_429_263)"/>
        <path d="M22.1336 75.4876L4 65.5967V45.8198L22.1336 55.7107V75.4876Z" fill="url(#paint10_linear_429_263)"/>
        <path d="M22.3702 55.9397L22.1336 75.4876V55.7107L22.3702 55.9397Z" fill="#3F75EA"/>
        <path d="M40.2671 45.8198L22.1336 55.7107L22.3702 55.9397L40.2671 45.8198Z" fill="url(#paint11_linear_429_263)"/>
        <path opacity="0.76" d="M22.1336 55.7107L4 45.8198L21.7955 55.9397L22.1336 75.4876V55.7107Z" fill="#3F75EA"/>
        <path opacity="0.44" d="M4 45.8198L21.7955 55.9397L22.1336 75.4876L4 65.6016V45.8198Z" fill="url(#paint12_linear_429_263)"/>
    </g>
    <defs>
        <linearGradient id="paint0_linear_429_263" x1="48.8891" y1="43.7042" x2="42.5778" y2="18.8559" gradientUnits="userSpaceOnUse">
            <stop offset="0.0156" stop-color="#1B0E72"/>
            <stop offset="0.9799" stop-color="#707DDF" stop-opacity="0.6"/>
        </linearGradient>
        <linearGradient id="paint1_linear_429_263" x1="87.2366" y1="41.8854" x2="77.3723" y2="21.2591" gradientUnits="userSpaceOnUse">
            <stop offset="0.0156" stop-color="#1B0E72"/>
            <stop offset="0.9799" stop-color="#707DDF"/>
        </linearGradient>
        <linearGradient id="paint2_linear_429_263" x1="64.0205" y1="33.1705" x2="34.5904" y2="60.3198" gradientUnits="userSpaceOnUse">
            <stop offset="0.0816" stop-color="#2E074F"/>
            <stop offset="0.2321" stop-color="#280648"/>
            <stop offset="0.4467" stop-color="#190536"/>
            <stop offset="0.661" stop-color="#03031C"/>
        </linearGradient>
        <linearGradient id="paint3_linear_429_263" x1="69.7087" y1="32.3226" x2="85.9777" y2="22.9493" gradientUnits="userSpaceOnUse">
            <stop offset="0.1456" stop-color="#3F75EA"/>
            <stop offset="0.9674" stop-color="#6B2F91" stop-opacity="0"/>
        </linearGradient>
        <linearGradient id="paint4_linear_429_263" x1="32.1894" y1="27.3364" x2="69.9656" y2="36.2291" gradientUnits="userSpaceOnUse">
            <stop offset="0.03125" stop-color="#6E7DE3"/>
            <stop offset="1" stop-color="#0015A0"/>
        </linearGradient>
        <linearGradient id="paint5_linear_429_263" x1="18.6094" y1="20.3301" x2="54.4986" y2="41.5723" gradientUnits="userSpaceOnUse">
            <stop offset="0.0575" stop-color="#2E3386"/>
            <stop offset="0.2313" stop-color="#2E3986"/>
            <stop offset="0.457" stop-color="#2C4986"/>
            <stop offset="0.7101" stop-color="#2A6485"/>
            <stop offset="0.9041" stop-color="#287D85"/>
        </linearGradient>
        <linearGradient id="paint6_linear_429_263" x1="40.5898" y1="69.0401" x2="63.6578" y2="31.9307" gradientUnits="userSpaceOnUse">
            <stop offset="0.2691" stop-color="#005B71"/>
            <stop offset="0.3379" stop-color="#006774"/>
            <stop offset="0.7146" stop-color="#03A385"/>
            <stop offset="0.8941" stop-color="#04BB8B"/>
        </linearGradient>
        <linearGradient id="paint7_linear_429_263" x1="26.6243" y1="54.1456" x2="45.5421" y2="42.4829" gradientUnits="userSpaceOnUse">
            <stop stop-color="#015576"/>
            <stop offset="0.9573" stop-color="#113B62"/>
        </linearGradient>
        <linearGradient id="paint8_linear_429_263" x1="-0.489009" y1="32.7824" x2="35.3768" y2="53.0869" gradientUnits="userSpaceOnUse">
            <stop offset="0.323" stop-color="#2E074F"/>
            <stop offset="0.4405" stop-color="#330A55"/>
            <stop offset="0.593" stop-color="#421465"/>
            <stop offset="0.764" stop-color="#5B2480"/>
            <stop offset="0.8562" stop-color="#6B2F91"/>
        </linearGradient>
        <linearGradient id="paint9_linear_429_263" x1="23.5112" y1="72.699" x2="42.0449" y2="44.1815" gradientUnits="userSpaceOnUse">
            <stop offset="0.0156" stop-color="#253E81"/>
            <stop offset="0.4345" stop-color="#6B2F91"/>
            <stop offset="0.5107" stop-color="#713090"/>
            <stop offset="0.6145" stop-color="#83328C"/>
            <stop offset="0.7342" stop-color="#9F3587"/>
            <stop offset="0.8648" stop-color="#C73A7F"/>
            <stop offset="0.9799" stop-color="#F03F77"/>
        </linearGradient>
        <linearGradient id="paint10_linear_429_263" x1="18.7875" y1="55.5161" x2="-11.1455" y2="81.9276" gradientUnits="userSpaceOnUse">
            <stop offset="0.0816" stop-color="#2E074F"/>
            <stop offset="0.2321" stop-color="#280648"/>
            <stop offset="0.4467" stop-color="#190536"/>
            <stop offset="0.661" stop-color="#03031C"/>
        </linearGradient>
        <linearGradient id="paint11_linear_429_263" x1="24.3464" y1="54.6498" x2="40.5904" y2="45.6982" gradientUnits="userSpaceOnUse">
            <stop offset="0.1456" stop-color="#3F75EA"/>
            <stop offset="0.9674" stop-color="#6B2F91" stop-opacity="0"/>
        </linearGradient>
        <linearGradient id="paint12_linear_429_263" x1="-2.83362" y1="71.4496" x2="20.7176" y2="55.7425" gradientUnits="userSpaceOnUse">
            <stop offset="0.2741" stop-color="#AD3784"/>
            <stop offset="0.42" stop-color="#952E79" stop-opacity="0.7785"/>
            <stop offset="0.7271" stop-color="#56175D" stop-opacity="0.3122"/>
            <stop offset="0.9328" stop-color="#290749" stop-opacity="0"/>
        </linearGradient>
        <clipPath id="clip0_429_263">
            <rect width="37.1105" height="38.7974" fill="white" transform="translate(48.8891 14)"/>
        </clipPath>
        <clipPath id="clip1_429_263">
            <rect width="37.1105" height="38.7974" fill="white" transform="translate(26.0234 24.9644)"/>
        </clipPath>
        <clipPath id="clip2_429_263">
            <rect width="36.2671" height="39.6408" fill="white" transform="translate(4 35.9289)"/>
        </clipPath>
    </defs>
</svg>
