<svg width="144" height="40" viewBox="0 0 144 40" fill="none" xmlns="http://www.w3.org/2000/svg">
    <g clip-path="url(#clip0_1_921)">
        <path d="M20.0027 0C8.97473 0 0 8.96945 0 20C0 27.9267 4.64013 34.7943 11.3457 38.0285V38.0407H11.3742C13.9897 39.2953 16.9147 40 20.0027 40C31.0307 40 40.0054 31.0265 40.0054 20C40.0054 8.97352 31.0307 0 20.0027 0ZM20.0027 1.64155C30.1263 1.64155 38.3636 9.8778 38.3636 20C38.3636 22.9083 37.6792 25.6578 36.4734 28.1059C33.8294 26.8228 31.1447 25.8697 28.4356 25.2261V9.91039C28.4356 9.38086 28.0119 8.94908 27.4946 8.94908H24.1295H15.6559H12.2909C11.7694 8.94908 11.3498 9.38086 11.3498 9.91039V25.2953C8.72215 25.943 6.11081 26.8758 3.54019 28.1059C2.33026 25.6578 1.64583 22.9083 1.64583 19.9959C1.64176 9.87779 9.87913 1.64155 20.0027 1.64155ZM4.59531 29.9633C6.77076 28.8839 9.03176 28.057 11.3457 27.4868V36.1833C8.60401 34.7128 6.2819 32.5621 4.59531 29.9633ZM15.6559 37.833V17.3401C15.6559 14.9735 17.5991 13.002 19.9212 13.002C22.2433 13.002 24.1295 14.9206 24.1295 17.2912C24.1295 17.3075 24.1255 17.3238 24.1255 17.3401H24.1295V24.4684C22.1496 24.2444 20.1616 24.1629 18.1776 24.2688L16.5399 26.6395C19.0861 26.4236 21.563 26.444 24.0073 26.7169C24.0277 26.721 24.0521 26.721 24.0725 26.721C24.0888 26.721 24.1051 26.7251 24.1295 26.7291C24.5532 26.778 26.1094 26.9776 27.5271 27.332L24.1295 28.4847V37.8819C22.8014 38.1874 21.4245 38.3544 20.0068 38.3544C18.5035 38.3584 17.0491 38.1711 15.6559 37.833ZM28.4356 36.2973V27.5234C30.7496 28.1059 33.0432 28.9572 35.3408 30.0733C33.6135 32.6925 31.2344 34.8432 28.4356 36.2973Z" fill="url(#paint0_linear_1_921)"/>
        <path d="M51.013 6.33002H56.8345C60.2362 6.33002 62.2895 8.32595 62.2895 11.2587V11.2995C62.2895 14.6192 59.7229 16.3056 56.529 16.3056H54.1458V20.5826H51.0089V6.33002H51.013ZM56.6308 13.5154C58.1993 13.5154 59.1159 12.5785 59.1159 11.3565V11.3158C59.1159 9.91046 58.1382 9.1569 56.5698 9.1569H54.1458V13.5154H56.6308Z" fill="white"/>
        <path d="M64.799 13.4991V13.4583C64.799 9.40537 67.997 6.08969 72.3927 6.08969C76.7925 6.08969 79.9456 9.36871 79.9456 13.4176V13.4583C79.9456 17.5113 76.7477 20.827 72.352 20.827C67.9522 20.827 64.799 17.5479 64.799 13.4991ZM76.6702 13.4991V13.4583C76.6702 11.0143 74.8777 8.97767 72.352 8.97767C69.8262 8.97767 68.0744 10.9736 68.0744 13.4135V13.4542C68.0744 15.8982 69.8669 17.9349 72.3927 17.9349C74.9185 17.9349 76.6702 15.939 76.6702 13.4991Z" fill="white"/>
        <path d="M83.551 6.33002H86.4435L93.1205 15.104V6.33002H96.2167V20.5826H93.5483L86.6472 11.5235V20.5826H83.551V6.33002Z" fill="white"/>
        <path d="M103.774 9.22208H99.435V6.33002H111.245V9.22208H106.907V20.5826H103.77V9.22208H103.774Z" fill="white"/>
        <path d="M114.464 6.33002H125.214V9.12024H117.58V12.0123H124.298V14.8025H117.58V17.7964H125.316V20.5866H114.464V6.33002Z" fill="white"/>
        <path d="M128.922 6.33002H132.303L136.051 12.3585L139.799 6.33002H143.18V20.5826H140.064V11.2791L136.051 17.3646H135.969L131.997 11.3361V20.5785H128.922V6.33002Z" fill="white"/>
        <path d="M55.0895 29.952V29.9825C55.4832 30.0301 55.809 30.1998 56.0669 30.4916C56.3316 30.7767 56.464 31.1467 56.464 31.6015C56.464 32.1581 56.2773 32.6061 55.904 32.9455C55.5375 33.2849 55.0182 33.4545 54.3462 33.4545H51.0778V26.6327H54.2138C54.8451 26.6327 55.3406 26.7956 55.7004 27.1215C56.0601 27.4473 56.24 27.8817 56.24 28.4247C56.24 28.8388 56.1246 29.1884 55.8938 29.4735C55.6698 29.7518 55.4017 29.9113 55.0895 29.952ZM51.8822 27.3251V29.6873H54.2036C54.5838 29.6873 54.8892 29.5753 55.12 29.3513C55.3576 29.1273 55.4764 28.832 55.4764 28.4655C55.4764 28.1193 55.3542 27.8444 55.1098 27.6407C54.8722 27.4303 54.5498 27.3251 54.1425 27.3251H51.8822ZM51.8822 32.7622H54.2749C54.6958 32.7622 55.0284 32.6502 55.2727 32.4262C55.5239 32.2022 55.6495 31.9035 55.6495 31.5302C55.6495 31.1704 55.5205 30.8819 55.2625 30.6647C55.0114 30.4475 54.6856 30.3389 54.2851 30.3389H51.8822V32.7622Z" fill="white"/>
        <path d="M72.8768 32.7215V33.4545H68.1626V26.6327H68.967V32.7215H72.8768Z" fill="white"/>
        <path d="M87.3507 26.5004C88.3349 26.5004 89.1665 26.8432 89.8452 27.5287C90.5308 28.2143 90.8736 29.0526 90.8736 30.0436C90.8736 31.0347 90.5308 31.873 89.8452 32.5585C89.1665 33.2441 88.3349 33.5869 87.3507 33.5869C86.3597 33.5869 85.5214 33.2441 84.8358 32.5585C84.157 31.873 83.8176 31.0347 83.8176 30.0436C83.8176 29.0526 84.157 28.2143 84.8358 27.5287C85.5214 26.8432 86.3597 26.5004 87.3507 26.5004ZM87.3507 32.8233C88.1109 32.8233 88.7524 32.5585 89.2751 32.0291C89.7977 31.4929 90.0591 30.831 90.0591 30.0436C90.0591 29.263 89.7977 28.6046 89.2751 28.0684C88.7524 27.5253 88.1109 27.2538 87.3507 27.2538C86.5837 27.2538 85.9388 27.5253 85.4162 28.0684C84.8935 28.6046 84.6322 29.263 84.6322 30.0436C84.6322 30.831 84.8935 31.4929 85.4162 32.0291C85.9388 32.5585 86.5837 32.8233 87.3507 32.8233Z" fill="white"/>
        <path d="M105.818 32.8335C106.415 32.8335 106.931 32.6841 107.365 32.3855C107.807 32.08 108.116 31.649 108.292 31.0924L109.066 31.2756C108.855 31.9884 108.458 32.5518 107.875 32.9658C107.291 33.3799 106.605 33.5869 105.818 33.5869C104.827 33.5869 103.988 33.2441 103.303 32.5585C102.617 31.873 102.275 31.0347 102.275 30.0436C102.275 29.0526 102.617 28.2143 103.303 27.5287C103.988 26.8432 104.827 26.5004 105.818 26.5004C106.598 26.5004 107.281 26.7074 107.864 27.1215C108.455 27.5287 108.855 28.0752 109.066 28.7607L108.292 28.9847C108.122 28.4417 107.817 28.0175 107.376 27.712C106.934 27.4065 106.415 27.2538 105.818 27.2538C105.051 27.2538 104.403 27.5219 103.873 28.0582C103.35 28.5944 103.089 29.2562 103.089 30.0436C103.089 30.8242 103.35 31.4861 103.873 32.0291C104.403 32.5653 105.051 32.8335 105.818 32.8335Z" fill="white"/>
        <path d="M126.928 33.4545H125.91L123.283 30.1353L121.613 31.9375V33.4545H120.809V26.6327H121.613V30.9498L125.584 26.6327H126.521L123.823 29.5549L126.928 33.4545Z" fill="white"/>
        <path d="M140.333 26.5004C141.005 26.5004 141.569 26.6701 142.023 27.0095C142.485 27.3489 142.774 27.8036 142.889 28.3738L142.085 28.5571C142.01 28.143 141.813 27.8138 141.494 27.5695C141.175 27.3251 140.781 27.2029 140.313 27.2029C139.851 27.2029 139.478 27.3183 139.193 27.5491C138.908 27.7731 138.765 28.0684 138.765 28.4349C138.765 28.7268 138.85 28.9542 139.02 29.1171C139.196 29.2732 139.454 29.3852 139.794 29.4531L141.28 29.7891C142.427 30.0335 143.001 30.624 143.001 31.5607C143.001 32.1784 142.77 32.6705 142.309 33.0371C141.847 33.4036 141.233 33.5869 140.466 33.5869C139.726 33.5869 139.098 33.407 138.582 33.0473C138.073 32.6807 137.778 32.1818 137.696 31.5505L138.541 31.3775C138.616 31.8526 138.833 32.2225 139.193 32.4873C139.553 32.7452 140.001 32.8742 140.537 32.8742C141.053 32.8742 141.457 32.7588 141.749 32.528C142.047 32.2904 142.197 31.9816 142.197 31.6015C142.197 31.2892 142.108 31.055 141.932 30.8989C141.762 30.7428 141.48 30.6206 141.087 30.5324L139.549 30.1964C138.456 29.952 137.91 29.3716 137.91 28.4553C137.91 27.8715 138.131 27.3998 138.572 27.04C139.02 26.6802 139.607 26.5004 140.333 26.5004Z" fill="white"/>
    </g>
    <defs>
        <linearGradient id="paint0_linear_1_921" x1="20.0024" y1="40.8726" x2="20.0024" y2="-6.13275" gradientUnits="userSpaceOnUse">
            <stop offset="0.0858" stop-color="#8D29C1"/>
            <stop offset="0.2383" stop-color="#942BBB"/>
            <stop offset="0.4667" stop-color="#A92FAC"/>
            <stop offset="0.7413" stop-color="#CA3793"/>
            <stop offset="1" stop-color="#F03F77"/>
        </linearGradient>
        <clipPath id="clip0_1_921">
            <rect width="143.2" height="40" fill="white"/>
        </clipPath>
    </defs>
</svg>
