<svg fill="none" height="410" viewBox="0 0 320 410" width="320" xmlns="http://www.w3.org/2000/svg" xmlns:xlink="http://www.w3.org/1999/xlink"><filter id="a" color-interpolation-filters="sRGB" filterUnits="userSpaceOnUse" height="59.807" width="59.807" x="-51.8267" y="345.016"><feFlood flood-opacity="0" result="BackgroundImageFix"/><feBlend in="SourceGraphic" in2="BackgroundImageFix" mode="normal" result="shape"/><feGaussianBlur result="effect1_foregroundBlur" stdDeviation="2.71828"/></filter><path clip-rule="evenodd" d="m200.519 11.686c39.824-6.31091 77.223 20.861 83.527 60.6865l23.811 150.4115c6.303 39.816-20.862 77.204-60.677 83.514l-150.2596 23.811c-39.8245 6.311-77.2233-20.861-83.5278-60.686l-23.8102-150.411c-6.303-39.8168 20.8613-77.2052 60.6766-83.5147z" fill="#54c5a8" fill-rule="evenodd"/><path d="m52.033 207.318c19.1034 0 34.5898-15.494 34.5898-34.608 0-19.113-15.4864-34.608-34.5898-34.608s-34.5898 15.495-34.5898 34.608c0 19.114 15.4864 34.608 34.5898 34.608z" style="fill-rule:evenodd;clip-rule:evenodd;stroke:#00377b;stroke-width:6;stroke-linecap:round;stroke-linejoin:round;stroke-dasharray:0 25"/><path d="m17.5271 304.616h198.5609v-77.994h61.777v-17.197h30.875v-56.425" stroke="#f2c54b" stroke-dasharray="15 31" stroke-linecap="round" stroke-linejoin="round" stroke-width="4"/><rect fill="#9bd5ff" height="33.6192" rx="9" width="33.6015" x="152.179" y="113.382"/><rect fill="#fff" fill-opacity=".72" height="9.888" rx="4.94139" width="9.88279" x="192.039" y="158.538"/><g filter="url(#a)"><path clip-rule="evenodd" d="m-14.8848 374.92 8.71014 8.715-7.03844 7.042-8.7101-8.715-8.7101 8.715-7.0385-7.042 8.7101-8.715-8.7101-8.715 7.0385-7.042 8.7101 8.715 8.7101-8.715 7.03844 7.042z" fill="#54c5a8" fill-rule="evenodd"/></g></svg>