<svg fill="none" height="31" viewBox="0 0 31 31" width="31" xmlns="http://www.w3.org/2000/svg"><path clip-rule="evenodd" d="m26.3477 26.3477c3.0182-3.0183 4.5273-6.655 4.5273-10.9102h-3.1172c0 3.4141-1.1998 6.321-3.5996 8.7207-2.3997 2.3998-5.3066 3.5996-8.7207 3.5996s-6.32095-1.1998-8.7207-3.5996c-2.39975-2.3997-3.59961-5.3066-3.59961-8.7207s1.19986-6.32095 3.59961-8.7207 5.3066-3.59961 8.7207-3.59961c1.1875 0 2.3255.14843 3.4141.44531l2.375-2.375c-1.8803-.791671-3.8099-1.1875-5.7891-1.1875-4.2552 0-7.89191 1.5091-10.91016 4.52734-3.01824 3.01825-4.52734 6.65496-4.52734 10.91016s1.5091 7.8919 4.52734 10.9102c3.01825 3.0182 6.65496 4.5273 10.91016 4.5273s7.8919-1.5091 10.9102-4.5273zm-12.4688-9.1289-4.74999-4.75-2.15235 2.2265 6.90234 6.9024 15.4375-15.43754-2.1523-2.15235z" fill="#54c5a8" fill-rule="evenodd"/></svg>