<svg fill="none" height="41" viewBox="0 0 354 41" width="354" xmlns="http://www.w3.org/2000/svg"><g fill="#00377b"><path d="m24.6232 41h-22.17392c-.79711 0-1.44928-.6661-1.44928-1.4801v-38.03976c0-.814075.65217-1.48014 1.44928-1.48014.7971 0 1.44927.666065 1.44927 1.48014v36.55956h20.65215c.7971 0 1.4493.6661 1.4493 1.4802 0 .814-.5797 1.4801-1.3768 1.4801z"/><path d="m25.5 33h-15c-.825 0-1.5-.6542-1.5-1.4537v-30.09256c0-.799555.675-1.45374 1.5-1.45374s1.5.654185 1.5 1.45374v28.63876h13.5c.825 0 1.5.6542 1.5 1.4538 0 .7995-.675 1.4537-1.5 1.4537z"/><path d="m175.551 41h-22.102c-.797 0-1.449-.6661-1.449-1.4801v-38.03976c0-.814075.652-1.48014 1.449-1.48014s1.45.666065 1.45 1.48014v36.55956h20.652c.797 0 1.449.6661 1.449 1.4802 0 .814-.652 1.4801-1.449 1.4801z"/><path d="m175.5 33h-15c-.825 0-1.5-.6542-1.5-1.4537v-30.09256c0-.799555.675-1.45374 1.5-1.45374s1.5.654185 1.5 1.45374v28.63876h13.5c.825 0 1.5.6542 1.5 1.4538 0 .7995-.675 1.4537-1.5 1.4537z"/><path d="m222.551 41h-22.102c-.797 0-1.449-.6661-1.449-1.4801v-38.03976c0-.814075.652-1.48014 1.449-1.48014s1.45.666065 1.45 1.48014v36.55956h20.652c.797 0 1.449.6661 1.449 1.4802 0 .814-.652 1.4801-1.449 1.4801z"/><path d="m222.5 33h-15c-.825 0-1.5-.6542-1.5-1.4537v-30.09256c0-.799555.675-1.45374 1.5-1.45374s1.5.654185 1.5 1.45374v28.63876h13.5c.825 0 1.5.6542 1.5 1.4538 0 .7995-.675 1.4537-1.5 1.4537z"/><path d="m71.6517 18.2683c-.1-.7317-.2-1.5366-.4-2.2683.5 1.9756.6 4.0244.4 6 .1-1.2439.1-2.4878 0-3.7317z"/><path d="m99.4612 41c-2.6943 0-5.3886-.5163-7.8702-1.6227-4.7505-2.0652-8.3665-6.0481-10.21-11.0636-1.7017-4.6467-1.8435-10.031-.3545-14.7515 1.5598-5.08923 4.8214-9.07213 9.2173-11.28485 6.0977-3.024059 11.9822-3.024059 17.9382-.07376.709.36879.993 1.25388.709 1.99145-.354.73757-1.205 1.0326-1.914.73757-5.247-2.58151-10.1392-2.58151-15.5278.07376-6.4522 3.17157-10.9191 12.39123-7.3739 22.27473 1.5599 4.2779 4.6087 7.597 8.6501 9.3672 4.4669 1.9177 9.6426 1.8439 14.1806-.295.709-.3688 1.56 0 1.914.7376.355.7375 0 1.6226-.709 1.9914-2.765 1.2539-5.743 1.9177-8.6498 1.9177z"/><path d="m100.9 33c-2.0716 0-4.0693-.3505-5.919-1.1216-3.2554-1.2618-5.697-3.6453-6.9548-6.5895-2.9595-7.0102.8879-13.5997 6.3629-15.91303 4.3653-1.82264 8.5089-1.82264 12.7259-.0701.74.3505 1.11 1.19173.74 1.89273s-1.258 1.0515-1.998.701c-3.477-1.4721-6.7327-1.4721-10.2841.0701-4.1433 1.7525-7.1028 6.7998-4.8091 12.2677.9618 2.3134 2.8115 4.0659 5.401 5.0473 3.0335 1.1918 6.5112 1.1918 9.6922-.0701.74-.2804 1.628.0701 1.924.7711.296.7011-.074 1.5423-.814 1.8227-1.924.8412-3.995 1.1917-6.067 1.1917z"/><path d="m144.401 41c-.595 0-1.115-.37-1.412-.8881l-14.866-34.78338-14.27 34.70938c-.298.7401-1.19 1.1101-1.933.8141s-1.115-1.1841-.817-1.9242l15.682-37.965706c.223-.592058.744-.962094 1.413-.962094.594 0 1.115.370036 1.412.888087l16.277 38.113713c.298.7401 0 1.6282-.817 1.9982-.223-.074-.446 0-.669 0z"/><path clip-rule="evenodd" d="m130.984 20c0 .0682 2.937 7.2273 2.937 7.2273.158.4091.079.8863-.238 1.2272-.239.341-.715.5455-1.191.5455h-.079-6.746c-.556 0-1.032-.2727-1.35-.6136-.317-.3409-.396-.8182-.238-1.2273l.159-.4091 2.778-6.75c.159-.3409.555-.6818 1.032-.8182 1.031-.3409 2.539-.2727 2.936.8182zm-1.905 2.7273-1.904 4.1591h3.809z" fill-rule="evenodd"/><path d="m136.442 40.987c-.516 0-1.032-.3398-1.327-.9346l-1.621-3.6537h-9.062l-1.621 3.6537c-.368.8497-1.253 1.1895-1.989.7647-.737-.4248-1.032-1.4445-.663-2.2941l2.063-4.5883c.221-.5948.736-.9347 1.326-.9347h10.904c.59 0 1.105.3399 1.326.9347l2.063 4.5883c.369.8496.074 1.8693-.663 2.2941-.221.085-.442.1699-.736.1699z"/><path d="m351.546 4h-26.092c-.8 0-1.454-.9-1.454-2s.654-2 1.454-2h26.092c.8 0 1.454.9 1.454 2s-.654 2-1.454 2z"/><path d="m333.543 41c-.763 0-1.387-.6644-1.387-1.4765v-28.5705h-7.769c-.763 0-1.387-.6644-1.387-1.47649 0-.81208.624-1.47651 1.387-1.47651h9.226c.763 0 1.387.66443 1.387 1.47651v30.04699c-.069.8121-.694 1.4765-1.457 1.4765z"/><path d="m342.387 41c-.763 0-1.387-.6644-1.387-1.4765v-30.04699c0-.81208.624-1.47651 1.387-1.47651h9.226c.763 0 1.387.66443 1.387 1.47651 0 .81209-.624 1.47649-1.387 1.47649h-7.769v28.5705c-.069.8121-.694 1.4765-1.457 1.4765z"/><g clip-rule="evenodd" fill-rule="evenodd"><path d="m33 20.5c0-11.3231 9.1769-20.5 20.5-20.5s20.5 9.1769 20.5 20.5-9.1769 20.5-20.5 20.5-20.5-9.1769-20.5-20.5zm2.9603.074c0 9.695 7.8448 17.5397 17.5397 17.5397s17.5397-7.9188 17.5397-17.5397c0-9.6949-7.8448-17.5397-17.5397-17.5397s-17.5397 7.8448-17.5397 17.5397z"/><path d="m41 20.5c0-6.9118 5.5882-12.5 12.5-12.5s12.5 5.5882 12.5 12.5-5.5882 12.5-12.5 12.5-12.5-5.5882-12.5-12.5zm2.8676 0c0 5.2941 4.3383 9.6324 9.6324 9.6324s9.6324-4.3383 9.6324-9.6324-4.3383-9.6324-9.6324-9.6324-9.6324 4.3383-9.6324 9.6324z"/><path d="m279 20.5c0-11.3231 9.177-20.5 20.5-20.5s20.5 9.1769 20.5 20.5-9.177 20.5-20.5 20.5-20.5-9.1769-20.5-20.5zm2.96.074c0 9.695 7.845 17.5397 17.54 17.5397s17.54-7.9188 17.54-17.5397c0-9.6949-7.845-17.5397-17.54-17.5397s-17.54 7.8448-17.54 17.5397z"/><path d="m287 20.5c0-6.9118 5.588-12.5 12.5-12.5s12.5 5.5882 12.5 12.5-5.588 12.5-12.5 12.5-12.5-5.5882-12.5-12.5zm2.868 0c0 5.2941 4.338 9.6324 9.632 9.6324s9.632-4.3383 9.632-9.6324-4.338-9.6324-9.632-9.6324-9.632 4.3383-9.632 9.6324z"/><path d="m232 20.5c0-11.3231 9.177-20.5 20.5-20.5 11.249 0 20.426 9.1769 20.5 20.5 0 11.3231-9.177 20.5-20.5 20.5s-20.5-9.1769-20.5-20.5zm2.96.074c0 9.695 7.845 17.5397 17.54 17.5397s17.54-7.9188 17.54-17.5397c0-9.6949-7.845-17.5397-17.54-17.5397s-17.54 7.8448-17.54 17.5397z"/><path d="m240 20.5c0-6.9118 5.588-12.5 12.5-12.5s12.5 5.5882 12.5 12.5-5.588 12.5-12.5 12.5-12.5-5.5882-12.5-12.5zm2.868 0c0 5.2941 4.338 9.6324 9.632 9.6324s9.632-4.3383 9.632-9.6324-4.338-9.6324-9.632-9.6324-9.632 4.3383-9.632 9.6324z"/></g></g></svg>