<svg fill="none" height="21" viewBox="0 0 180 21" width="180" xmlns="http://www.w3.org/2000/svg"><g fill="#00377b"><path d="m12.2841 21h-11.530477c-.414493 0-.753623-.3412-.753623-.7581v-19.483777c0-.416968.33913-.758123.753623-.758123.414497 0 .753627.341155.753627.758123v18.725677h10.73915c.4145 0 .7536.3411.7536.7581 0 .4169-.3014.7581-.7159.7581z"/><path d="m12.25 17h-7.5c-.4125 0-.75-.337-.75-.7489v-15.502201c0-.411895.3375-.748899.75-.748899s.75.337004.75.748899v14.753301h6.75c.4125 0 .75.337.75.7489s-.3375.7489-.75.7489z"/><path d="m89.2464 21h-11.4928c-.4145 0-.7536-.3412-.7536-.7581v-19.483777c0-.416968.3391-.758123.7536-.758123s.7536.341155.7536.758123v18.725677h10.7392c.4145 0 .7536.3411.7536.7581 0 .4169-.3391.7581-.7536.7581z"/><path d="m89.25 17h-7.5c-.4125 0-.75-.337-.75-.7489v-15.502201c0-.411895.3375-.748899.75-.748899s.75.337004.75.748899v14.753301h6.75c.4125 0 .75.337.75.7489s-.3375.7489-.75.7489z"/><path d="m113.246 21h-11.492c-.415 0-.754-.3412-.754-.7581v-19.483777c0-.416968.339-.758123.754-.758123.414 0 .753.341155.753.758123v18.725677h10.739c.415 0 .754.3411.754.7581 0 .4169-.339.7581-.754.7581z"/><path d="m113.25 17h-7.5c-.412 0-.75-.337-.75-.7489v-15.502201c0-.411895.338-.748899.75-.748899.413 0 .75.337004.75.748899v14.753301h6.75c.413 0 .75.337.75.7489s-.337.7489-.75.7489z"/><path d="m36.0569 9.13415c-.0375-.36586-.075-.7683-.15-1.13415.1875.9878.225 2.0122.15 3 .0375-.622.0375-1.2439 0-1.86585z"/><path d="m50.0662 21c-1.3937 0-2.7873-.2644-4.0709-.8311-2.4571-1.0578-4.3275-3.0978-5.281-5.6668-.8802-2.38-.9535-5.13778-.1834-7.55559.8069-2.6067 2.4939-4.64672 4.7676-5.78006 3.154-1.548911 6.1979-1.54891 9.2785-.03778.3668.18889.5135.64223.3668 1.02001-.1834.37778-.6235.52889-.9902.37778-2.7139-1.32224-5.2444-1.32224-8.0316.03778-3.3373 1.62446-5.6478 6.34674-3.8141 11.40906.8068 2.1911 2.3838 3.8911 4.4742 4.7978 2.3105.9822 4.9877.9444 7.3348-.1511.3668-.1889.8068 0 .9902.3778.1834.3777 0 .8311-.3667 1.02-1.4303.6422-2.9706.9822-4.4742.9822z"/><path d="m51.281 17c-1.0852 0-2.1316-.1823-3.1005-.5832-1.7052-.6562-2.9841-1.8956-3.643-3.4266-1.5502-3.64526.4651-7.07181 3.333-8.27475 2.2866-.94777 4.4569-.94777 6.6659-.03645.3876.18226.5814.61969.3876.98422s-.6589.54679-1.0464.36453c-1.8215-.76551-3.5268-.76551-5.387.03645-2.1703.91132-3.7205 3.53591-2.5191 6.3792.5038 1.203 1.4727 2.1143 2.8291 2.6246 1.589.6197 3.4105.6197 5.077-.0364.3875-.1459.8526.0364 1.0076.4009.155.3646-.0387.802-.4263.9478-1.0076.4374-2.0928.6197-3.1779.6197z"/><path d="m73.1776 21c-.3058 0-.5734-.1895-.7263-.4549l-7.645-17.81586-7.3392 17.77796c-.1529.3791-.6116.5686-.9938.417-.3823-.1516-.5734-.6065-.4205-.9856l8.0654-19.44582c.1147-.303249.3823-.49278.7263-.49278.3058 0 .5734.189531.7263.454874l8.3713 19.521626c.1528.3791 0 .834-.4205 1.0235-.1147-.0379-.2294 0-.344 0z"/><path clip-rule="evenodd" d="m66.4921 10.5c0 .0341 1.4682 3.6136 1.4682 3.6136.0794.2046.0397.4432-.119.6137-.1191.1704-.3572.2727-.5953.2727h-.0397-3.373c-.2777 0-.5158-.1364-.6746-.3068-.1587-.1705-.1984-.4091-.119-.6137l.0793-.2045 1.3889-3.375c.0794-.1705.2778-.3409.5159-.4091.5159-.17045 1.2699-.13635 1.4683.4091zm-.9524 1.3636-.9524 2.0796h1.9048z" fill-rule="evenodd"/><path d="m69.2208 20.9935c-.2579 0-.5158-.1699-.6631-.4673l-.8105-1.8268h-4.5312l-.8105 1.8268c-.1842.4248-.6263.5948-.9946.3824-.3684-.2125-.5158-.7223-.3316-1.1471l1.0315-2.2942c.1105-.2974.3684-.4673.6631-.4673h5.4522c.2947 0 .5526.1699.6631.4673l1.0315 2.2942c.1842.4248.0368.9346-.3316 1.1471-.1105.0424-.221.0849-.3683.0849z"/><path d="m179.248 2h-13.496c-.414 0-.752-.45-.752-1s.338-1 .752-1h13.496c.414 0 .752.45.752 1s-.338 1-.752 1z"/><path d="m170.272 21c-.382 0-.694-.3423-.694-.7606v-14.71815h-3.884c-.382 0-.694-.34228-.694-.76062 0-.41835.312-.76063.694-.76063h4.612c.382 0 .694.34228.694.76063v15.47877c-.035.4183-.347.7606-.728.7606z"/><path d="m174.694 21c-.382 0-.694-.3423-.694-.7606v-15.47877c0-.41835.312-.76063.694-.76063h4.612c.382 0 .694.34228.694.76063 0 .41834-.312.76062-.694.76062h-3.884v14.71815c-.035.4183-.347.7606-.728.7606z"/><g clip-rule="evenodd" fill-rule="evenodd"><path d="m16 10.5c0-5.79964 4.7004-10.5 10.5-10.5s10.5 4.70036 10.5 10.5c0 5.7996-4.7004 10.5-10.5 10.5s-10.5-4.7004-10.5-10.5zm1.5162.0379c0 4.9657 4.0181 8.9838 8.9838 8.9838s8.9838-4.056 8.9838-8.9838c0-4.9657-4.0181-8.98375-8.9838-8.98375s-8.9838 4.01805-8.9838 8.98375z"/><path d="m20 10.5c0-3.59412 2.9059-6.5 6.5-6.5s6.5 2.90588 6.5 6.5c0 3.5941-2.9059 6.5-6.5 6.5s-6.5-2.9059-6.5-6.5zm1.4912 0c0 2.7529 2.2559 5.0088 5.0088 5.0088s5.0088-2.2559 5.0088-5.0088c0-2.75294-2.2559-5.00882-5.0088-5.00882s-5.0088 2.25588-5.0088 5.00882z"/><path d="m142 10.5c0-5.79964 4.7-10.5 10.5-10.5s10.5 4.70036 10.5 10.5c0 5.7996-4.7 10.5-10.5 10.5s-10.5-4.7004-10.5-10.5zm1.516.0379c0 4.9657 4.018 8.9838 8.984 8.9838s8.984-4.056 8.984-8.9838c0-4.9657-4.018-8.98375-8.984-8.98375s-8.984 4.01805-8.984 8.98375z"/><path d="m146 10.5c0-3.59412 2.906-6.5 6.5-6.5s6.5 2.90588 6.5 6.5c0 3.5941-2.906 6.5-6.5 6.5s-6.5-2.9059-6.5-6.5zm1.491 0c0 2.7529 2.256 5.0088 5.009 5.0088s5.009-2.2559 5.009-5.0088c0-2.75294-2.256-5.00882-5.009-5.00882s-5.009 2.25588-5.009 5.00882z"/><path d="m118 10.5c0-5.79964 4.7-10.5 10.5-10.5 5.762 0 10.462 4.70036 10.5 10.5 0 5.7996-4.7 10.5-10.5 10.5s-10.5-4.7004-10.5-10.5zm1.516.0379c0 4.9657 4.018 8.9838 8.984 8.9838s8.984-4.056 8.984-8.9838c0-4.9657-4.018-8.98375-8.984-8.98375s-8.984 4.01805-8.984 8.98375z"/><path d="m122 10.5c0-3.59412 2.906-6.5 6.5-6.5s6.5 2.90588 6.5 6.5c0 3.5941-2.906 6.5-6.5 6.5s-6.5-2.9059-6.5-6.5zm1.491 0c0 2.7529 2.256 5.0088 5.009 5.0088s5.009-2.2559 5.009-5.0088c0-2.75294-2.256-5.00882-5.009-5.00882s-5.009 2.25588-5.009 5.00882z"/></g></g></svg>