<svg id="Group_15374" data-name="Group 15374" xmlns="http://www.w3.org/2000/svg" width="34.741" height="48.202" viewBox="0 0 34.741 48.202">
  <g id="Group_15368" data-name="Group 15368">
    <g id="Group_15358" data-name="Group 15358">
      <path id="Path_15270" data-name="Path 15270" d="M1.542,4.674H0A4.679,4.679,0,0,1,4.674,0V1.542A3.135,3.135,0,0,0,1.542,4.674Z" fill="#364550"/>
    </g>
    <g id="Group_15367" data-name="Group 15367">
      <g id="Group_15359" data-name="Group 15359" transform="translate(4.674 41.524)">
        <rect id="Rectangle_82" data-name="Rectangle 82" width="1.71" height="1.542" fill="#364550"/>
      </g>
      <g id="Group_15360" data-name="Group 15360" transform="translate(17.635 37.689)">
        <path id="Path_15271" data-name="Path 15271" d="M199.175,396.486H183v-1.542h15.43l.134-3.834,1.541.054-.16,4.578A.771.771,0,0,1,199.175,396.486Z" transform="translate(-183 -391.11)" fill="#364550"/>
      </g>
      <g id="Group_15361" data-name="Group 15361" transform="translate(0 33.718)">
        <path id="Path_15272" data-name="Path 15272" d="M4.674,359.247a4.674,4.674,0,1,1,0-9.347v1.542a3.132,3.132,0,1,0,0,6.264Z" transform="translate(0 -349.9)" fill="#364550"/>
      </g>
      <g id="Group_15362" data-name="Group 15362" transform="translate(0 4.674)">
        <rect id="Rectangle_83" data-name="Rectangle 83" width="1.542" height="34.41" fill="#364550"/>
      </g>
      <g id="Group_15363" data-name="Group 15363" transform="translate(8.577 34.488)">
        <path id="Path_15273" data-name="Path 15273" d="M89,357.89" transform="translate(-89 -357.89)" fill="#364550" stroke="#000" stroke-linejoin="round" stroke-miterlimit="10" stroke-width="4"/>
      </g>
      <g id="Group_15364" data-name="Group 15364" transform="translate(4.674 34.488)">
        <path id="Path_15274" data-name="Path 15274" d="M48.5,357.89" transform="translate(-48.5 -357.89)" fill="#364550" stroke="#000" stroke-linejoin="round" stroke-miterlimit="10" stroke-width="4"/>
      </g>
      <g id="Group_15365" data-name="Group 15365" transform="translate(4.674)">
        <path id="Path_15275" data-name="Path 15275" d="M77.8,35.259H48.5V33.717H77.025V1.542H48.5V0H77.8a.771.771,0,0,1,.771.771V34.488A.771.771,0,0,1,77.8,35.259Z" transform="translate(-48.5)" fill="#364550"/>
      </g>
      <g id="Group_15366" data-name="Group 15366" transform="translate(7.807 38.392)">
        <path id="Path_15276" data-name="Path 15276" d="M88.648,408.21a.776.776,0,0,1-.484-.171l-2.95-2.381-2.95,2.381a.771.771,0,0,1-1.255-.6V398.4h1.542v7.427l2.179-1.759a.77.77,0,0,1,.968,0l2.179,1.759V398.4H89.42v9.039a.77.77,0,0,1-.772.771Z" transform="translate(-81.01 -398.4)" fill="#e8b300"/>
      </g>
    </g>
  </g>
  <g id="Group_15369" data-name="Group 15369" transform="translate(7.116 7.27)">
    <path id="Path_15277" data-name="Path 15277" d="M84.2,96.16A10.36,10.36,0,1,1,94.56,85.8,10.372,10.372,0,0,1,84.2,96.16Zm0-19.179A8.818,8.818,0,1,0,93.019,85.8,8.828,8.828,0,0,0,84.2,76.982Z" transform="translate(-73.84 -75.44)" fill="#364550"/>
  </g>
  <g id="Group_15373" data-name="Group 15373" transform="translate(15.519 12.271)">
    <g id="Group_15370" data-name="Group 15370" transform="translate(0 9.946)">
      <rect id="Rectangle_84" data-name="Rectangle 84" width="4.233" height="1.542" fill="#20baef"/>
    </g>
    <g id="Group_15371" data-name="Group 15371" transform="translate(0 2.044)">
      <path id="Path_15278" data-name="Path 15278" d="M163.927,157.223h-1.542v-7.131H161.04V148.55h2.887Z" transform="translate(-161.04 -148.55)" fill="#20baef"/>
    </g>
    <g id="Group_15372" data-name="Group 15372" transform="translate(1.345)">
      <rect id="Rectangle_85" data-name="Rectangle 85" width="1.542" height="1.24" fill="#20baef"/>
    </g>
  </g>
</svg>
