<svg id="Group_15389" data-name="Group 15389" xmlns="http://www.w3.org/2000/svg" width="40.357" height="39.449" viewBox="0 0 40.357 39.449">
  <g id="Group_15381" data-name="Group 15381" transform="translate(14.864 15.415)">
    <g id="Group_15379" data-name="Group 15379">
      <path id="Path_15282" data-name="Path 15282" d="M159.347,171.619H157.8v-1.47a2.3,2.3,0,0,1,1.723-2.229,3.79,3.79,0,0,0-.742-7.454,3.79,3.79,0,0,0-3.994,3.784H153.23a5.341,5.341,0,0,1,5.627-5.334,5.342,5.342,0,0,1,1.048,10.507.748.748,0,0,0-.558.727Z" transform="translate(-153.23 -158.908)" fill="#e8b300"/>
    </g>
    <g id="Group_15380" data-name="Group 15380" transform="translate(4.566 13.977)">
      <path id="Path_15283" data-name="Path 15283" d="M201.076,304.546a.775.775,0,0,1-.776-.776.77.77,0,0,1,.927-.761.671.671,0,0,1,.144.043.9.9,0,0,1,.136.07.964.964,0,0,1,.116.1.788.788,0,0,1,.229.551.782.782,0,0,1-.776.776Z" transform="translate(-200.3 -302.993)" fill="#e8b300"/>
    </g>
  </g>
  <g id="Group_15387" data-name="Group 15387">
    <g id="Group_15382" data-name="Group 15382">
      <path id="Path_15284" data-name="Path 15284" d="M39.581,39.449H.776A.776.776,0,0,1,0,38.673V.776A.776.776,0,0,1,.776,0h38.8a.776.776,0,0,1,.776.776v37.9A.777.777,0,0,1,39.581,39.449ZM1.552,37.9H38.8V1.552H1.552Z" fill="#364550"/>
    </g>
    <g id="Group_15383" data-name="Group 15383" transform="translate(3.203 6.26)">
      <rect id="Rectangle_86" data-name="Rectangle 86" width="33.95" height="1.552" fill="#364550"/>
    </g>
    <g id="Group_15384" data-name="Group 15384" transform="translate(3.894 3.354)">
      <path id="Path_15285" data-name="Path 15285" d="M49.931,36.122H40.916a.776.776,0,1,1,0-1.552h9.016a.776.776,0,1,1,0,1.552Z" transform="translate(-40.14 -34.57)" fill="#20baef"/>
    </g>
    <g id="Group_15385" data-name="Group 15385" transform="translate(17.912 3.354)">
      <path id="Path_15286" data-name="Path 15286" d="M186.416,36.122h-.99a.776.776,0,1,1,0-1.552h.99a.776.776,0,0,1,0,1.552Z" transform="translate(-184.65 -34.57)" fill="#20baef"/>
    </g>
    <g id="Group_15386" data-name="Group 15386" transform="translate(23.757 3.354)">
      <path id="Path_15287" data-name="Path 15287" d="M246.666,36.122h-.99a.776.776,0,1,1,0-1.552h.99a.776.776,0,1,1,0,1.552Z" transform="translate(-244.9 -34.57)" fill="#20baef"/>
    </g>
  </g>
  <g id="Group_15388" data-name="Group 15388" transform="translate(7.088 10.063)">
    <path id="Path_15288" data-name="Path 15288" d="M86.187,129.972A13.116,13.116,0,1,1,99.3,116.856,13.132,13.132,0,0,1,86.187,129.972Zm0-24.681a11.564,11.564,0,1,0,11.564,11.564A11.578,11.578,0,0,0,86.187,105.291Z" transform="translate(-73.07 -103.74)" fill="#364550"/>
  </g>
</svg>
