<svg id="Group_15232" data-name="Group 15232" xmlns="http://www.w3.org/2000/svg" width="46.021" height="40" viewBox="0 0 46.021 40">
  <g id="Group_15226" data-name="Group 15226">
    <path id="Path_15190" data-name="Path 15190" d="M8.2,33.225a.81.81,0,0,1-.809-.809V26.362H4.73A4.734,4.734,0,0,1,0,21.632V4.731A4.736,4.736,0,0,1,4.731,0h22.4a4.736,4.736,0,0,1,4.731,4.731v16.9a4.736,4.736,0,0,1-4.731,4.731H15.4L8.772,32.989A.813.813,0,0,1,8.2,33.225ZM4.731,1.618A3.115,3.115,0,0,0,1.618,4.731v16.9a3.116,3.116,0,0,0,3.112,3.112H8.2a.809.809,0,0,1,.809.809v4.91l5.482-5.481a.81.81,0,0,1,.573-.237H27.128a3.116,3.116,0,0,0,3.112-3.112V4.731a3.116,3.116,0,0,0-3.112-3.112Z" fill="#364550"/>
  </g>
  <g id="Group_15227" data-name="Group 15227" transform="translate(14.163 6.773)">
    <path id="Path_15191" data-name="Path 15191" d="M163.677,100.187a.811.811,0,0,1-.573-.237l-6.626-6.625H144.751a4.736,4.736,0,0,1-4.731-4.731h1.618a3.116,3.116,0,0,0,3.112,3.112h12.063a.81.81,0,0,1,.573.237l5.482,5.481v-4.91a.809.809,0,0,1,.809-.809h3.469a3.116,3.116,0,0,0,3.112-3.112v-16.9a3.116,3.116,0,0,0-3.112-3.112h-7.239V66.96h7.239a4.736,4.736,0,0,1,4.731,4.731v16.9a4.736,4.736,0,0,1-4.731,4.731h-2.66v6.054a.809.809,0,0,1-.5.747A.817.817,0,0,1,163.677,100.187Z" transform="translate(-140.02 -66.96)" fill="#20baef"/>
  </g>
  <g id="Group_15231" data-name="Group 15231" transform="translate(5.978 9.873)">
    <g id="Group_15228" data-name="Group 15228">
      <path id="Path_15192" data-name="Path 15192" d="M61.727,102.865a2.627,2.627,0,1,1,2.628-2.628A2.63,2.63,0,0,1,61.727,102.865Zm0-3.636a1.009,1.009,0,1,0,1.009,1.008A1.009,1.009,0,0,0,61.727,99.228Z" transform="translate(-59.1 -97.61)" fill="#e8b300"/>
    </g>
    <g id="Group_15229" data-name="Group 15229" transform="translate(7.322)">
      <path id="Path_15193" data-name="Path 15193" d="M134.118,102.865a2.627,2.627,0,1,1,2.627-2.628A2.631,2.631,0,0,1,134.118,102.865Zm0-3.636a1.009,1.009,0,1,0,1.008,1.008A1.01,1.01,0,0,0,134.118,99.228Z" transform="translate(-131.49 -97.61)" fill="#e8b300"/>
    </g>
    <g id="Group_15230" data-name="Group 15230" transform="translate(14.646)">
      <path id="Path_15194" data-name="Path 15194" d="M206.518,102.865a2.627,2.627,0,1,1,2.627-2.628A2.631,2.631,0,0,1,206.518,102.865Zm0-3.636a1.009,1.009,0,1,0,1.008,1.008A1.01,1.01,0,0,0,206.518,99.228Z" transform="translate(-203.89 -97.61)" fill="#e8b300"/>
    </g>
  </g>
</svg>
