<svg xmlns="http://www.w3.org/2000/svg" width="46.818" height="48.215" viewBox="0 0 46.818 48.215">
  <g id="Group_15430" data-name="Group 15430" transform="translate(-1116 -2881.765)">
    <g id="Group_18" data-name="Group 18" transform="translate(1116 2881.765)">
      <g id="Group_15062" data-name="Group 15062" transform="translate(0 0)">
        <g id="Group_15060" data-name="Group 15060" transform="translate(2.534)">
          <path id="Path_15039" data-name="Path 15039" d="M1773.494,1737.49a7.208,7.208,0,1,1,7.208-7.208A7.216,7.216,0,0,1,1773.494,1737.49Zm0-12.921a5.713,5.713,0,1,0,5.713,5.713A5.719,5.719,0,0,0,1773.494,1724.569Z" transform="translate(-1766.286 -1723.074)" fill="#20baef"/>
        </g>
        <g id="Group_15061" data-name="Group 15061" transform="translate(0 15.89)">
          <path id="Path_15040" data-name="Path 15040" d="M1757.9,1900.748h-17.99a.748.748,0,0,1-.748-.748v-2.379a4.505,4.505,0,0,1,4.5-4.5h5.242v1.495h-5.242a3.009,3.009,0,0,0-3.005,3.005v1.632h16.495v-1.632a3.009,3.009,0,0,0-3.005-3.005h-5.242v-1.495h5.242a4.505,4.505,0,0,1,4.5,4.5V1900A.748.748,0,0,1,1757.9,1900.748Z" transform="translate(-1739.163 -1893.121)" fill="#20baef"/>
        </g>
      </g>
    </g>
    <g id="Group_19" data-name="Group 19" transform="translate(1143.333 2906.464)">
      <g id="Group_15066" data-name="Group 15066">
        <g id="Group_15064" data-name="Group 15064" transform="translate(2.535)">
          <path id="Path_15041" data-name="Path 15041" d="M2066.011,2001.807a7.208,7.208,0,1,1,7.208-7.208A7.216,7.216,0,0,1,2066.011,2001.807Zm0-12.921a5.713,5.713,0,1,0,5.713,5.713A5.719,5.719,0,0,0,2066.011,1988.885Z" transform="translate(-2058.803 -1987.39)" fill="#e8b300"/>
        </g>
        <g id="Group_15065" data-name="Group 15065" transform="translate(0 15.889)">
          <path id="Path_15042" data-name="Path 15042" d="M2050.416,2165.06h-17.99a.748.748,0,0,1-.747-.748v-2.379a4.506,4.506,0,0,1,4.5-4.5h5.242v1.5h-5.242a3.009,3.009,0,0,0-3.006,3.005v1.631h16.5v-1.631a3.008,3.008,0,0,0-3.005-3.005h-5.242v-1.5h5.242a4.505,4.505,0,0,1,4.5,4.5v2.379A.748.748,0,0,1,2050.416,2165.06Z" transform="translate(-2031.678 -2157.433)" fill="#e8b300"/>
        </g>
      </g>
    </g>
    <g id="Group_20" data-name="Group 20" transform="translate(1134.711 2882.799)">
      <path id="Path_15043" data-name="Path 15043" d="M1962.831,1751.569h-15.4a2.792,2.792,0,0,1-2.789-2.788V1746.3l-4.87-2.812a.747.747,0,0,1,0-1.294l4.87-2.812v-2.465a2.792,2.792,0,0,1,2.789-2.788h15.4a2.792,2.792,0,0,1,2.788,2.788v11.86A2.792,2.792,0,0,1,1962.831,1751.569Zm-21.186-8.724,4.123,2.38a.748.748,0,0,1,.374.647v2.908a1.3,1.3,0,0,0,1.293,1.293h15.4a1.3,1.3,0,0,0,1.293-1.293v-11.86a1.3,1.3,0,0,0-1.293-1.293h-15.4a1.3,1.3,0,0,0-1.293,1.293v2.9a.749.749,0,0,1-.374.648Z" transform="translate(-1939.403 -1734.133)" fill="#364550"/>
    </g>
    <g id="Group_21" data-name="Group 21" transform="translate(1116.957 2910.835)">
      <path id="Path_15044" data-name="Path 15044" d="M1767.583,2051.6h-15.4a2.791,2.791,0,0,1-2.788-2.788v-11.859a2.792,2.792,0,0,1,2.788-2.788h15.4a2.792,2.792,0,0,1,2.788,2.788v2.465l4.87,2.812a.747.747,0,0,1,0,1.294l-4.87,2.812v2.476A2.791,2.791,0,0,1,1767.583,2051.6Zm-15.4-15.941a1.3,1.3,0,0,0-1.293,1.293v11.859a1.3,1.3,0,0,0,1.293,1.293h15.4a1.3,1.3,0,0,0,1.293-1.293v-2.908a.747.747,0,0,1,.374-.647l4.123-2.38-4.123-2.38a.748.748,0,0,1-.374-.647v-2.9a1.3,1.3,0,0,0-1.293-1.293Z" transform="translate(-1749.399 -2034.168)" fill="#364550"/>
    </g>
  </g>
</svg>
