<svg xmlns="http://www.w3.org/2000/svg" width="43.928" height="44.754" viewBox="0 0 43.928 44.754">
  <g id="Group_28" data-name="Group 28" transform="translate(-280.399 -985.258)">
    <g id="Group_15094" data-name="Group 15094" transform="translate(291.3 1025.521)">
      <rect id="Rectangle_30" data-name="Rectangle 30" width="22.538" height="1.535" transform="translate(0 0)" fill="#364550"/>
    </g>
    <g id="Group_15100" data-name="Group 15100" transform="translate(280.399 1005.6)">
      <g id="Group_15099" data-name="Group 15099" transform="translate(0 0)">
        <g id="Group_15097" data-name="Group 15097">
          <g id="Group_15095" data-name="Group 15095">
            <path id="Path_15060" data-name="Path 15060" d="M284.973,1206.492a4.574,4.574,0,1,1,4.574-4.574A4.579,4.579,0,0,1,284.973,1206.492Zm0-7.613a3.039,3.039,0,1,0,3.039,3.039A3.043,3.043,0,0,0,284.973,1198.879Z" transform="translate(-280.399 -1197.344)" fill="#364550"/>
          </g>
          <g id="Group_15096" data-name="Group 15096" transform="translate(7.151 15.533)">
            <rect id="Rectangle_31" data-name="Rectangle 31" width="1.535" height="8.513" fill="#364550"/>
          </g>
        </g>
        <g id="Group_15098" data-name="Group 15098" transform="translate(0 9.362)">
          <path id="Path_15061" data-name="Path 15061" d="M281.934,1310H280.4v-12.468a2.586,2.586,0,0,1,2.583-2.583h3.151a4.907,4.907,0,0,1,3.139,1.141.787.787,0,0,1,.085.083l2.824,2.905,6.346,1.29a.767.767,0,0,1,.615.755l-.01,2.091a.767.767,0,0,1-.228.542.8.8,0,0,1-.545.221l-7.081-.06a.764.764,0,0,1-.331-.078l-5.421-2.657.676-1.378,5.264,2.581,6.137.052,0-.691-5.961-1.212a.764.764,0,0,1-.4-.217l-2.993-3.079a3.37,3.37,0,0,0-2.12-.755h-3.151a1.05,1.05,0,0,0-1.048,1.049Z" transform="translate(-280.399 -1294.953)" fill="#364550"/>
        </g>
      </g>
    </g>
    <g id="Group_15106" data-name="Group 15106" transform="translate(305.584 1005.6)">
      <g id="Group_15105" data-name="Group 15105" transform="translate(0 0)">
        <g id="Group_15103" data-name="Group 15103" transform="translate(9.595)">
          <g id="Group_15101" data-name="Group 15101">
            <path id="Path_15062" data-name="Path 15062" d="M647.6,1206.492a4.574,4.574,0,1,1,4.574-4.574A4.579,4.579,0,0,1,647.6,1206.492Zm0-7.613a3.039,3.039,0,1,0,3.039,3.039A3.043,3.043,0,0,0,647.6,1198.879Z" transform="translate(-643.022 -1197.344)" fill="#364550"/>
          </g>
          <g id="Group_15102" data-name="Group 15102" transform="translate(0.462 15.533)">
            <rect id="Rectangle_32" data-name="Rectangle 32" width="1.535" height="8.513" fill="#364550"/>
          </g>
        </g>
        <g id="Group_15104" data-name="Group 15104" transform="translate(0 9.362)">
          <path id="Path_15063" data-name="Path 15063" d="M561.724,1310h-1.535v-12.468a1.05,1.05,0,0,0-1.048-1.049h-3.151a3.37,3.37,0,0,0-2.119.755l-2.994,3.08a.764.764,0,0,1-.4.217l-5.961,1.212,0,.691,6.137-.052,5.264-2.581.675,1.378-5.421,2.657a.765.765,0,0,1-.331.078l-7.081.06a.782.782,0,0,1-.546-.221.768.768,0,0,1-.228-.542l-.009-2.091a.767.767,0,0,1,.614-.755l6.346-1.29,2.824-2.905a.778.778,0,0,1,.085-.083,4.907,4.907,0,0,1,3.139-1.141h3.151a2.586,2.586,0,0,1,2.583,2.583Z" transform="translate(-542.981 -1294.953)" fill="#364550"/>
        </g>
      </g>
    </g>
    <g id="Group_15107" data-name="Group 15107" transform="translate(296.99 988.481)">
      <path id="Path_15064" data-name="Path 15064" d="M469.828,1038.042a.765.765,0,0,1-.37-.1l-4.518-2.488a12.385,12.385,0,0,1-1.4.078c-5.607,0-10.168-3.741-10.168-8.339s4.561-8.339,10.168-8.339,10.169,3.741,10.169,8.339a7.933,7.933,0,0,1-4.213,6.762l1.054,3.065a.767.767,0,0,1-.726,1.017Zm-4.736-4.143a.766.766,0,0,1,.37.1l2.994,1.649-.617-1.794a.77.77,0,0,1,.377-.935,6.588,6.588,0,0,0,3.962-5.717c0-3.752-3.874-6.8-8.635-6.8s-8.634,3.052-8.634,6.8,3.873,6.8,8.634,6.8a10.757,10.757,0,0,0,1.445-.1A.738.738,0,0,1,465.092,1033.9Z" transform="translate(-453.375 -1018.859)" fill="#20baef"/>
    </g>
    <g id="Group_15108" data-name="Group 15108" transform="translate(284.635 985.258)">
      <path id="Path_15065" data-name="Path 15065" d="M328.45,1004.441a.767.767,0,0,1-.726-1.017l1.054-3.066a7.933,7.933,0,0,1-4.213-6.762c0-4.6,4.562-8.339,10.17-8.339a11.445,11.445,0,0,1,6.936,2.236l-.932,1.219a9.907,9.907,0,0,0-6-1.921c-4.761,0-8.635,3.052-8.635,6.8a6.588,6.588,0,0,0,3.962,5.717.767.767,0,0,1,.419.684.78.78,0,0,1-.042.251l-.617,1.793,2.994-1.649a.77.77,0,0,1,.474-.088,11.02,11.02,0,0,0,3.361-.073l.271,1.511a12.586,12.586,0,0,1-3.583.115l-4.518,2.489A.765.765,0,0,1,328.45,1004.441Z" transform="translate(-324.565 -985.258)" fill="#e8b300"/>
    </g>
    <g id="Group_15109" data-name="Group 15109" transform="translate(300.297 991.405)">
      <path id="Path_15066" data-name="Path 15066" d="M488.7,1058.073l-.839-1.285a6.347,6.347,0,0,0,3.141-5.245,5.444,5.444,0,0,0-.277-1.71l1.457-.481a6.982,6.982,0,0,1,.354,2.191A7.85,7.85,0,0,1,488.7,1058.073Z" transform="translate(-487.858 -1049.352)" fill="#e8b300"/>
    </g>
  </g>
</svg>
