<svg xmlns="http://www.w3.org/2000/svg" width="22.808" height="22.809" viewBox="0 0 22.808 22.809">
  <path id="Path_15105" data-name="Path 15105" d="M97.9,2113a1.906,1.906,0,0,0-1.9,1.9v19.007a1.907,1.907,0,0,0,1.9,1.9h9.351v-8.715h-2.775l.152-3.821h2.623v-2.756a3.393,3.393,0,0,1,3.763-3.725c4.134,0,3.146.038,3.146.038v3.544l-2.024.162s-.95-.475-.95.3v2.509h3.573l-.846,3.821h-2.775l.01,8.639h5.759a1.907,1.907,0,0,0,1.9-1.9V2114.9a1.906,1.906,0,0,0-1.9-1.9Z" transform="translate(-96 -2113)" fill="#20baef" fill-rule="evenodd"/>
</svg>
