<svg id="Group_15304" data-name="Group 15304" xmlns="http://www.w3.org/2000/svg" width="38.336" height="42.37" viewBox="0 0 38.336 42.37">
  <g id="Group_15288" data-name="Group 15288" transform="translate(12.6 25.619)">
    <g id="Group_15285" data-name="Group 15285" transform="translate(1.647)">
      <path id="Path_15226" data-name="Path 15226" d="M163.744,295.449a4.914,4.914,0,1,1,4.914-4.914A4.919,4.919,0,0,1,163.744,295.449Zm0-8.393a3.479,3.479,0,1,0,3.478,3.479A3.483,3.483,0,0,0,163.744,287.056Z" transform="translate(-158.83 -285.62)" fill="#e8b300"/>
    </g>
    <g id="Group_15286" data-name="Group 15286" transform="translate(0 10.321)">
      <path id="Path_15227" data-name="Path 15227" d="M141.905,403.846H140.47a3.159,3.159,0,0,1,3.156-3.156h3.4v1.435h-3.4A1.722,1.722,0,0,0,141.905,403.846Z" transform="translate(-140.47 -400.69)" fill="#e8b300"/>
    </g>
    <g id="Group_15287" data-name="Group 15287" transform="translate(6.56 10.321)">
      <path id="Path_15228" data-name="Path 15228" d="M220.17,403.846h-1.435a1.722,1.722,0,0,0-1.72-1.72h-3.4V400.69h3.4A3.159,3.159,0,0,1,220.17,403.846Z" transform="translate(-213.61 -400.69)" fill="#e8b300"/>
    </g>
  </g>
  <g id="Group_15292" data-name="Group 15292" transform="translate(25.216 28.894)">
    <g id="Group_15289" data-name="Group 15289" transform="translate(1.646)">
      <path id="Path_15229" data-name="Path 15229" d="M304.384,331.958a4.914,4.914,0,1,1,4.914-4.914A4.919,4.919,0,0,1,304.384,331.958Zm0-8.393a3.479,3.479,0,1,0,3.478,3.479A3.483,3.483,0,0,0,304.384,323.565Z" transform="translate(-299.47 -322.13)" fill="#20baef"/>
    </g>
    <g id="Group_15290" data-name="Group 15290" transform="translate(0 10.321)">
      <path id="Path_15230" data-name="Path 15230" d="M282.555,440.346H281.12a3.159,3.159,0,0,1,3.156-3.156h3.4v1.435h-3.4A1.723,1.723,0,0,0,282.555,440.346Z" transform="translate(-281.12 -437.19)" fill="#20baef"/>
    </g>
    <g id="Group_15291" data-name="Group 15291" transform="translate(6.56 10.321)">
      <path id="Path_15231" data-name="Path 15231" d="M360.81,440.346h-1.435a1.722,1.722,0,0,0-1.72-1.72h-3.4V437.19h3.4A3.159,3.159,0,0,1,360.81,440.346Z" transform="translate(-354.25 -437.19)" fill="#20baef"/>
    </g>
  </g>
  <g id="Group_15296" data-name="Group 15296" transform="translate(0 28.894)">
    <g id="Group_15293" data-name="Group 15293" transform="translate(1.647)">
      <path id="Path_15232" data-name="Path 15232" d="M23.274,331.958a4.914,4.914,0,1,1,4.914-4.914A4.919,4.919,0,0,1,23.274,331.958Zm0-8.393a3.479,3.479,0,1,0,3.478,3.479A3.483,3.483,0,0,0,23.274,323.565Z" transform="translate(-18.36 -322.13)" fill="#364550"/>
    </g>
    <g id="Group_15294" data-name="Group 15294" transform="translate(0 10.321)">
      <path id="Path_15233" data-name="Path 15233" d="M1.435,440.346H0a3.159,3.159,0,0,1,3.156-3.156h3.4v1.435h-3.4A1.723,1.723,0,0,0,1.435,440.346Z" transform="translate(0 -437.19)" fill="#364550"/>
    </g>
    <g id="Group_15295" data-name="Group 15295" transform="translate(6.56 10.321)">
      <path id="Path_15234" data-name="Path 15234" d="M79.7,440.346H78.265a1.722,1.722,0,0,0-1.72-1.72h-3.4V437.19h3.4A3.16,3.16,0,0,1,79.7,440.346Z" transform="translate(-73.14 -437.19)" fill="#364550"/>
    </g>
  </g>
  <g id="Group_15302" data-name="Group 15302" transform="translate(2.288)">
    <g id="Group_15297" data-name="Group 15297">
      <path id="Path_15235" data-name="Path 15235" d="M52.007,29.368l-.883-1.132a14.98,14.98,0,1,0-19.148-.623l-.953,1.073a16.414,16.414,0,1,1,20.985.683Z" transform="translate(-25.51)" fill="#364550"/>
    </g>
    <g id="Group_15298" data-name="Group 15298" transform="translate(3.628 6.191)">
      <path id="Path_15236" data-name="Path 15236" d="M78.746,73.441a24.818,24.818,0,0,1-12.786-3.2l.761-1.217a23.359,23.359,0,0,0,12.026,2.986A23.365,23.365,0,0,0,90.773,69.02l.761,1.217A24.824,24.824,0,0,1,78.746,73.441Z" transform="translate(-65.96 -69.02)" fill="#364550"/>
    </g>
    <g id="Group_15299" data-name="Group 15299" transform="translate(3.628 22.217)">
      <path id="Path_15237" data-name="Path 15237" d="M90.773,252.111a23.36,23.36,0,0,0-12.027-2.986,23.359,23.359,0,0,0-12.026,2.986l-.761-1.217a24.822,24.822,0,0,1,12.786-3.2,24.821,24.821,0,0,1,12.787,3.2Z" transform="translate(-65.96 -247.69)" fill="#364550"/>
    </g>
    <g id="Group_15300" data-name="Group 15300" transform="translate(7.124 0)">
      <path id="Path_15238" data-name="Path 15238" d="M121.519,26.63l-1.31-.585a24.2,24.2,0,0,0,1.868-9.631c0-8.119-3.6-14.979-7.857-14.979s-7.857,6.86-7.857,14.979a24.2,24.2,0,0,0,1.868,9.631l-1.31.585a25.671,25.671,0,0,1-1.992-10.216C104.93,7.21,109.011,0,114.222,0s9.291,7.21,9.291,16.414A25.652,25.652,0,0,1,121.519,26.63Z" transform="translate(-104.93 0)" fill="#364550"/>
    </g>
    <g id="Group_15301" data-name="Group 15301" transform="translate(15.697 0.718)">
      <rect id="Rectangle_71" data-name="Rectangle 71" width="1.435" height="24.071" fill="#364550"/>
    </g>
  </g>
  <g id="Group_15303" data-name="Group 15303" transform="translate(3.006 15.697)">
    <rect id="Rectangle_72" data-name="Rectangle 72" width="31.394" height="1.435" fill="#364550"/>
  </g>
</svg>
