<svg xmlns="http://www.w3.org/2000/svg" width="49.367" height="42.639" viewBox="0 0 49.367 42.639">
  <g id="Group_15430" data-name="Group 15430" transform="translate(-480 -385.51)">
    <g id="Group_15260" data-name="Group 15260" transform="translate(489.388 385.51)">
      <g id="Group_15031" data-name="Group 15031" transform="translate(2.218 2.217)">
        <path id="Path_15019" data-name="Path 15019" d="M1136.971,324.268v-5.316a1.323,1.323,0,0,0-.012-.17,1.153,1.153,0,0,0-1.139-.979h-1.487a1.152,1.152,0,0,0-1.138.989,1.225,1.225,0,0,0-.011.16v5.315l-1-.223a13.208,13.208,0,0,1-9.963-9.961l-.223-1h5.315a1.31,1.31,0,0,0,.169-.012,1.155,1.155,0,0,0,.982-1.139v-1.485a1.154,1.154,0,0,0-.992-1.14,1.246,1.246,0,0,0-.16-.011H1122l.222-1a13.205,13.205,0,0,1,9.966-9.966l1-.223v5.317a1.251,1.251,0,0,0,.011.165,1.152,1.152,0,0,0,1.137.987h1.487a1.153,1.153,0,0,0,1.14-.989,1.289,1.289,0,0,0,.011-.162v-5.318l1,.223a13.2,13.2,0,0,1,9.964,9.966l.222,1h-5.317a1.268,1.268,0,0,0-.164.012,1.152,1.152,0,0,0-.985,1.14v1.485a1.156,1.156,0,0,0,.989,1.141,1.3,1.3,0,0,0,.16.011h5.316l-.223,1a13.208,13.208,0,0,1-9.961,9.961Zm-12.88-9.545a11.583,11.583,0,0,0,7.457,7.455v-3.226a2.87,2.87,0,0,1,.026-.378,2.8,2.8,0,0,1,2.759-2.407h1.487a2.8,2.8,0,0,1,2.76,2.4,2.989,2.989,0,0,1,.027.387v3.225a11.585,11.585,0,0,0,7.455-7.455h-3.225a2.951,2.951,0,0,1-.377-.025,2.8,2.8,0,0,1-2.407-2.761v-1.485a2.8,2.8,0,0,1,2.4-2.76,2.9,2.9,0,0,1,.382-.026h3.228a11.58,11.58,0,0,0-7.458-7.46v3.228a2.95,2.95,0,0,1-.025.377,2.8,2.8,0,0,1-2.761,2.409h-1.487a2.8,2.8,0,0,1-2.758-2.4,2.9,2.9,0,0,1-.026-.383V300.2a11.58,11.58,0,0,0-7.46,7.46h3.228a2.89,2.89,0,0,1,.378.026,2.8,2.8,0,0,1,2.409,2.761v1.485a2.8,2.8,0,0,1-2.4,2.76,2.973,2.973,0,0,1-.387.027Z" transform="translate(-1121.999 -298.115)" fill="#e8b300"/>
      </g>
      <g id="Group_15032" data-name="Group 15032" transform="translate(6.694 6.695)">
        <path id="Path_15020" data-name="Path 15020" d="M1172.378,359.122l-.949-.34a8.74,8.74,0,0,1-5.288-5.288l-.34-.947,1-.14a1.157,1.157,0,0,0,.992-1.141v-1.485a1.154,1.154,0,0,0-.992-1.14l-1-.138.343-.95a8.759,8.759,0,0,1,5.29-5.289l.949-.341.138,1a1.153,1.153,0,0,0,1.138.992h1.487a1.153,1.153,0,0,0,1.14-.989l.138-1,.949.341a8.747,8.747,0,0,1,5.287,5.287l.342.949-1,.138a1.153,1.153,0,0,0-.99,1.14v1.485a1.156,1.156,0,0,0,.99,1.141l1,.14-.339.946a8.727,8.727,0,0,1-5.286,5.286l-.946.339-.14-1a1.156,1.156,0,0,0-1.141-.989h-1.487a1.151,1.151,0,0,0-1.138.989ZM1168,353.7a7.1,7.1,0,0,0,3.225,3.226,2.8,2.8,0,0,1,2.428-1.423h1.487a2.8,2.8,0,0,1,2.428,1.421,7.084,7.084,0,0,0,3.225-3.225,2.8,2.8,0,0,1-1.421-2.428v-1.485a2.8,2.8,0,0,1,1.422-2.43,7.108,7.108,0,0,0-3.225-3.224,2.8,2.8,0,0,1-2.43,1.422h-1.487a2.8,2.8,0,0,1-2.428-1.424,7.119,7.119,0,0,0-3.226,3.227,2.8,2.8,0,0,1,1.424,2.43v1.485A2.8,2.8,0,0,1,1168,353.7Z" transform="translate(-1165.796 -341.924)" fill="#e8b300"/>
      </g>
      <g id="Group_15033" data-name="Group 15033" transform="translate(11.767 0)">
        <path id="Path_15021" data-name="Path 15021" d="M1219.694,286.744h-1.487a2.8,2.8,0,0,1-2.758-2.4,2.9,2.9,0,0,1-.026-.383v-4.748a2.789,2.789,0,0,1,2.784-2.786h1.487a2.79,2.79,0,0,1,2.787,2.786v4.748a2.973,2.973,0,0,1-.025.377A2.8,2.8,0,0,1,1219.694,286.744Zm-1.487-8.686a1.151,1.151,0,0,0-1.149,1.151v4.748a1.251,1.251,0,0,0,.012.165,1.152,1.152,0,0,0,1.137.987h1.487a1.153,1.153,0,0,0,1.14-.989,1.308,1.308,0,0,0,.011-.162v-4.748a1.152,1.152,0,0,0-1.151-1.151Z" transform="translate(-1215.423 -276.422)" fill="#20baef"/>
      </g>
      <g id="Group_15034" data-name="Group 15034" transform="translate(0 11.767)">
        <path id="Path_15022" data-name="Path 15022" d="M1107.838,398.6h-4.751a2.789,2.789,0,0,1-2.784-2.787v-1.485a2.789,2.789,0,0,1,2.784-2.787h4.751a2.884,2.884,0,0,1,.378.026,2.8,2.8,0,0,1,2.409,2.761v1.485a2.8,2.8,0,0,1-2.4,2.76A2.974,2.974,0,0,1,1107.838,398.6Zm-4.751-5.423a1.151,1.151,0,0,0-1.149,1.151v1.485a1.151,1.151,0,0,0,1.149,1.151h4.751a1.312,1.312,0,0,0,.169-.012,1.155,1.155,0,0,0,.982-1.139v-1.485a1.154,1.154,0,0,0-.992-1.14,1.255,1.255,0,0,0-.16-.011Z" transform="translate(-1100.303 -391.541)" fill="#20baef"/>
      </g>
      <g id="Group_15035" data-name="Group 15035" transform="translate(11.767 20.27)">
        <path id="Path_15023" data-name="Path 15023" d="M1219.694,485.054h-1.487a2.789,2.789,0,0,1-2.784-2.787v-4.751a2.87,2.87,0,0,1,.026-.378,2.8,2.8,0,0,1,2.759-2.407h1.487a2.8,2.8,0,0,1,2.76,2.4,2.989,2.989,0,0,1,.027.387v4.751A2.79,2.79,0,0,1,1219.694,485.054Zm-1.487-8.686a1.151,1.151,0,0,0-1.138.989,1.224,1.224,0,0,0-.011.16v4.751a1.151,1.151,0,0,0,1.149,1.151h1.487a1.153,1.153,0,0,0,1.151-1.151v-4.751a1.346,1.346,0,0,0-.012-.17,1.153,1.153,0,0,0-1.139-.979Z" transform="translate(-1215.423 -474.732)" fill="#20baef"/>
      </g>
      <g id="Group_15036" data-name="Group 15036" transform="translate(20.27 11.767)">
        <path id="Path_15024" data-name="Path 15024" d="M1306.147,398.6H1301.4a2.955,2.955,0,0,1-.377-.025,2.8,2.8,0,0,1-2.407-2.761v-1.485a2.8,2.8,0,0,1,2.4-2.761,2.9,2.9,0,0,1,.382-.026h4.751a2.79,2.79,0,0,1,2.787,2.787v1.485A2.79,2.79,0,0,1,1306.147,398.6Zm-4.751-5.423a1.268,1.268,0,0,0-.164.012,1.152,1.152,0,0,0-.985,1.14v1.485a1.155,1.155,0,0,0,.989,1.14,1.3,1.3,0,0,0,.16.011h4.751a1.152,1.152,0,0,0,1.151-1.151v-1.485a1.152,1.152,0,0,0-1.151-1.151Z" transform="translate(-1298.612 -391.541)" fill="#20baef"/>
      </g>
    </g>
    <g id="Group_15261" data-name="Group 15261" transform="translate(480 391.861)">
      <g id="Group_15038" data-name="Group 15038" transform="translate(40.269)">
        <path id="Path_15025" data-name="Path 15025" d="M1407.906,367.447h-1.635V340.2h-3.845v-1.635h4.663a.818.818,0,0,1,.818.818Z" transform="translate(-1402.426 -338.562)" fill="#364550"/>
      </g>
      <g id="Group_15039" data-name="Group 15039" transform="translate(3.617)">
        <path id="Path_15026" data-name="Path 15026" d="M1045.478,367.447h-1.635V339.38a.818.818,0,0,1,.818-.818h5.17V340.2h-4.352Z" transform="translate(-1043.842 -338.562)" fill="#364550"/>
      </g>
      <g id="Group_15040" data-name="Group 15040" transform="translate(0 28.067)">
        <path id="Path_15027" data-name="Path 15027" d="M1053.385,621.37H1012.9a4.2,4.2,0,0,1-4.442-3.888v-3.514a.818.818,0,0,1,.818-.818h18.64a.818.818,0,0,1,.818.818v1.958h8.817v-1.958a.818.818,0,0,1,.818-.818h18.64a.818.818,0,0,1,.818.818v3.514A4.2,4.2,0,0,1,1053.385,621.37Zm-43.29-6.585v2.7a2.579,2.579,0,0,0,2.807,2.252h40.483a2.579,2.579,0,0,0,2.807-2.252v-2.7h-17v1.958a.818.818,0,0,1-.818.818h-10.452a.818.818,0,0,1-.818-.818v-1.958Z" transform="translate(-1008.46 -613.15)" fill="#364550"/>
      </g>
    </g>
  </g>
</svg>
