<svg xmlns="http://www.w3.org/2000/svg" width="22.808" height="22.809" viewBox="0 0 22.808 22.809">
  <path id="Path_15107" data-name="Path 15107" d="M514.3,2126.939a8.705,8.705,0,0,0-.175-1.789,3.366,3.366,0,0,0-.605-1.369,2.874,2.874,0,0,0-1.175-.877,4.756,4.756,0,0,0-1.912-.376,4.343,4.343,0,0,0-1.833.473,3.061,3.061,0,0,0-1.3,1.343h-.061v-1.8h-2.623v10.5h2.658v-5.14a4.109,4.109,0,0,1,.395-2.324,2.035,2.035,0,0,1,1.719-.7,2.4,2.4,0,0,1,1.842.64,3.746,3.746,0,0,1,.4,1.957v5.57H514.3Zm-12.281-3.527H499.36v9.633h2.658Zm0-4.412H499.36v2.623h2.658Zm14.036,15.809h-19.3a1.76,1.76,0,0,1-1.754-1.755v-19.3a1.759,1.759,0,0,1,1.754-1.754h19.3a1.759,1.759,0,0,1,1.754,1.754v19.3A1.76,1.76,0,0,1,516.054,2134.81Z" transform="translate(-495 -2112.001)" fill="#20baef" fill-rule="evenodd"/>
</svg>
