<svg xmlns="http://www.w3.org/2000/svg" width="53.334" height="52.309" viewBox="0 0 53.334 52.309">
  <g id="Group_15431" data-name="Group 15431" transform="translate(-1111 -3108.765)">
    <g id="Group_8" data-name="Group 8" transform="translate(1133.089 3112.983)">
      <g id="Group_15042" data-name="Group 15042" transform="translate(1.057 0)">
        <path id="Path_15028" data-name="Path 15028" d="M1958.853,1766.652a3.527,3.527,0,0,1-.022-7.054h.023a3.529,3.529,0,0,1,3.521,3.5h0a3.528,3.528,0,0,1-3.5,3.55Zm0-5.4h-.012a1.874,1.874,0,0,0-1.3,3.207,1.811,1.811,0,0,0,1.323.539,1.873,1.873,0,0,0-.012-3.746Z" transform="translate(-1955.333 -1759.598)" fill="#20baef"/>
      </g>
      <g id="Group_15043" data-name="Group 15043" transform="translate(0 8.078)">
        <path id="Path_15029" data-name="Path 15029" d="M1954.266,1842.735h-1.654v-3.024a.307.307,0,0,0-.3-.3h-5.243a.307.307,0,0,0-.3.3v3.024h-1.654v-3.024a1.959,1.959,0,0,1,1.957-1.957h5.243a1.959,1.959,0,0,1,1.957,1.957Z" transform="translate(-1945.11 -1837.754)" fill="#20baef"/>
      </g>
    </g>
    <g id="Group_9" data-name="Group 9" transform="translate(1126.503 3108.765)">
      <path id="Path_15030" data-name="Path 15030" d="M1892.564,1741.115a11.163,11.163,0,1,1,11.163-11.163A11.175,11.175,0,0,1,1892.564,1741.115Zm0-20.672a9.509,9.509,0,1,0,9.51,9.509A9.52,9.52,0,0,0,1892.564,1720.443Z" transform="translate(-1881.401 -1718.789)" fill="#20baef"/>
    </g>
    <g id="Group_12" data-name="Group 12" transform="translate(1148.593 3142.966)">
      <g id="Group_15050" data-name="Group 15050" transform="translate(1.056 0)">
        <path id="Path_15034" data-name="Path 15034" d="M2108.853,2056.726a3.527,3.527,0,0,1-.022-7.053,3.561,3.561,0,0,1,2.5,1.017,3.507,3.507,0,0,1,1.047,2.486h0a3.528,3.528,0,0,1-3.5,3.55Zm0-5.4h-.013a1.874,1.874,0,0,0-1.3,3.207,1.891,1.891,0,0,0,1.323.539,1.875,1.875,0,0,0,1.3-3.207A1.852,1.852,0,0,0,2108.855,2051.326Z" transform="translate(-2105.333 -2049.672)" fill="#364550"/>
      </g>
      <g id="Group_15051" data-name="Group 15051" transform="translate(0 8.078)">
        <path id="Path_15035" data-name="Path 15035" d="M2104.268,2132.809h-1.654v-3.024a.306.306,0,0,0-.3-.3h-5.243a.307.307,0,0,0-.3.3v3.024h-1.654v-3.024a1.959,1.959,0,0,1,1.957-1.957h5.243a1.959,1.959,0,0,1,1.957,1.957Z" transform="translate(-2095.112 -2127.828)" fill="#364550"/>
      </g>
    </g>
    <g id="Group_13" data-name="Group 13" transform="translate(1142.008 3138.748)">
      <path id="Path_15036" data-name="Path 15036" d="M2042.564,2031.189a11.163,11.163,0,1,1,11.163-11.163A11.176,11.176,0,0,1,2042.564,2031.189Zm0-20.673a9.509,9.509,0,1,0,9.509,9.51A9.52,9.52,0,0,0,2042.564,2010.517Z" transform="translate(-2031.401 -2008.863)" fill="#364550"/>
    </g>
    <g id="Group_14" data-name="Group 14" transform="translate(1136.84 3132.951)">
      <rect id="Rectangle_25" data-name="Rectangle 25" width="1.654" height="4.894" transform="translate(0 0)" fill="#e8b300"/>
    </g>
    <g id="Group_15" data-name="Group 15" transform="translate(1132.18 3137.164)">
      <rect id="Rectangle_26" data-name="Rectangle 26" width="6.094" height="1.654" transform="matrix(0.823, -0.568, 0.568, 0.823, 0, 3.46)" fill="#e8b300"/>
    </g>
    <g id="Group_16" data-name="Group 16" transform="translate(1137.197 3137.164)">
      <rect id="Rectangle_27" data-name="Rectangle 27" width="1.654" height="6.094" transform="matrix(0.568, -0.823, 0.823, 0.568, 0, 1.362)" fill="#e8b300"/>
    </g>
    <g id="Group_10" data-name="Group 10" transform="translate(1117.585 3142.966)">
      <g id="Group_15046" data-name="Group 15046" transform="translate(1.057 0)">
        <path id="Path_15031" data-name="Path 15031" d="M1808.861,2056.726a3.527,3.527,0,0,1-.022-7.053,3.578,3.578,0,0,1,2.5,1.017,3.527,3.527,0,0,1-2.45,6.036Zm0-5.4h-.013a1.875,1.875,0,0,0-1.3,3.207,1.79,1.79,0,0,0,1.323.539,1.873,1.873,0,0,0-.011-3.746Z" transform="translate(-1805.341 -2049.672)" fill="#364550"/>
      </g>
      <g id="Group_15047" data-name="Group 15047" transform="translate(0 8.078)">
        <path id="Path_15032" data-name="Path 15032" d="M1804.273,2132.809h-1.654v-3.024a.307.307,0,0,0-.3-.3h-5.243a.307.307,0,0,0-.3.3v3.024h-1.654v-3.024a1.959,1.959,0,0,1,1.957-1.957h5.243a1.959,1.959,0,0,1,1.957,1.957Z" transform="translate(-1795.117 -2127.828)" fill="#364550"/>
      </g>
    </g>
    <g id="Group_11" data-name="Group 11" transform="translate(1111 3138.748)">
      <path id="Path_15033" data-name="Path 15033" d="M1742.571,2031.189a11.163,11.163,0,1,1,11.163-11.163A11.176,11.176,0,0,1,1742.571,2031.189Zm0-20.673a9.509,9.509,0,1,0,9.509,9.51A9.52,9.52,0,0,0,1742.571,2010.517Z" transform="translate(-1731.408 -2008.863)" fill="#364550"/>
    </g>
  </g>
</svg>
