<svg xmlns="http://www.w3.org/2000/svg" width="41.02" height="40.349" viewBox="0 0 41.02 40.349">
  <g id="Group_15337" data-name="Group 15337" transform="translate(-0.005 0.002)">
    <g id="Group_15333" data-name="Group 15333" transform="translate(23.033 -0.002)">
      <g id="Group_15329" data-name="Group 15329" transform="translate(0 2.531)">
        <path id="Path_15255" data-name="Path 15255" d="M251.678,46.775a.735.735,0,0,1-.733-.782l.39-5.994a.732.732,0,0,1,.15-.4l9.025-11.735a.734.734,0,0,1,1.03-.134l5.3,4.079a.734.734,0,0,1,.135,1.03l-9.025,11.735a.739.739,0,0,1-.348.249l-5.693,1.915A.766.766,0,0,1,251.678,46.775Zm1.108-6.458-.3,4.678,4.444-1.495,8.442-10.976-4.141-3.183Z" transform="translate(-250.944 -27.577)" fill="#20baef"/>
      </g>
      <g id="Group_15330" data-name="Group 15330" transform="translate(9.567 0)">
        <path id="Path_15256" data-name="Path 15256" d="M361.668,7.79,360.5,6.895,362,4.951a.77.77,0,0,0-.14-1.078l-2.921-2.246a.767.767,0,0,0-1.077.14l-1.495,1.944L355.2,2.816,356.695.872a2.237,2.237,0,0,1,3.137-.409l2.921,2.246a2.24,2.24,0,0,1,.409,3.137Z" transform="translate(-355.2 0.002)" fill="#20baef"/>
      </g>
      <g id="Group_15331" data-name="Group 15331" transform="translate(0.676 14.418)">
        <rect id="Rectangle_75" data-name="Rectangle 75" width="1.468" height="6.691" transform="matrix(0.61, -0.793, 0.793, 0.61, 0, 1.164)" fill="#20baef"/>
      </g>
      <g id="Group_15332" data-name="Group 15332" transform="translate(5.063 7.287)">
        <rect id="Rectangle_76" data-name="Rectangle 76" width="8.673" height="1.468" transform="matrix(0.61, -0.793, 0.793, 0.61, 0, 6.875)" fill="#20baef"/>
      </g>
    </g>
    <g id="Group_15334" data-name="Group 15334" transform="translate(0.005 6.763)">
      <path id="Path_15257" data-name="Path 15257" d="M17.761,107.3A16.7,16.7,0,0,1,11,105.881a12.959,12.959,0,0,1-10.536.206.735.735,0,0,1-.045-1.345c.034-.017,3.4-1.663,3.735-4.39A16.641,16.641,0,0,1,.968,90.5a16.8,16.8,0,0,1,23.73-15.3l-.608,1.337a15.183,15.183,0,0,0-6.33-1.365A15.326,15.326,0,0,0,5.5,99.7a.731.731,0,0,1,.146.479,6.968,6.968,0,0,1-3.182,5.031,10.934,10.934,0,0,0,8.132-.774.734.734,0,0,1,.69-.038A15.332,15.332,0,0,0,33.082,90.5a15.427,15.427,0,0,0-.36-3.316l1.433-.317a16.809,16.809,0,0,1-16.4,20.426Z" transform="translate(-0.005 -73.71)" fill="#364550"/>
    </g>
    <g id="Group_15335" data-name="Group 15335" transform="translate(9.202 19.741)">
      <rect id="Rectangle_77" data-name="Rectangle 77" width="9.621" height="1.468" fill="#e8b300"/>
    </g>
    <g id="Group_15336" data-name="Group 15336" transform="translate(9.2 25.9)">
      <rect id="Rectangle_78" data-name="Rectangle 78" width="16.154" height="1.468" fill="#e8b300"/>
    </g>
  </g>
</svg>
