<svg xmlns="http://www.w3.org/2000/svg" width="37.492" height="35.283" viewBox="0 0 37.492 35.283">
  <g id="Group_15424" data-name="Group 15424" transform="translate(-0.01 -0.001)">
    <g id="Group_15419" data-name="Group 15419" transform="translate(0.01 0.001)">
      <path id="Path_15299" data-name="Path 15299" d="M4.157,17.5a.667.667,0,0,1-.258-.052A5.807,5.807,0,0,1,3.048,17,6.478,6.478,0,0,1,1.9,16.09h0a6.455,6.455,0,0,1,0-9.118,23.959,23.959,0,0,1,33.639-.149c.031.027.058.055.087.084l.024.024a6.462,6.462,0,0,1-.026,9.092l-.031.03c-.012.013-.025.027-.039.04a6.489,6.489,0,0,1-1.039.842,6.416,6.416,0,0,1-.829.458.664.664,0,0,1-.634-.042l-8.193-5.219a.664.664,0,0,1-.307-.555,6.426,6.426,0,0,1,.633-2.836,16.594,16.594,0,0,0-12.891.047,6.4,6.4,0,0,1,.609,2.849.664.664,0,0,1-.3.546L4.518,17.395A.669.669,0,0,1,4.157,17.5Zm-1.325-2.35a5.138,5.138,0,0,0,.919.729q.173.109.353.2l7.462-4.814A5.065,5.065,0,0,0,10.8,8.832a.663.663,0,0,1,.274-.948,17.906,17.906,0,0,1,15.316-.051.664.664,0,0,1,.275.956,5.078,5.078,0,0,0-.787,2.427l7.56,4.815c.119-.065.233-.133.341-.2a5.207,5.207,0,0,0,.829-.672.6.6,0,0,1,.08-.08,5.135,5.135,0,0,0,.01-7.212c-.032-.032-.041-.042-.053-.052l-.032-.03A22.63,22.63,0,0,0,2.832,7.91a5.127,5.127,0,0,0,0,7.242Zm31.762.025h0Zm.143-.138Zm0,0h0Zm0,0h0Z" transform="translate(-0.01 -0.001)" fill="#364550"/>
    </g>
    <g id="Group_15423" data-name="Group 15423" transform="translate(2.941 15.447)">
      <g id="Group_15420" data-name="Group 15420" transform="translate(0 1.426)">
        <path id="Path_15300" data-name="Path 15300" d="M51.176,221.921H40.971c-3.094,0-5.611-2.861-5.611-6.378a7.177,7.177,0,0,1,.511-2.66l3.78-9.373,1.23.5-3.78,9.373a5.842,5.842,0,0,0-.415,2.165c0,2.785,1.922,5.051,4.284,5.051H51.176v1.326Z" transform="translate(-35.36 -203.51)" fill="#364550"/>
      </g>
      <g id="Group_15421" data-name="Group 15421" transform="translate(15.816 1.426)">
        <path id="Path_15301" data-name="Path 15301" d="M236.345,221.921H226.14v-1.326h10.206c2.363,0,4.285-2.266,4.285-5.051a5.842,5.842,0,0,0-.415-2.165l-3.78-9.373,1.23-.5,3.78,9.373a7.177,7.177,0,0,1,.511,2.66C241.956,219.06,239.439,221.921,236.345,221.921Z" transform="translate(-226.14 -203.51)" fill="#364550"/>
      </g>
      <g id="Group_15422" data-name="Group 15422" transform="translate(9.32)">
        <path id="Path_15302" data-name="Path 15302" d="M154.276,199.3a6.5,6.5,0,1,1,6.5-6.5A6.5,6.5,0,0,1,154.276,199.3Zm0-11.667a5.17,5.17,0,1,0,5.17,5.17A5.176,5.176,0,0,0,154.276,187.636Z" transform="translate(-147.78 -186.31)" fill="#e8b300"/>
      </g>
    </g>
  </g>
</svg>
