<svg id="Group_15328" data-name="Group 15328" xmlns="http://www.w3.org/2000/svg" width="41.674" height="46.942" viewBox="0 0 41.674 46.942">
  <g id="Group_15326" data-name="Group 15326" transform="translate(0 4.314)">
    <g id="Group_15317" data-name="Group 15317" transform="translate(8.505)">
      <g id="Group_15312" data-name="Group 15312" transform="translate(6.75)">
        <g id="Group_15310" data-name="Group 15310" transform="translate(1.375)">
          <path id="Path_15242" data-name="Path 15242" d="M181.37,54.485a4.268,4.268,0,1,1,4.259-4.268A4.269,4.269,0,0,1,181.37,54.485Zm0-7.032a2.765,2.765,0,1,0,2.757,2.765A2.765,2.765,0,0,0,181.37,47.453Z" transform="translate(-177.11 -45.95)" fill="#20baef"/>
        </g>
        <g id="Group_15311" data-name="Group 15311" transform="translate(0 8.592)">
          <path id="Path_15243" data-name="Path 15243" d="M173.74,143.62h-1.5v-3.938a.721.721,0,0,0-.719-.72h-6.826a.721.721,0,0,0-.72.72v3.938h-1.5v-3.938a2.225,2.225,0,0,1,2.222-2.222h6.826a2.224,2.224,0,0,1,2.222,2.222Z" transform="translate(-162.47 -137.46)" fill="#20baef"/>
        </g>
      </g>
      <g id="Group_15313" data-name="Group 15313" transform="translate(0 14.002)">
        <path id="Path_15244" data-name="Path 15244" d="M114.6,201.235H91.331a.751.751,0,0,1-.751-.751v-4.663a.751.751,0,0,1,.751-.751H114.6a.751.751,0,0,1,.751.751v4.663A.751.751,0,0,1,114.6,201.235Zm-22.516-1.5h21.765v-3.161H92.082Z" transform="translate(-90.58 -195.07)" fill="#364550"/>
      </g>
      <g id="Group_15314" data-name="Group 15314" transform="translate(0.001 18.665)">
        <path id="Path_15245" data-name="Path 15245" d="M113.423,255.93h-1.5v-6.771a.758.758,0,0,1,.086-.35l1.357-2.577H92.586l1.357,2.577a.746.746,0,0,1,.086.35v6.771h-1.5v-6.585l-1.85-3.514a.752.752,0,0,1,.665-1.1h23.267a.752.752,0,0,1,.665,1.1l-1.85,3.514v6.585Z" transform="translate(-90.59 -244.73)" fill="#364550"/>
      </g>
      <g id="Group_15315" data-name="Group 15315" transform="translate(17.31 22.251)">
        <rect id="Rectangle_73" data-name="Rectangle 73" width="1.502" height="7.613" fill="#364550"/>
      </g>
      <g id="Group_15316" data-name="Group 15316" transform="translate(5.96 22.251)">
        <rect id="Rectangle_74" data-name="Rectangle 74" width="1.502" height="7.613" fill="#364550"/>
      </g>
    </g>
    <g id="Group_15318" data-name="Group 15318" transform="translate(12.05 6.344)">
      <path id="Path_15246" data-name="Path 15246" d="M129.832,121.919h-1.5v-6.648a.753.753,0,0,1,.518-.715l3.2-1.047.467,1.428-2.687.878Z" transform="translate(-128.33 -113.51)" fill="#364550"/>
    </g>
    <g id="Group_15319" data-name="Group 15319" transform="translate(5.328 31.232)">
      <path id="Path_15247" data-name="Path 15247" d="M66.766,383.593h-1.5a3.511,3.511,0,0,0-7.022,0h-1.5a5.013,5.013,0,0,1,10.026,0Z" transform="translate(-56.74 -378.58)" fill="#364550"/>
    </g>
    <g id="Group_15320" data-name="Group 15320" transform="translate(0 37.615)">
      <path id="Path_15248" data-name="Path 15248" d="M10.027,451.563h-1.5a3.511,3.511,0,1,0-7.022,0H0a5.014,5.014,0,0,1,10.027,0Z" transform="translate(0 -446.55)" fill="#364550"/>
    </g>
    <g id="Group_15321" data-name="Group 15321" transform="translate(10.549 37.615)">
      <path id="Path_15249" data-name="Path 15249" d="M122.376,451.563h-1.5a3.511,3.511,0,1,0-7.021,0h-1.5a5.013,5.013,0,1,1,10.026,0Z" transform="translate(-112.35 -446.55)" fill="#364550"/>
    </g>
    <g id="Group_15322" data-name="Group 15322" transform="translate(21.098 37.615)">
      <path id="Path_15250" data-name="Path 15250" d="M234.726,451.563h-1.5a3.511,3.511,0,1,0-7.021,0h-1.5a5.013,5.013,0,1,1,10.026,0Z" transform="translate(-224.7 -446.55)" fill="#364550"/>
    </g>
    <g id="Group_15323" data-name="Group 15323" transform="translate(31.647 37.615)">
      <path id="Path_15251" data-name="Path 15251" d="M347.076,451.563h-1.5a3.511,3.511,0,1,0-7.022,0h-1.5a5.013,5.013,0,1,1,10.026,0Z" transform="translate(-337.05 -446.55)" fill="#e8b300"/>
    </g>
    <g id="Group_15324" data-name="Group 15324" transform="translate(15.877 31.232)">
      <path id="Path_15252" data-name="Path 15252" d="M179.116,383.593h-1.5a3.511,3.511,0,0,0-7.021,0h-1.5a5.013,5.013,0,0,1,10.026,0Z" transform="translate(-169.09 -378.58)" fill="#e8b300"/>
    </g>
    <g id="Group_15325" data-name="Group 15325" transform="translate(26.426 31.232)">
      <path id="Path_15253" data-name="Path 15253" d="M291.466,383.593h-1.5a3.511,3.511,0,1,0-7.021,0h-1.5a5.013,5.013,0,0,1,10.026,0Z" transform="translate(-281.44 -378.58)" fill="#364550"/>
    </g>
  </g>
  <g id="Group_15327" data-name="Group 15327" transform="translate(2.329)">
    <path id="Path_15254" data-name="Path 15254" d="M61.171,27.317H57.994v-1.5H60.42V1.5H26.3V25.815h3.523v1.5H25.551a.751.751,0,0,1-.751-.751V.751A.751.751,0,0,1,25.551,0h35.62a.751.751,0,0,1,.751.751V26.566A.752.752,0,0,1,61.171,27.317Z" transform="translate(-24.8)" fill="#364550"/>
  </g>
</svg>
