<svg xmlns="http://www.w3.org/2000/svg" width="24.81" height="21.575" viewBox="0 0 24.81 21.575">
  <path id="Path_15106" data-name="Path 15106" d="M161.81,2117.557a9.729,9.729,0,0,1-2.923.852,5.387,5.387,0,0,0,2.233-3.009,9.868,9.868,0,0,1-3.225,1.326,4.916,4.916,0,0,0-3.722-1.726,5.274,5.274,0,0,0-5.081,5.448,5.828,5.828,0,0,0,.129,1.24,14.187,14.187,0,0,1-10.5-5.685,5.755,5.755,0,0,0-.69,2.73,5.582,5.582,0,0,0,2.265,4.541,4.886,4.886,0,0,1-2.308-.69v.076a5.383,5.383,0,0,0,4.088,5.339,5.005,5.005,0,0,1-1.338.184,4.676,4.676,0,0,1-.96-.1,5.146,5.146,0,0,0,4.757,3.786,9.83,9.83,0,0,1-6.321,2.33,9.019,9.019,0,0,1-1.219-.075,13.762,13.762,0,0,0,7.8,2.448c9.363,0,14.487-8.3,14.487-15.491l-.011-.711A10.741,10.741,0,0,0,161.81,2117.557Z" transform="translate(-137 -2115)" fill="#20baef"/>
</svg>
