<svg viewBox="0 0 161 160" fill="none" xmlns="http://www.w3.org/2000/svg" class="icon-picture" alt="fb"><g clip-path="url(#clip0)"><path d="M160.028 80.4873C160.028 36.0307 124.216 0 80.0283 0C35.8408 0 0.0283203 36.0307 0.0283203 80.4873C0.0283203 120.668 29.2783 153.963 67.5283 160V103.753H47.2158V80.4873H67.5283V62.755C67.5283 42.586 79.4658 31.4404 97.7471 31.4404C106.497 31.4404 115.653 33.0124 115.653 33.0124V52.8198H105.56C95.6221 52.8198 92.5283 59.0293 92.5283 65.396V80.4873H114.716L111.169 103.753H92.5283V160C130.778 153.963 160.028 120.668 160.028 80.4873Z" fill="#1877F2"></path><path d="M111.169 103.125L114.716 80H92.5283V65C92.5283 58.6719 95.6221 52.5 105.56 52.5H115.653V32.8125C115.653 32.8125 106.497 31.25 97.7471 31.25C79.4658 31.25 67.5283 42.3281 67.5283 62.375V80H47.2158V103.125H67.5283V159.031C71.6064 159.672 75.7783 160 80.0283 160C84.2783 160 88.4502 159.672 92.5283 159.031V103.125H111.169Z" fill="white"></path></g><defs><clipPath id="clip0"><rect width="160" height="160" fill="white" transform="translate(0.0283203)"></rect></clipPath></defs></svg>
