  <svg viewBox="0 0 160 160" fill="none" xmlns="http://www.w3.org/2000/svg" class="icon-picture" alt="ig"><rect width="160" height="160" rx="80" fill="#EF0475"></rect><path d="M79.9999 44.5078C91.5671 44.5078 92.9249 44.5594 97.4968 44.7656C101.725 44.9547 104.011 45.6594 105.541 46.261C107.569 47.0516 109.012 47.9797 110.525 49.4922C112.037 51.0047 112.983 52.4485 113.756 54.4766C114.341 56.0063 115.062 58.2922 115.251 62.5203C115.458 67.0922 115.509 68.45 115.509 80.0172C115.509 91.5844 115.458 92.9422 115.251 97.5141C115.062 101.742 114.358 104.028 113.756 105.558C112.966 107.586 112.037 109.03 110.525 110.542C109.012 112.055 107.569 113 105.541 113.773C104.011 114.358 101.725 115.08 97.4968 115.269C92.9249 115.475 91.5671 115.527 79.9999 115.527C68.4327 115.527 67.0749 115.475 62.503 115.269C58.2749 115.08 55.989 114.375 54.4593 113.773C52.4312 112.983 50.9874 112.055 49.4749 110.542C47.9624 109.03 47.0171 107.586 46.2437 105.558C45.6593 104.028 44.9374 101.742 44.7483 97.5141C44.5421 92.9422 44.4905 91.5844 44.4905 80.0172C44.4905 68.45 44.5421 67.0922 44.7483 62.5203C44.9374 58.2922 45.6421 56.0063 46.2437 54.4766C47.0343 52.4485 47.9624 51.0047 49.4749 49.4922C50.9874 47.9797 52.4312 47.0344 54.4593 46.261C55.989 45.6766 58.2749 44.9547 62.503 44.7656C67.0749 44.5422 68.4327 44.5078 79.9999 44.5078ZM79.9999 36.7047C68.2437 36.7047 66.7655 36.7563 62.1421 36.9625C57.5358 37.1688 54.3905 37.9078 51.6405 38.9735C48.7874 40.0735 46.3812 41.5688 43.9749 43.975C41.5687 46.3813 40.0905 48.8047 38.9733 51.6406C37.9077 54.3906 37.1687 57.536 36.9624 62.1594C36.7562 66.7656 36.7046 68.2438 36.7046 80C36.7046 91.7563 36.7562 93.2344 36.9624 97.8578C37.1687 102.464 37.9077 105.609 38.9733 108.377C40.0733 111.23 41.5687 113.636 43.9749 116.042C46.3812 118.448 48.8046 119.927 51.6405 121.044C54.3905 122.109 57.5358 122.848 62.1593 123.055C66.7827 123.261 68.2437 123.313 80.0171 123.313C91.7905 123.313 93.2515 123.261 97.8749 123.055C102.481 122.848 105.626 122.109 108.394 121.044C111.247 119.944 113.653 118.448 116.059 116.042C118.466 113.636 119.944 111.213 121.061 108.377C122.126 105.627 122.866 102.481 123.072 97.8578C123.278 93.2344 123.33 91.7735 123.33 80C123.33 68.2266 123.278 66.7656 123.072 62.1422C122.866 57.536 122.126 54.3907 121.061 51.6235C119.961 48.7703 118.466 46.3641 116.059 43.9578C113.653 41.5516 111.23 40.0735 108.394 38.9563C105.644 37.8906 102.498 37.1516 97.8749 36.9453C93.2343 36.7563 91.7562 36.7047 79.9999 36.7047Z" fill="white"></path><path d="M79.9999 57.7594C67.728 57.7594 57.7593 67.711 57.7593 80C57.7593 92.2891 67.728 102.241 79.9999 102.241C92.2718 102.241 102.241 92.2719 102.241 80C102.241 67.7281 92.2718 57.7594 79.9999 57.7594ZM79.9999 94.4375C72.0249 94.4375 65.5624 87.975 65.5624 80C65.5624 72.025 72.0249 65.5625 79.9999 65.5625C87.9749 65.5625 94.4374 72.025 94.4374 80C94.4374 87.975 87.9749 94.4375 79.9999 94.4375Z" fill="white"></path><path d="M103.117 62.0735C105.984 62.0735 108.308 59.7496 108.308 56.8829C108.308 54.0162 105.984 51.6923 103.117 51.6923C100.25 51.6923 97.9265 54.0162 97.9265 56.8829C97.9265 59.7496 100.25 62.0735 103.117 62.0735Z" fill="white"></path></svg>
