<svg width="96" height="24" viewBox="0 0 96 24" fill="none" xmlns="http://www.w3.org/2000/svg">
<path fill-rule="evenodd" clip-rule="evenodd" d="M23.5348 10.4064C25.9574 7.97386 24.3544 4.31611 28.1158 1.80991C26.0341 4.00813 26.3999 5.38063 25.6323 8.22604C27.7771 8.00287 30.3397 7.14144 30.3397 4.57498C30.3397 3.01279 29.6624 0.975253 30.3736 0C27.6959 0.296816 23.1036 0.861436 23.1036 3.91886C23.1036 5.39402 24.2189 6.45854 24.2054 7.6949C24.2054 8.29969 23.6838 8.93572 22.8281 9.25709L23.5303 10.4042L23.5348 10.4064Z" fill="#3399CC"/>
<path fill-rule="evenodd" clip-rule="evenodd" d="M34.4175 9.25952V12.3527H38.5153V23.7232H42.5364V12.3527H46.632V9.25952H34.4175Z" fill="#404040"/>
<path fill-rule="evenodd" clip-rule="evenodd" d="M85.4381 9.25952L78.8726 23.7232H82.7672L83.9886 20.8554H90.8929L92.1166 23.7232H95.9999L89.4344 9.25952H85.4381ZM85.2011 17.9877L87.4362 12.7209L89.6714 17.9832L85.2011 17.9877Z" fill="#404040"/>
<path fill-rule="evenodd" clip-rule="evenodd" d="M23.7493 23.7232H27.7703V18.9183L33.6744 9.25952H29.423L25.7587 15.2539L22.0943 9.25952H17.8452L23.7493 18.9183V23.7232Z" fill="#404040"/>
<path fill-rule="evenodd" clip-rule="evenodd" d="M3.74111 23.7232H0V9.25952H3.35955L8.55014 17.5793L13.7407 9.25952H17.1003V23.7232H13.3592V16.0751L9.46679 22.1878H7.63349L3.74111 16.0751V23.7232Z" fill="#404040"/>
<path fill-rule="evenodd" clip-rule="evenodd" d="M63.055 16.4903C63.055 12.3438 59.7857 8.98291 54.8345 8.98291C49.8832 8.98291 46.6162 12.3438 46.6162 16.4903C46.6162 20.6368 49.8854 24 54.8345 24C59.7835 24 63.055 20.6391 63.055 16.4903ZM54.8345 20.7551C52.2696 20.7551 50.6621 18.7466 50.6621 16.4903C50.6621 14.2341 52.2696 12.2278 54.8345 12.2278C57.3993 12.2278 59.0091 14.2363 59.0091 16.4903C59.0091 18.7444 57.4015 20.7551 54.8345 20.7551Z" fill="#404040"/>
<path fill-rule="evenodd" clip-rule="evenodd" d="M68.0761 23.7232H64.1318V9.25952H67.4395L74.1834 17.2334V9.25952H78.1277V23.7232H74.8201L68.0761 15.7493V23.7232Z" fill="#404040"/>
</svg>
