  <svg viewBox="0 0 160 160" fill="none" xmlns="http://www.w3.org/2000/svg" class="icon-picture" alt="tw"><path d="M80 160C124.183 160 160 124.183 160 80C160 35.8172 124.183 0 80 0C35.8172 0 0 35.8172 0 80C0 124.183 35.8172 160 80 160Z" fill="#1DA1F2"></path><path d="M65.36 122.2C100.84 122.2 120.24 92.8 120.24 67.32C120.24 66.48 120.24 65.64 120.2 64.84C123.96 62.12 127.24 58.72 129.84 54.84C126.4 56.36 122.68 57.4 118.76 57.88C122.76 55.48 125.8 51.72 127.24 47.2C123.52 49.4 119.4 51 115 51.88C111.48 48.12 106.48 45.8 100.92 45.8C90.28 45.8 81.64 54.44 81.64 65.08C81.64 66.6 81.8 68.08 82.16 69.48C66.12 68.68 51.92 61 42.4 49.32C40.76 52.16 39.8 55.48 39.8 59C39.8 65.68 43.2 71.6 48.4 75.04C45.24 74.96 42.28 74.08 39.68 72.64C39.68 72.72 39.68 72.8 39.68 72.88C39.68 82.24 46.32 90 55.16 91.8C53.56 92.24 51.84 92.48 50.08 92.48C48.84 92.48 47.64 92.36 46.44 92.12C48.88 99.8 56 105.36 64.44 105.52C57.84 110.68 49.52 113.76 40.48 113.76C38.92 113.76 37.4 113.68 35.88 113.48C44.32 119 54.48 122.2 65.36 122.2Z" fill="white"></path></svg>
  
