<svg viewBox="0 0 161 161" fill="none" xmlns="http://www.w3.org/2000/svg" class="icon-picture" alt="vk"><path fill-rule="evenodd" clip-rule="evenodd" d="M55.4694 0.0283203H104.587C149.414 0.0283203 160.028 10.6423 160.028 55.4694V104.587C160.028 149.414 149.414 160.028 104.587 160.028H55.4694C10.6423 160.028 0.0283203 149.414 0.0283203 104.587V55.4694C0.0283203 10.6423 10.6423 0.0283203 55.4694 0.0283203Z" fill="#4680C2"></path><path fill-rule="evenodd" clip-rule="evenodd" d="M131.009 55.1305C131.799 52.6464 131.009 50.8398 127.509 50.8398H115.879C112.943 50.8398 111.588 52.4206 110.797 54.1143C110.797 54.1143 104.813 68.5674 96.4572 77.9393C93.7473 80.6492 92.5052 81.5526 91.0373 81.5526C90.2469 81.5526 89.2307 80.6492 89.2307 78.1651V55.0176C89.2307 52.0818 88.3274 50.7269 85.8432 50.7269H67.5511C65.7445 50.7269 64.6153 52.0818 64.6153 53.4368C64.6153 56.2597 68.7931 56.9372 69.2448 64.8412V82.0042C69.2448 85.7304 68.5673 86.4079 67.0994 86.4079C63.1474 86.4079 53.5497 71.8419 47.791 55.2435C46.6619 51.9689 45.5328 50.7269 42.597 50.7269H30.8539C27.4664 50.7269 26.9019 52.3077 26.9019 54.0014C26.9019 57.0501 30.8539 72.4065 45.3069 92.7311C54.9047 106.62 68.5673 114.072 80.875 114.072C88.3274 114.072 89.2307 112.378 89.2307 109.555V99.0543C89.2307 95.6669 89.9082 95.1023 92.2794 95.1023C93.9731 95.1023 97.0218 96.0056 103.91 102.668C111.814 110.572 113.169 114.185 117.572 114.185H129.202C132.59 114.185 134.171 112.491 133.267 109.217C132.251 105.942 128.412 101.2 123.444 95.554C120.734 92.3924 116.669 88.892 115.427 87.1983C113.733 84.94 114.185 84.0367 115.427 82.0042C115.314 82.0042 129.541 61.9054 131.009 55.1305Z" fill="white"></path></svg>
