<svg viewBox="0 0 161 160" fill="none" xmlns="http://www.w3.org/2000/svg" class="icon-picture" alt="yt"><circle cx="80.0283" cy="80" r="80" fill="#FF0000"></circle><path d="M127.969 55.8962C126.816 51.6038 123.439 48.2193 119.155 47.0637C111.33 45 80.0283 45 80.0283 45C80.0283 45 48.7268 45 40.9015 47.0637C36.6181 48.2193 33.2408 51.6038 32.0876 55.8962C30.0283 63.7382 30.0283 80 30.0283 80C30.0283 80 30.0283 96.3443 32.0876 104.104C33.2408 108.396 36.6181 111.781 40.9015 112.936C48.7268 115 80.0283 115 80.0283 115C80.0283 115 111.33 115 119.155 112.936C123.439 111.781 126.816 108.396 127.969 104.104C130.028 96.2618 130.028 80 130.028 80C130.028 80 130.028 63.7382 127.969 55.8962ZM69.9789 95.1061V65.059L96.0085 80.0825L69.9789 95.1061Z" fill="white"></path></svg>
