<svg id="Group_24" data-name="Group 24" xmlns="http://www.w3.org/2000/svg" width="51.376" height="45.428" viewBox="0 0 51.376 45.428">
  <g id="Group_15077" data-name="Group 15077" transform="translate(15.986 0)">
    <g id="Group_15075" data-name="Group 15075" transform="translate(0 3.916)">
      <g id="Group_15072" data-name="Group 15072" transform="translate(5.844)">
        <path id="Path_15045" data-name="Path 15045" d="M1215.12,294.121a4.6,4.6,0,1,1,4.378-4.594A4.495,4.495,0,0,1,1215.12,294.121Zm0-7.59a3.005,3.005,0,1,0,2.781,3A2.9,2.9,0,0,0,1215.12,286.531Z" transform="translate(-1210.742 -284.934)" fill="#20baef"/>
      </g>
      <g id="Group_15073" data-name="Group 15073" transform="translate(0 2.365)">
        <path id="Path_15046" data-name="Path 15046" d="M1157.355,322.749a.8.8,0,0,1-.633-.311l-4.375-5.68a.8.8,0,0,1-.11-.781l2.4-6.058a.8.8,0,0,1,.429-.441l1.977-.841.625,1.469-1.67.711-2.108,5.326,3.634,4.718.722-.5-2.1-3.831a.8.8,0,0,1-.047-.663l.775-2.067,1.495.561-.646,1.724,2.264,4.138a.8.8,0,0,1-.244,1.038l-1.935,1.346A.8.8,0,0,1,1157.355,322.749Z" transform="translate(-1152.181 -308.637)" fill="#20baef"/>
      </g>
      <g id="Group_15074" data-name="Group 15074" transform="translate(12.536 2.365)">
        <path id="Path_15047" data-name="Path 15047" d="M1280.539,322.749a.8.8,0,0,1-.455-.143l-1.935-1.346a.8.8,0,0,1-.245-1.038l2.265-4.138-.647-1.724,1.495-.561.775,2.067a.8.8,0,0,1-.047.663l-2.1,3.831.722.5,3.635-4.718-2.109-5.326-1.67-.711.625-1.469,1.977.841a.8.8,0,0,1,.43.441l2.4,6.058a.8.8,0,0,1-.11.781l-4.375,5.68A.8.8,0,0,1,1280.539,322.749Z" transform="translate(-1277.806 -308.637)" fill="#20baef"/>
      </g>
    </g>
    <g id="Group_15076" data-name="Group 15076" transform="translate(1.703)">
      <path id="Path_15048" data-name="Path 15048" d="M1185.569,251.647l-1.561-.336.662-3.077a.778.778,0,0,0-.761-.942h-12.286a.779.779,0,0,0-.761.942l.662,3.077-1.561.336-.662-3.077a2.375,2.375,0,0,1,2.322-2.875h12.286a2.375,2.375,0,0,1,2.322,2.875Z" transform="translate(-1169.248 -245.695)" fill="#364550"/>
    </g>
  </g>
  <g id="Group_15083" data-name="Group 15083" transform="translate(0 22.403)">
    <g id="Group_15081" data-name="Group 15081" transform="translate(5.884)">
      <g id="Group_15078" data-name="Group 15078" transform="translate(0.333 7.228)">
        <path id="Path_15049" data-name="Path 15049" d="M1058.646,551.485a4.6,4.6,0,0,1-1.061-.124,4.236,4.236,0,0,1-3.112-5.39,4.757,4.757,0,0,1,5.6-3.231,4.248,4.248,0,0,1,2.736,2.014,4.5,4.5,0,0,1-1.789,6.088A4.738,4.738,0,0,1,1058.646,551.485Zm.365-7.272a3.147,3.147,0,0,0-1.574.429,3.094,3.094,0,0,0-1.434,1.788,2.64,2.64,0,0,0,1.95,3.378,3.093,3.093,0,0,0,2.265-.348,2.9,2.9,0,0,0,1.2-3.907,2.667,2.667,0,0,0-1.721-1.258A3,3,0,0,0,1059.011,544.213Z" transform="translate(-1054.285 -542.616)" fill="#364550"/>
      </g>
      <g id="Group_15079" data-name="Group 15079" transform="translate(5.627 8.69)">
        <path id="Path_15050" data-name="Path 15050" d="M1109.529,567.446a.8.8,0,0,1-.48-.16l-1.718-1.292.96-1.276,1.451,1.091,5.667-.837,2.269-5.506-.8-.374-2.269,3.73a.8.8,0,0,1-.551.373l-2.177.362-.262-1.575,1.816-.3,2.452-4.031a.8.8,0,0,1,1.022-.308l2.134,1a.8.8,0,0,1,.4,1.027L1116.713,566a.8.8,0,0,1-.621.486l-6.445.952A.809.809,0,0,1,1109.529,567.446Z" transform="translate(-1107.332 -557.265)" fill="#364550"/>
      </g>
      <g id="Group_15080" data-name="Group 15080">
        <path id="Path_15051" data-name="Path 15051" d="M1051.216,478.321l-.26-2.133a.8.8,0,0,1,.167-.593l4.048-5.106a.8.8,0,0,1,.731-.3l7.106.949a.8.8,0,0,1,.69.858l-.2,2.349a.8.8,0,0,1-.777.731l-4.716.108-1.17,1.422L1055.6,475.6l1.4-1.7a.8.8,0,0,1,.6-.291l4.365-.1.074-.877-5.9-.789-3.559,4.489.22,1.8Z" transform="translate(-1050.95 -470.187)" fill="#364550"/>
      </g>
    </g>
    <g id="Group_15082" data-name="Group 15082" transform="translate(0 6.184)">
      <path id="Path_15052" data-name="Path 15052" d="M1000.509,548.393a2.38,2.38,0,0,1-2.061-1.188l-6.143-10.64a2.375,2.375,0,0,1,1.328-3.448l3-.965.49,1.52-3,.965a.778.778,0,0,0-.436,1.13l6.143,10.64a.778.778,0,0,0,1.2.188l2.334-2.112,1.071,1.184-2.334,2.112A2.363,2.363,0,0,1,1000.509,548.393Z" transform="translate(-991.986 -532.152)" fill="#364550"/>
    </g>
  </g>
  <g id="Group_15089" data-name="Group 15089" transform="translate(27.693 23.003)">
    <g id="Group_15087" data-name="Group 15087">
      <g id="Group_15084" data-name="Group 15084" transform="translate(8.38 7.228)">
        <path id="Path_15053" data-name="Path 15053" d="M1358.192,557.506a4.737,4.737,0,0,1-2.371-.643,4.684,4.684,0,0,1-2.166-2.712,4.236,4.236,0,0,1,3.112-5.39,4.757,4.757,0,0,1,5.6,3.232,4.236,4.236,0,0,1-3.112,5.39A4.6,4.6,0,0,1,1358.192,557.506Zm-.365-7.272a2.991,2.991,0,0,0-.691.081,2.639,2.639,0,0,0-1.95,3.378,3.16,3.16,0,0,0,3.7,2.136,2.639,2.639,0,0,0,1.95-3.378,3.093,3.093,0,0,0-1.434-1.788A3.147,3.147,0,0,0,1357.826,550.234Z" transform="translate(-1353.467 -548.637)" fill="#e8b300"/>
      </g>
      <g id="Group_15085" data-name="Group 15085" transform="translate(5.048)">
        <path id="Path_15054" data-name="Path 15054" d="M1332.566,484.34l-1.585-.193.219-1.8-3.558-4.489-5.9.789.074.877,4.365.1a.8.8,0,0,1,.6.291l1.4,1.7-1.233,1.014-1.17-1.422-4.716-.108a.8.8,0,0,1-.777-.731l-.2-2.349a.8.8,0,0,1,.69-.858l7.106-.949a.8.8,0,0,1,.731.3l4.047,5.106a.8.8,0,0,1,.167.592Z" transform="translate(-1320.081 -476.207)" fill="#e8b300"/>
      </g>
      <g id="Group_15086" data-name="Group 15086" transform="translate(0 8.69)">
        <path id="Path_15055" data-name="Path 15055" d="M1279.468,573.466a.817.817,0,0,1-.117-.009l-6.446-.953a.8.8,0,0,1-.621-.486l-2.731-6.629a.8.8,0,0,1,.4-1.027l2.133-1a.8.8,0,0,1,1.021.308l2.452,4.03,1.816.3-.262,1.575-2.177-.362a.8.8,0,0,1-.551-.372l-2.269-3.73-.8.374,2.269,5.506,5.667.838,1.451-1.091.96,1.276-1.717,1.292A.8.8,0,0,1,1279.468,573.466Z" transform="translate(-1269.493 -563.285)" fill="#e8b300"/>
      </g>
    </g>
    <g id="Group_15088" data-name="Group 15088" transform="translate(11.236 6.183)">
      <path id="Path_15056" data-name="Path 15056" d="M1386.013,554.411a2.363,2.363,0,0,1-1.59-.615l-2.334-2.112,1.071-1.184,2.334,2.112a.779.779,0,0,0,1.2-.188l6.143-10.64a.778.778,0,0,0-.435-1.13l-3-.965.49-1.52,3,.965a2.375,2.375,0,0,1,1.328,3.448l-6.143,10.64a2.365,2.365,0,0,1-1.689,1.159A2.407,2.407,0,0,1,1386.013,554.411Z" transform="translate(-1382.09 -538.17)" fill="#364550"/>
    </g>
  </g>
</svg>
