<svg xmlns="http://www.w3.org/2000/svg" xmlns:xlink="http://www.w3.org/1999/xlink" width="48" height="48" viewBox="0 0 48 48">
  <defs>
    <filter id="Ellipse_21" x="0" y="0" width="48" height="48" filterUnits="userSpaceOnUse">
      <feOffset dy="4" input="SourceAlpha"/>
      <feGaussianBlur stdDeviation="4" result="blur"/>
      <feFlood flood-opacity="0.161"/>
      <feComposite operator="in" in2="blur"/>
      <feComposite in="SourceGraphic"/>
    </filter>
  </defs>
  <g id="Group_15213" data-name="Group 15213" transform="translate(-573 -5428)">
    <g id="Group_15212" data-name="Group 15212" transform="translate(-51 -8)">
      <path id="Path_15161" data-name="Path 15161" d="M20.516,10.6c0,.118,0,.235-.011.353a10.565,10.565,0,0,1-.208,1.712,10.156,10.156,0,0,1-.318,1.206c-.028.084-.056.169-.089.253a9.453,9.453,0,0,1-.483,1.131,10.379,10.379,0,0,1-5.654,5.134,9.733,9.733,0,0,1-1.34.395,10.106,10.106,0,0,1-4.245.016,9.705,9.705,0,0,1-1.407-.41,10.236,10.236,0,0,1-4.518-3.326c-.156-.2-.3-.4-.437-.6A10.082,10.082,0,0,1,1.1,15.245,10.544,10.544,0,0,1,.483,13.7c-.1-.337-.193-.681-.264-1.031A10.927,10.927,0,0,1,0,10.77c0-.118,0-.235,0-.353A10.71,10.71,0,0,1,.2,8.43,10.173,10.173,0,0,1,.539,7.144C.567,7.06.6,6.975.628,6.893a9.883,9.883,0,0,1,.5-1.166A10.461,10.461,0,0,1,2.243,3.95,10.3,10.3,0,0,1,6.762.626,9.993,9.993,0,0,1,8.169.216,10.1,10.1,0,0,1,10.349,0a10.217,10.217,0,0,1,2.065.231,10.059,10.059,0,0,1,1.34.4,10.271,10.271,0,0,1,4.52,3.326c.154.2.3.4.437.605a10.172,10.172,0,0,1,.706,1.213,10.544,10.544,0,0,1,.619,1.548,10.635,10.635,0,0,1,.481,3.282Z" transform="translate(637.772 5445.628)" fill="#fffcfa"/>
      <path id="Path_15162" data-name="Path 15162" d="M20.516,10.6c0,.118,0,.235-.011.353a10.565,10.565,0,0,1-.208,1.712H12.414v8.119a10.106,10.106,0,0,1-4.245.016V12.666H.219A10.927,10.927,0,0,1,0,10.77c0-.118,0-.235,0-.353A10.71,10.71,0,0,1,.2,8.43H8.169V.216A10.1,10.1,0,0,1,10.349,0a10.217,10.217,0,0,1,2.065.231v8.2h7.9A10.87,10.87,0,0,1,20.516,10.6Z" transform="translate(637.772 5445.628)" fill="#cf142b"/>
      <path id="Path_15163" data-name="Path 15163" d="M15.112,66.55v5.771a10.731,10.731,0,0,1-4.742-3.408Z" transform="translate(629.759 5393.682)" fill="#00247d"/>
      <path id="Path_15164" data-name="Path 15164" d="M10.652,63.7,5.831,66.093a10.272,10.272,0,0,1-.741-1.245L7.405,63.7Z" transform="translate(633.839 5395.884)" fill="#cf142b"/>
      <path id="Path_15165" data-name="Path 15165" d="M68.284,68.915a10.79,10.79,0,0,1-4.744,3.406V66.55Z" transform="translate(587.65 5393.681)" fill="#00247d"/>
      <path id="Path_15166" data-name="Path 15166" d="M15.1,2.83V8.6L10.36,6.236A10.8,10.8,0,0,1,15.1,2.83Z" transform="translate(629.766 5443.44)" fill="#00247d"/>
      <path id="Path_15167" data-name="Path 15167" d="M68.284,6.238,63.54,8.6V2.83A10.769,10.769,0,0,1,68.284,6.238Z" transform="translate(587.65 5443.44)" fill="#00247d"/>
      <path id="Path_15168" data-name="Path 15168" d="M70.782,21.8l-2.318,1.15H65.22l4.822-2.393A10.365,10.365,0,0,1,70.782,21.8Z" transform="translate(586.352 5429.739)" fill="#cf142b"/>
      <path id="Path_15169" data-name="Path 15169" d="M82.2,63.7a9.559,9.559,0,0,1-.507,1.159L79.35,63.7Z" transform="translate(575.433 5396.034)" fill="#cf142b"/>
      <path id="Path_15170" data-name="Path 15170" d="M5.854,27.025H2.9a10,10,0,0,1,.52-1.2Z" transform="translate(635.531 5425.517)" fill="#cf142b"/>
    </g>
    <g transform="matrix(1, 0, 0, 1, 573, 5428)" filter="url(#Ellipse_21)">
      <g id="Ellipse_21-2" data-name="Ellipse 21" transform="translate(12 8)" fill="none" stroke="#20baef" stroke-width="1">
        <circle cx="12" cy="12" r="12" stroke="none"/>
        <circle cx="12" cy="12" r="11.5" fill="none"/>
      </g>
    </g>
  </g>
</svg>
