<svg xmlns="http://www.w3.org/2000/svg" width="83.038" height="91.777" viewBox="0 0 83.038 91.777">
  <g id="Group_38" data-name="Group 38" transform="translate(-300 -4057)">
    <g id="Group_15179" data-name="Group 15179" transform="translate(327.293 4112.496)">
      <g id="Group_15176" data-name="Group 15176" transform="translate(3.566 0)">
        <path id="Path_15092" data-name="Path 15092" d="M1205.177,1289.3a10.644,10.644,0,1,1,10.644-10.644A10.656,10.656,0,0,1,1205.177,1289.3Zm0-18.18a7.536,7.536,0,1,0,7.535,7.536A7.544,7.544,0,0,0,1205.177,1271.121Z" transform="translate(-1194.533 -1268.012)" fill="#364550"/>
      </g>
      <g id="Group_15177" data-name="Group 15177" transform="translate(0 22.356)">
        <path id="Path_15093" data-name="Path 15093" d="M1179.289,1389.908h-3.109a6.842,6.842,0,0,1,6.835-6.834h7.375v3.108h-7.375A3.73,3.73,0,0,0,1179.289,1389.908Z" transform="translate(-1176.18 -1383.074)" fill="#364550"/>
      </g>
      <g id="Group_15178" data-name="Group 15178" transform="translate(14.21 22.356)">
        <path id="Path_15094" data-name="Path 15094" d="M1263.529,1389.908h-3.108a3.73,3.73,0,0,0-3.726-3.726h-7.375v-3.108h7.375A6.842,6.842,0,0,1,1263.529,1389.908Z" transform="translate(-1249.319 -1383.074)" fill="#364550"/>
      </g>
    </g>
    <g id="Group_15183" data-name="Group 15183" transform="translate(354.618 4119.588)">
      <g id="Group_15180" data-name="Group 15180" transform="translate(3.566 0)">
        <path id="Path_15095" data-name="Path 15095" d="M1345.818,1325.8a10.644,10.644,0,1,1,10.644-10.644A10.656,10.656,0,0,1,1345.818,1325.8Zm0-18.18a7.535,7.535,0,1,0,7.535,7.536A7.544,7.544,0,0,0,1345.818,1307.622Z" transform="translate(-1335.174 -1304.514)" fill="#e8b300"/>
      </g>
      <g id="Group_15181" data-name="Group 15181" transform="translate(0 22.356)">
        <path id="Path_15096" data-name="Path 15096" d="M1319.93,1426.41h-3.109a6.842,6.842,0,0,1,6.834-6.834h7.375v3.109h-7.375A3.73,3.73,0,0,0,1319.93,1426.41Z" transform="translate(-1316.821 -1419.576)" fill="#e8b300"/>
      </g>
      <g id="Group_15182" data-name="Group 15182" transform="translate(14.21 22.356)">
        <path id="Path_15097" data-name="Path 15097" d="M1404.169,1426.41h-3.109a3.73,3.73,0,0,0-3.726-3.726h-7.375v-3.109h7.375A6.842,6.842,0,0,1,1404.169,1426.41Z" transform="translate(-1389.959 -1419.576)" fill="#e8b300"/>
      </g>
    </g>
    <g id="Group_15187" data-name="Group 15187" transform="translate(300 4119.588)">
      <g id="Group_15184" data-name="Group 15184" transform="translate(3.566 0)">
        <path id="Path_15098" data-name="Path 15098" d="M1064.7,1325.8a10.644,10.644,0,1,1,10.644-10.644A10.656,10.656,0,0,1,1064.7,1325.8Zm0-18.18a7.535,7.535,0,1,0,7.535,7.536A7.544,7.544,0,0,0,1064.7,1307.622Z" transform="translate(-1054.059 -1304.514)" fill="#20baef"/>
      </g>
      <g id="Group_15185" data-name="Group 15185" transform="translate(0 22.356)">
        <path id="Path_15099" data-name="Path 15099" d="M1038.814,1426.41H1035.7a6.842,6.842,0,0,1,6.834-6.834h7.375v3.109h-7.375A3.73,3.73,0,0,0,1038.814,1426.41Z" transform="translate(-1035.705 -1419.576)" fill="#20baef"/>
      </g>
      <g id="Group_15186" data-name="Group 15186" transform="translate(14.21 22.356)">
        <path id="Path_15100" data-name="Path 15100" d="M1123.052,1426.41h-3.108a3.73,3.73,0,0,0-3.726-3.726h-7.375v-3.109h7.375A6.842,6.842,0,0,1,1123.052,1426.41Z" transform="translate(-1108.842 -1419.576)" fill="#20baef"/>
      </g>
    </g>
    <g id="Group_15193" data-name="Group 15193" transform="translate(304.956 4057)">
      <g id="Group_15188" data-name="Group 15188" transform="translate(0 0)">
        <path id="Path_15101" data-name="Path 15101" d="M1118.608,1046l-1.911-2.452a32.448,32.448,0,1,0-41.479-1.35l-2.066,2.323a35.554,35.554,0,1,1,45.455,1.479Z" transform="translate(-1061.213 -982.381)" fill="#364550"/>
      </g>
      <g id="Group_15189" data-name="Group 15189" transform="translate(7.858 13.41)">
        <path id="Path_15102" data-name="Path 15102" d="M1129.355,1060.979c-10.55,0-20.645-2.53-27.7-6.941l1.648-2.636c6.572,4.11,16.066,6.468,26.049,6.468s19.478-2.358,26.05-6.468l1.648,2.636C1150,1058.449,1139.906,1060.979,1129.355,1060.979Z" transform="translate(-1101.658 -1051.402)" fill="#364550"/>
      </g>
      <g id="Group_15190" data-name="Group 15190" transform="translate(7.858 48.124)">
        <path id="Path_15103" data-name="Path 15103" d="M1155.405,1239.647c-6.571-4.111-16.066-6.468-26.05-6.468s-19.477,2.357-26.049,6.468l-1.648-2.636c7.052-4.411,17.148-6.94,27.7-6.94s20.646,2.53,27.7,6.941Z" transform="translate(-1101.658 -1230.07)" fill="#364550"/>
      </g>
      <g id="Group_15191" data-name="Group 15191" transform="translate(15.429 0)">
        <path id="Path_15104" data-name="Path 15104" d="M1176.562,1040.064l-2.839-1.267a52.43,52.43,0,0,0,4.046-20.862c0-17.588-7.793-32.447-17.018-32.447s-17.017,14.859-17.017,32.447a52.432,52.432,0,0,0,4.046,20.862l-2.839,1.267a55.593,55.593,0,0,1-4.316-22.128c0-19.938,8.841-35.555,20.126-35.555s20.127,15.618,20.127,35.555A55.593,55.593,0,0,1,1176.562,1040.064Z" transform="translate(-1140.625 -982.381)" fill="#364550"/>
      </g>
      <g id="Group_15192" data-name="Group 15192" transform="translate(34.001 1.554)">
        <rect id="Rectangle_44" data-name="Rectangle 44" width="3.109" height="52.14" fill="#364550"/>
      </g>
    </g>
    <g id="Group_15194" data-name="Group 15194" transform="translate(306.51 4091.001)">
      <rect id="Rectangle_45" data-name="Rectangle 45" width="68.002" height="3.109" transform="translate(0 0)" fill="#364550"/>
    </g>
  </g>
</svg>
