<svg xmlns="http://www.w3.org/2000/svg" width="46.27" height="40.914" viewBox="0 0 46.27 40.914">
  <g id="Group_15259" data-name="Group 15259" transform="translate(0.001)">
    <g id="Group_15255" data-name="Group 15255" transform="translate(-0.001)">
      <g id="Group_15242" data-name="Group 15242" transform="translate(14.399)">
        <g id="Group_15240" data-name="Group 15240" transform="translate(0 3.527)">
          <g id="Group_15237" data-name="Group 15237" transform="translate(5.262)">
            <path id="Path_15195" data-name="Path 15195" d="M222.7,47.514a4.142,4.142,0,1,1,3.943-4.137A4.048,4.048,0,0,1,222.7,47.514Zm0-6.836a2.706,2.706,0,1,0,2.5,2.7A2.61,2.61,0,0,0,222.7,40.678Z" transform="translate(-218.76 -39.24)" fill="#e8b300"/>
          </g>
          <g id="Group_15238" data-name="Group 15238" transform="translate(0 2.13)">
            <path id="Path_15196" data-name="Path 15196" d="M164.866,75.65a.718.718,0,0,1-.57-.28l-3.94-5.115a.719.719,0,0,1-.1-.7l2.16-5.456a.722.722,0,0,1,.386-.4l1.78-.758.564,1.323-1.5.64-1.9,4.8,3.273,4.249.651-.453-1.887-3.449a.717.717,0,0,1-.042-.6l.7-1.861,1.346.505-.582,1.553,2.039,3.727a.719.719,0,0,1-.22.936l-1.743,1.212A.719.719,0,0,1,164.866,75.65Z" transform="translate(-160.207 -62.94)" fill="#e8b300"/>
          </g>
          <g id="Group_15239" data-name="Group 15239" transform="translate(11.29 2.131)">
            <path id="Path_15197" data-name="Path 15197" d="M288.288,75.659a.72.72,0,0,1-.41-.129l-1.743-1.212a.719.719,0,0,1-.22-.936l2.039-3.727-.582-1.553,1.346-.505.7,1.861a.721.721,0,0,1-.042.6l-1.887,3.449.651.453,3.273-4.249-1.9-4.8-1.5-.64.564-1.323,1.78.758a.716.716,0,0,1,.386.4l2.16,5.456a.719.719,0,0,1-.1.7l-3.94,5.115A.723.723,0,0,1,288.288,75.659Z" transform="translate(-285.827 -62.95)" fill="#e8b300"/>
          </g>
        </g>
        <g id="Group_15241" data-name="Group 15241" transform="translate(1.533)">
          <path id="Path_15198" data-name="Path 15198" d="M191.96,5.36l-1.406-.3.6-2.772a.7.7,0,0,0-.686-.848H179.4a.7.7,0,0,0-.685.848l.6,2.772-1.406.3-.6-2.772A2.138,2.138,0,0,1,179.4,0h11.065a2.139,2.139,0,0,1,2.09,2.589Z" transform="translate(-177.261)" fill="#e8b300"/>
        </g>
      </g>
      <g id="Group_15248" data-name="Group 15248" transform="translate(0 20.176)">
        <g id="Group_15246" data-name="Group 15246" transform="translate(5.299)">
          <g id="Group_15243" data-name="Group 15243" transform="translate(0.3 6.509)">
            <path id="Path_15199" data-name="Path 15199" d="M66.228,304.9a4.148,4.148,0,0,1-.955-.111,3.815,3.815,0,0,1-2.8-4.854,4.285,4.285,0,0,1,5.04-2.911,3.825,3.825,0,0,1,2.463,1.814,4.049,4.049,0,0,1-1.611,5.483A4.253,4.253,0,0,1,66.228,304.9Zm.329-6.549a2.833,2.833,0,0,0-1.417.386,2.785,2.785,0,0,0-1.291,1.61,2.377,2.377,0,0,0,1.756,3.042,2.79,2.79,0,0,0,2.04-.314,2.61,2.61,0,0,0,1.085-3.519,2.4,2.4,0,0,0-1.549-1.133A2.7,2.7,0,0,0,66.557,298.353Z" transform="translate(-62.301 -296.914)" fill="#20baef"/>
          </g>
          <g id="Group_15244" data-name="Group 15244" transform="translate(5.068 7.826)">
            <path id="Path_15200" data-name="Path 15200" d="M117.329,320.733a.721.721,0,0,1-.432-.145l-1.547-1.163.865-1.149,1.307.983,5.1-.754,2.043-4.959-.717-.337-2.044,3.359a.717.717,0,0,1-.5.335l-1.961.326-.235-1.418,1.636-.272,2.208-3.63a.718.718,0,0,1,.92-.277l1.922.9a.719.719,0,0,1,.359.925l-2.46,5.97a.718.718,0,0,1-.56.438l-5.805.857A.851.851,0,0,1,117.329,320.733Z" transform="translate(-115.35 -311.564)" fill="#20baef"/>
          </g>
          <g id="Group_15245" data-name="Group 15245">
            <path id="Path_15201" data-name="Path 15201" d="M59.2,231.816l-.235-1.922a.719.719,0,0,1,.15-.534l3.645-4.6a.721.721,0,0,1,.659-.266l6.4.855a.718.718,0,0,1,.621.773l-.178,2.116a.72.72,0,0,1-.7.659l-4.247.1-1.053,1.281-1.111-.913,1.263-1.535a.721.721,0,0,1,.538-.262l3.931-.09.067-.79-5.316-.71-3.2,4.043.2,1.623Z" transform="translate(-58.961 -224.49)" fill="#20baef"/>
          </g>
        </g>
        <g id="Group_15247" data-name="Group 15247" transform="translate(0 5.569)">
          <path id="Path_15202" data-name="Path 15202" d="M7.675,301.078a2.215,2.215,0,0,1-.335-.026,2.126,2.126,0,0,1-1.52-1.043L.287,290.425a2.139,2.139,0,0,1,1.2-3.106l2.7-.869.441,1.369-2.7.869a.7.7,0,0,0-.392,1.017l5.533,9.583a.7.7,0,0,0,1.078.169l2.1-1.9.964,1.066-2.1,1.9A2.126,2.126,0,0,1,7.675,301.078Z" transform="translate(0.001 -286.45)" fill="#20baef"/>
        </g>
      </g>
      <g id="Group_15254" data-name="Group 15254" transform="translate(24.94 20.718)">
        <g id="Group_15252" data-name="Group 15252">
          <g id="Group_15249" data-name="Group 15249" transform="translate(7.548 6.508)">
            <path id="Path_15203" data-name="Path 15203" d="M365.736,310.92a4.267,4.267,0,0,1-2.135-.58,4.216,4.216,0,0,1-1.95-2.443,3.815,3.815,0,0,1,2.8-4.854,4.285,4.285,0,0,1,5.04,2.911,3.815,3.815,0,0,1-2.8,4.854A4.134,4.134,0,0,1,365.736,310.92Zm-.329-6.549a2.713,2.713,0,0,0-.623.073,2.377,2.377,0,0,0-1.756,3.042,2.846,2.846,0,0,0,3.332,1.923,2.377,2.377,0,0,0,1.756-3.042,2.782,2.782,0,0,0-1.292-1.61A2.835,2.835,0,0,0,365.407,304.371Z" transform="translate(-361.481 -302.932)" fill="#364550"/>
          </g>
          <g id="Group_15250" data-name="Group 15250" transform="translate(4.547)">
            <path id="Path_15204" data-name="Path 15204" d="M339.335,237.845l-1.427-.173.2-1.623-3.2-4.043-5.316.71.066.79,3.931.09a.715.715,0,0,1,.538.262l1.263,1.535-1.111.913-1.053-1.281-4.247-.1a.718.718,0,0,1-.7-.659l-.178-2.116a.718.718,0,0,1,.621-.773l6.4-.855a.722.722,0,0,1,.659.266l3.645,4.6a.718.718,0,0,1,.15.534Z" transform="translate(-328.091 -230.52)" fill="#364550"/>
          </g>
          <g id="Group_15251" data-name="Group 15251" transform="translate(0 7.823)">
            <path id="Path_15205" data-name="Path 15205" d="M286.481,326.739a.69.69,0,0,1-.105-.008l-5.8-.858a.719.719,0,0,1-.56-.438l-2.46-5.97a.72.72,0,0,1,.359-.925l1.922-.9a.72.72,0,0,1,.92.277l2.208,3.63,1.636.272-.236,1.418-1.96-.324a.717.717,0,0,1-.5-.335l-2.044-3.36-.717.337,2.043,4.959,5.1.754,1.307-.983.865,1.15-1.547,1.164A.727.727,0,0,1,286.481,326.739Z" transform="translate(-277.497 -317.568)" fill="#364550"/>
          </g>
        </g>
        <g id="Group_15253" data-name="Group 15253" transform="translate(10.12 5.568)">
          <path id="Path_15206" data-name="Path 15206" d="M393.634,307.1a2.129,2.129,0,0,1-1.432-.554l-2.1-1.9.964-1.066,2.1,1.9a.7.7,0,0,0,1.078-.17l5.533-9.582a.7.7,0,0,0-.392-1.017l-2.7-.869.441-1.369,2.7.869a2.139,2.139,0,0,1,1.2,3.106l-5.533,9.582a2.152,2.152,0,0,1-1.856,1.07Z" transform="translate(-390.1 -292.47)" fill="#364550"/>
        </g>
      </g>
    </g>
    <g id="Group_15256" data-name="Group 15256" transform="translate(20.21 34.074)">
      <path id="Path_15207" data-name="Path 15207" d="M228.273,380.928a14.516,14.516,0,0,1-3.393-.4l.337-1.4a13.179,13.179,0,0,0,5.005.216l.214,1.422A14.588,14.588,0,0,1,228.273,380.928Z" transform="translate(-224.88 -379.13)" fill="#364550"/>
    </g>
    <g id="Group_15257" data-name="Group 15257" transform="translate(33.591 12.196)">
      <path id="Path_15208" data-name="Path 15208" d="M376.633,143.047a12.95,12.95,0,0,0-2.873-6.426l1.1-.921a14.391,14.391,0,0,1,3.192,7.139Z" transform="translate(-373.76 -135.7)" fill="#364550"/>
    </g>
    <g id="Group_15258" data-name="Group 15258" transform="translate(9.396 11.869)">
      <path id="Path_15209" data-name="Path 15209" d="M105.976,139.3l-1.416-.255a14.4,14.4,0,0,1,3.4-6.985l1.077.954A12.942,12.942,0,0,0,105.976,139.3Z" transform="translate(-104.56 -132.06)" fill="#364550"/>
    </g>
  </g>
</svg>
