<svg id="Group_15270" data-name="Group 15270" xmlns="http://www.w3.org/2000/svg" width="39.828" height="43.661" viewBox="0 0 39.828 43.661">
  <g id="Group_15267" data-name="Group 15267">
    <g id="Group_15262" data-name="Group 15262" transform="translate(4.191 14.696)">
      <path id="Path_15210" data-name="Path 15210" d="M47.024,168.9H44.85a2.493,2.493,0,0,1-2.49-2.49V151.03a2.493,2.493,0,0,1,2.49-2.49h2.174a2.493,2.493,0,0,1,2.49,2.49v15.384A2.494,2.494,0,0,1,47.024,168.9ZM44.85,150.123a.908.908,0,0,0-.907.907v15.384a.908.908,0,0,0,.907.907h2.174a.908.908,0,0,0,.907-.907V151.03a.908.908,0,0,0-.907-.907Z" transform="translate(-42.36 -148.54)" fill="#20baef"/>
    </g>
    <g id="Group_15263" data-name="Group 15263" transform="translate(0 15.811)">
      <path id="Path_15211" data-name="Path 15211" d="M4.982,177.945c-2.794,0-4.982-3.983-4.982-9.067s2.188-9.068,4.982-9.068v1.583c-1.608,0-3.4,3.074-3.4,7.485s1.792,7.485,3.4,7.485Z" transform="translate(0 -159.81)" fill="#364550"/>
    </g>
    <g id="Group_15264" data-name="Group 15264" transform="translate(28.485 14.696)">
      <path id="Path_15212" data-name="Path 15212" d="M292.573,168.9H290.4a2.492,2.492,0,0,1-2.489-2.49V151.03a2.493,2.493,0,0,1,2.489-2.49h2.174a2.492,2.492,0,0,1,2.489,2.49v15.384A2.493,2.493,0,0,1,292.573,168.9ZM290.4,150.123a.908.908,0,0,0-.906.907v15.384a.908.908,0,0,0,.906.907h2.174a.908.908,0,0,0,.906-.907V151.03a.908.908,0,0,0-.906-.907Z" transform="translate(-287.91 -148.54)" fill="#20baef"/>
    </g>
    <g id="Group_15265" data-name="Group 15265" transform="translate(34.845 15.811)">
      <path id="Path_15213" data-name="Path 15213" d="M352.2,177.945v-1.583c1.608,0,3.4-3.074,3.4-7.485s-1.792-7.485-3.4-7.485V159.81c2.794,0,4.982,3.983,4.982,9.068S354.995,177.945,352.2,177.945Z" transform="translate(-352.2 -159.81)" fill="#364550"/>
    </g>
    <g id="Group_15266" data-name="Group 15266" transform="translate(0.043)">
      <path id="Path_15214" data-name="Path 15214" d="M40.173,24.878H38.59V19.871a18.288,18.288,0,1,0-36.577,0v5.007H.43V19.871a19.871,19.871,0,1,1,39.743,0Z" transform="translate(-0.43)" fill="#364550"/>
    </g>
  </g>
  <g id="Group_15268" data-name="Group 15268" transform="translate(23.046 32.641)">
    <path id="Path_15215" data-name="Path 15215" d="M243.318,338.753H232.94V337.17h10.379a2.087,2.087,0,0,0,2.085-2.085V329.92h1.583v5.165A3.672,3.672,0,0,1,243.318,338.753Z" transform="translate(-232.94 -329.92)" fill="#364550"/>
  </g>
  <g id="Group_15269" data-name="Group 15269" transform="translate(14.712 37.704)">
    <path id="Path_15216" data-name="Path 15216" d="M156.733,387.048h-7.241a.791.791,0,0,1-.792-.791v-4.375a.791.791,0,0,1,.792-.791h7.241a.791.791,0,0,1,.792.791v4.375A.792.792,0,0,1,156.733,387.048Zm-6.45-1.583h5.658v-2.792h-5.658Z" transform="translate(-148.7 -381.09)" fill="#e8b300"/>
  </g>
</svg>
