<svg xmlns="http://www.w3.org/2000/svg" width="36.659" height="37.132" viewBox="0 0 36.659 37.132">
  <g id="Group_15410" data-name="Group 15410" transform="translate(0 0.003)">
    <g id="Group_15404" data-name="Group 15404" transform="translate(0 -0.003)">
      <path id="Path_15292" data-name="Path 15292" d="M1.557,37.129A1.4,1.4,0,0,1,.21,35.364l2.075-7.746a.765.765,0,0,0-.077-.564A18.331,18.331,0,1,1,36.622,19.49h0A18.33,18.33,0,0,1,10.607,34.946a.771.771,0,0,0-.521-.053L1.926,37.081A1.555,1.555,0,0,1,1.557,37.129Zm16.761-35.7c-.137,0-.274,0-.411,0A17.094,17.094,0,0,0,1.434,17.837a16.912,16.912,0,0,0,2.028,8.534,2.181,2.181,0,0,1,.2,1.614L1.6,35.687l8.114-2.175a2.2,2.2,0,0,1,1.494.137A16.9,16.9,0,0,0,35.195,19.4,16.753,16.753,0,0,0,30.5,6.6,16.957,16.957,0,0,0,18.318,1.425Z" transform="translate(0 0.003)" fill="#364550"/>
    </g>
    <g id="Group_15409" data-name="Group 15409" transform="translate(13.138 6.211)">
      <g id="Group_15406" data-name="Group 15406" transform="translate(0 6.473)">
        <g id="Group_15405" data-name="Group 15405">
          <path id="Path_15293" data-name="Path 15293" d="M151.24,160.39a4.03,4.03,0,0,1-3.913-4.893l2.816-12.776a.714.714,0,0,1,.851-.543l3.1.684a.714.714,0,0,1,.543.851l-2.6,11.785,3.64-1.2a.715.715,0,0,1,.9.455l.992,3.014a.714.714,0,0,1-.455.9l-4.6,1.516a4.059,4.059,0,0,1-1.273.206h0S151.241,160.39,151.24,160.39Zm.145-16.664L148.722,155.8a2.6,2.6,0,0,0,2.518,3.157h0a2.66,2.66,0,0,0,.826-.134l3.926-1.293-.546-1.657-3.926,1.293a.851.851,0,0,1-1.1-1l2.662-12.074Zm.436,12.757v0A.04.04,0,0,0,151.821,156.483Z" transform="translate(-147.23 -142.161)" fill="#e8b300"/>
        </g>
      </g>
      <g id="Group_15408" data-name="Group 15408" transform="translate(3.567)">
        <g id="Group_15407" data-name="Group 15407">
          <path id="Path_15294" data-name="Path 15294" d="M191.014,75.176a.705.705,0,0,1-.154-.017l-3.1-.683a.714.714,0,0,1-.543-.851l.758-3.437a.713.713,0,0,1,.851-.543l3.1.683a.714.714,0,0,1,.543.851l-.758,3.437A.715.715,0,0,1,191.014,75.176Zm-2.248-1.94,1.7.376.45-2.042-1.7-.376Z" transform="translate(-187.201 -69.628)" fill="#e8b300"/>
        </g>
      </g>
    </g>
  </g>
</svg>
