<svg xmlns="http://www.w3.org/2000/svg" width="35.691" height="36.283" viewBox="0 0 35.691 36.283">
  <g id="Group_15429" data-name="Group 15429" transform="translate(-1005 -284.717)">
    <path id="Path_15306" data-name="Path 15306" d="M22.477,128.863A22.538,22.538,0,0,1,0,106.587c0-.038,0-.074,0-.112v-.034a6.079,6.079,0,0,1,6.065-6.031h.09a6.092,6.092,0,0,1,1.256.131,6,6,0,0,1,.855.247.623.623,0,0,1,.393.45l1.978,8.921a.624.624,0,0,1-.165.573A6.049,6.049,0,0,1,8.166,112.2a15.609,15.609,0,0,0,8.606,8.543,6.014,6.014,0,0,1,1.49-2.3.625.625,0,0,1,.565-.161l8.84,1.907a.624.624,0,0,1,.446.374,5.48,5.48,0,0,1,.271.863,6.06,6.06,0,0,1-5.907,7.439Zm-16.424-27.2a4.829,4.829,0,0,0-4.805,4.79c0,.041,0,.055,0,.069s0,.028,0,.041a21.285,21.285,0,0,0,21.227,21.055,4.814,4.814,0,0,0,4.69-5.913c-.028-.126-.062-.249-.1-.369L18.9,119.572a4.761,4.761,0,0,0-1.114,2.128.624.624,0,0,1-.813.449A16.84,16.84,0,0,1,6.753,112a.624.624,0,0,1,.452-.819,4.785,4.785,0,0,0,2.138-1.091l-1.826-8.231c-.122-.036-.243-.066-.362-.091a4.881,4.881,0,0,0-1-.1A.743.743,0,0,1,6.053,101.659Zm.127,0Zm-.175,0Zm0,0H6Z" transform="translate(1005 192.137)" fill="#364550"/>
    <path id="Path_15307" data-name="Path 15307" d="M100.536,29.822l-.888-.876A16.274,16.274,0,0,0,76.673,5.894L75.8,5a17.521,17.521,0,0,1,24.736,24.819Z" transform="translate(935.111 284.717)" fill="#e8b300"/>
    <path id="Path_15308" data-name="Path 15308" d="M152.009,89.655a31.271,31.271,0,0,1-6.849-.739l.275-1.217a29.982,29.982,0,0,0,6.576.708,25.3,25.3,0,0,0,13.025-3.237l.661,1.058C162.214,88.406,157.226,89.655,152.009,89.655Z" transform="translate(871.16 206.189)" fill="#e8b300"/>
    <path id="Path_15309" data-name="Path 15309" d="M138.825,25.754l-1.2-.355a28.073,28.073,0,0,0,1.088-7.876c0-8.974-3.859-16.275-8.6-16.275-3.09,0-5.966,3.2-7.506,8.357l-1.2-.357c1.7-5.7,5.038-9.247,8.7-9.247,2.7,0,5.216,1.873,7.074,5.274a26.045,26.045,0,0,1,2.779,12.247A29.323,29.323,0,0,1,138.825,25.754Z" transform="translate(893.058 284.717)" fill="#e8b300"/>
    <rect id="Rectangle_90" data-name="Rectangle 90" width="23.024" height="1.248" transform="translate(1017.042 301.615)" fill="#e8b300"/>
    <rect id="Rectangle_91" data-name="Rectangle 91" width="1.248" height="23.916" transform="translate(1022.546 285.341)" fill="#e8b300"/>
  </g>
</svg>
