<svg xmlns="http://www.w3.org/2000/svg" width="45" height="46.274" viewBox="0 0 45 46.274">
  <g id="Group_4" data-name="Group 4" transform="translate(-454 -2135.642)">
    <g id="Group_12" data-name="Group 12" transform="translate(464.686 2155.291)">
      <path id="Path_17" data-name="Path 17" d="M2629.436,2688.391a11.658,11.658,0,0,0-7.355-2.577,11.848,11.848,0,0,0-2.993.383l-.385-1.473a13.332,13.332,0,0,1,11.685,2.478Z" transform="translate(-2618.703 -2684.291)" fill="#e8b300"/>
    </g>
    <g id="Group_13" data-name="Group 13" transform="translate(454 2158.137)">
      <path id="Path_18" data-name="Path 18" d="M2520.526,2737.964a13.246,13.246,0,0,1-5.272-1.084,10.192,10.192,0,0,1-8.312.127.762.762,0,0,1-.046-1.4c.024-.012,2.5-1.229,2.8-3.212a13.316,13.316,0,0,1,2.6-18.213l.942,1.2a11.793,11.793,0,0,0-2.147,16.344.761.761,0,0,1,.152.5,5.42,5.42,0,0,1-2.25,3.834,8.281,8.281,0,0,0,5.833-.678.762.762,0,0,1,.715-.039,11.795,11.795,0,0,0,15.657-15.693l1.379-.647a13.318,13.318,0,0,1-12.053,18.963Z" transform="translate(-2506.461 -2714.186)" fill="#e8b300"/>
    </g>
    <g id="Group_14" data-name="Group 14" transform="translate(471.626 2158.823)">
      <path id="Path_19" data-name="Path 19" d="M2696.572,2734.448a13.335,13.335,0,0,1-4.7-13.06l1.492.3a11.9,11.9,0,0,0-.239,2.376,11.745,11.745,0,0,0,4.406,9.192Z" transform="translate(-2691.598 -2721.389)" fill="#20baef"/>
    </g>
    <g id="Group_15" data-name="Group 15" transform="translate(473.518 2148.192)">
      <path id="Path_20" data-name="Path 20" d="M2722.89,2636.349a13.408,13.408,0,0,1-2.5-.236l.285-1.5a11.885,11.885,0,0,0,2.22.209,11.742,11.742,0,0,0,4.982-1.1.761.761,0,0,1,.714.039,8.3,8.3,0,0,0,5.834.678,5.42,5.42,0,0,1-2.25-3.834.76.76,0,0,1,.152-.5,11.789,11.789,0,1,0-19.543-13.135l-1.306-.785a13.312,13.312,0,0,1,24.729,6.845,13.192,13.192,0,0,1-2.485,7.747c.3,1.967,2.777,3.2,2.8,3.212a.762.762,0,0,1-.046,1.4,10.194,10.194,0,0,1-8.312-.127A13.245,13.245,0,0,1,2722.89,2636.349Z" transform="translate(-2711.473 -2609.725)" fill="#20baef"/>
    </g>
    <g id="Group_16" data-name="Group 16" transform="translate(474.029 2151.51)">
      <path id="Path_21" data-name="Path 21" d="M2724.359,2655.187a9.592,9.592,0,0,1-4.21-.94,13.31,13.31,0,0,1-3.062.9l-.251-1.5a11.8,11.8,0,0,0,3.023-.938.763.763,0,0,1,.715.039,8.278,8.278,0,0,0,5.833.678,5.418,5.418,0,0,1-2.25-3.834.763.763,0,0,1,.151-.5,11.66,11.66,0,0,0,2.079-4.518l1.488.329a13.168,13.168,0,0,1-2.171,4.862c.3,1.984,2.779,3.2,2.8,3.213a.762.762,0,0,1-.048,1.395A11.04,11.04,0,0,1,2724.359,2655.187Z" transform="translate(-2716.836 -2644.576)" fill="#364550"/>
    </g>
    <g id="Group_17" data-name="Group 17" transform="translate(458.761 2135.642)">
      <path id="Path_22" data-name="Path 22" d="M2567.663,2504.358a13.313,13.313,0,1,1,15.134-15.938l-1.49.318a11.789,11.789,0,1,0-13.4,14.115Z" transform="translate(-2556.469 -2477.901)" fill="#364550"/>
    </g>
  </g>
</svg>
