<svg xmlns="http://www.w3.org/2000/svg" width="87.197" height="80.736" viewBox="0 0 87.197 80.736">
  <g id="Group_36" data-name="Group 36" transform="translate(-287 -3773.264)">
    <g id="Group_15152" data-name="Group 15152" transform="translate(287 3788.56)">
      <path id="Path_15081" data-name="Path 15081" d="M1815.11,2645.786a51.835,51.835,0,0,1-51.691-51.237c0-.086,0-.167,0-.255v-.078a13.983,13.983,0,0,1,13.949-13.871h.205a14.106,14.106,0,0,1,2.887.3,13.732,13.732,0,0,1,1.969.568,1.435,1.435,0,0,1,.905,1.036l4.55,20.519a1.432,1.432,0,0,1-.379,1.317,13.882,13.882,0,0,1-5.306,3.37,35.9,35.9,0,0,0,19.792,19.649,13.846,13.846,0,0,1,3.427-5.292,1.439,1.439,0,0,1,1.3-.37l20.333,4.385a1.436,1.436,0,0,1,1.026.861,12.489,12.489,0,0,1,.623,1.985,13.944,13.944,0,0,1-13.584,17.11Zm-37.775-62.571a11.109,11.109,0,0,0-11.052,11.018c0,.1,0,.13,0,.166s0,.059,0,.088a48.958,48.958,0,0,0,48.822,48.428,11.073,11.073,0,0,0,10.787-13.6c-.065-.289-.141-.571-.23-.849l-18.782-4.051a10.957,10.957,0,0,0-2.561,4.9,1.436,1.436,0,0,1-1.871,1.032,38.73,38.73,0,0,1-23.509-23.353,1.433,1.433,0,0,1,1.041-1.883,11,11,0,0,0,4.916-2.509l-4.2-18.933q-.423-.124-.832-.208a11.259,11.259,0,0,0-2.3-.241A1.361,1.361,0,0,1,1777.335,2583.215Zm.288,0h0Zm0,0h0Zm-.4-.007h0Zm-.005,0h0Zm0,0h0Z" transform="translate(-1763.414 -2580.345)" fill="#364550"/>
    </g>
    <g id="Group_15157" data-name="Group 15157" transform="translate(325.911 3773.264)">
      <g id="Group_15153" data-name="Group 15153" transform="translate(0 0)">
        <path id="Path_15082" data-name="Path 15082" d="M1992.882,2545.412a1.435,1.435,0,0,1-1.435-1.435V2535.1h-3.776a7.333,7.333,0,0,1-7.324-7.325v-25.385a7.332,7.332,0,0,1,7.324-7.323h33.638a7.332,7.332,0,0,1,7.323,7.323v25.385a7.333,7.333,0,0,1-7.323,7.325h-17.525l-9.888,9.887A1.434,1.434,0,0,1,1992.882,2545.412Zm-5.21-47.472a4.459,4.459,0,0,0-4.455,4.454v25.385a4.46,4.46,0,0,0,4.455,4.455h5.21a1.435,1.435,0,0,1,1.435,1.435v6.843l7.858-7.858a1.436,1.436,0,0,1,1.015-.42h18.119a4.46,4.46,0,0,0,4.454-4.455v-25.385a4.459,4.459,0,0,0-4.454-4.454Z" transform="translate(-1980.347 -2495.071)" fill="#e8b300"/>
      </g>
      <g id="Group_15154" data-name="Group 15154" transform="translate(11.549 19.044)">
        <path id="Path_15083" data-name="Path 15083" d="M2046.174,2604.09a1.433,1.433,0,0,1-1.442-1.435,1.862,1.862,0,0,1,.029-.279,1.994,1.994,0,0,1,.086-.266,1.686,1.686,0,0,1,.129-.251,1.8,1.8,0,0,1,.179-.215,1.486,1.486,0,0,1,2.031,0,1.289,1.289,0,0,1,.179.215,1.735,1.735,0,0,1,.129.251,1.9,1.9,0,0,1,.086.266,1.849,1.849,0,0,1,.021.279,1.421,1.421,0,0,1-1.428,1.435Z" transform="translate(-2044.732 -2601.242)" fill="#20baef"/>
      </g>
      <g id="Group_15155" data-name="Group 15155" transform="translate(22.705 18.663)">
        <path id="Path_15084" data-name="Path 15084" d="M2108.367,2601.977a1.448,1.448,0,0,1-1.435-1.435,1.458,1.458,0,0,1,.424-1.02,1.486,1.486,0,0,1,2.031,0,1.447,1.447,0,0,1,0,2.03A1.427,1.427,0,0,1,2108.367,2601.977Z" transform="translate(-2106.932 -2599.122)" fill="#20baef"/>
      </g>
      <g id="Group_15156" data-name="Group 15156" transform="translate(33.862 18.643)">
        <path id="Path_15085" data-name="Path 15085" d="M2170.57,2601.885a1.446,1.446,0,0,1-1.435-1.436,1.441,1.441,0,0,1,1.714-1.414,1.87,1.87,0,0,1,.273.086,1.594,1.594,0,0,1,.244.129,1.746,1.746,0,0,1,.215.179,1.428,1.428,0,0,1,0,2.03,1.252,1.252,0,0,1-.215.18,1.553,1.553,0,0,1-.244.129,1.326,1.326,0,0,1-.552.115Z" transform="translate(-2169.135 -2599.009)" fill="#20baef"/>
      </g>
    </g>
  </g>
</svg>
