<svg xmlns="http://www.w3.org/2000/svg" width="43.174" height="43.122" viewBox="0 0 43.174 43.122">
  <g id="Group_15308" data-name="Group 15308" transform="translate(0 0)">
    <g id="Group_15305" data-name="Group 15305" transform="translate(17.764 0)">
      <path id="Path_15239" data-name="Path 15239" d="M202.889,25.41h-3.751a.754.754,0,0,1-.733-.576l-.626-2.575a10,10,0,0,1-1.233-.51l-2.262,1.377a.752.752,0,0,1-.926-.111l-2.653-2.653a.755.755,0,0,1-.111-.926l1.377-2.263a10.211,10.211,0,0,1-.51-1.233l-2.574-.626a.754.754,0,0,1-.576-.733V10.829a.754.754,0,0,1,.576-.733l2.575-.626a10,10,0,0,1,.51-1.233l-1.377-2.262a.755.755,0,0,1,.111-.926L193.359,2.4a.755.755,0,0,1,.926-.111l2.263,1.377a10.21,10.21,0,0,1,1.233-.51l.626-2.574A.754.754,0,0,1,199.141,0h3.751a.754.754,0,0,1,.733.576l.626,2.575a10,10,0,0,1,1.233.51l2.262-1.377a.755.755,0,0,1,.926.111l2.653,2.653a.755.755,0,0,1,.111.926l-1.377,2.263a10.216,10.216,0,0,1,.51,1.233l2.574.626a.754.754,0,0,1,.576.733v3.751a.754.754,0,0,1-.576.733l-2.575.626a9.994,9.994,0,0,1-.51,1.233l1.377,2.262a.755.755,0,0,1-.111.926l-2.653,2.653a.756.756,0,0,1-.926.111l-2.263-1.377a10.212,10.212,0,0,1-1.233.51l-.626,2.574A.754.754,0,0,1,202.889,25.41ZM199.731,23.9H202.3l.57-2.34a.751.751,0,0,1,.535-.617,8.582,8.582,0,0,0,1.751-.724.757.757,0,0,1,.83.066l2.042,1.243,1.813-1.812-1.262-2.073a.751.751,0,0,1-.045-.8,8.568,8.568,0,0,0,.724-1.752.754.754,0,0,1,.655-.541l2.3-.56V11.424l-2.341-.57a.751.751,0,0,1-.616-.534,8.559,8.559,0,0,0-.724-1.752.753.753,0,0,1,.067-.829L209.839,5.7l-1.814-1.814-2.074,1.262a.751.751,0,0,1-.8.045,8.581,8.581,0,0,0-1.751-.724.755.755,0,0,1-.542-.655l-.559-2.3h-2.565l-.57,2.34a.75.75,0,0,1-.535.616,8.582,8.582,0,0,0-1.751.724.755.755,0,0,1-.83-.066l-2.042-1.243L192.192,5.7l1.262,2.073a.755.755,0,0,1,.046.8,8.538,8.538,0,0,0-.724,1.752.754.754,0,0,1-.655.541l-2.3.56v2.565l2.341.57a.751.751,0,0,1,.616.534,8.559,8.559,0,0,0,.724,1.752.753.753,0,0,1-.067.829l-1.243,2.042L194,21.528l2.074-1.262a.751.751,0,0,1,.8-.045,8.581,8.581,0,0,0,1.751.724.755.755,0,0,1,.542.655Z" transform="translate(-188.31 0)" fill="#e8b300"/>
    </g>
    <g id="Group_15306" data-name="Group 15306" transform="translate(24.396 6.632)">
      <path id="Path_15240" data-name="Path 15240" d="M264.683,82.447a6.073,6.073,0,1,1,6.073-6.073A6.08,6.08,0,0,1,264.683,82.447Zm0-10.637a4.564,4.564,0,1,0,4.564,4.564A4.569,4.569,0,0,0,264.683,71.809Z" transform="translate(-258.61 -70.3)" fill="#e8b300"/>
    </g>
    <g id="Group_15307" data-name="Group 15307" transform="translate(0 8.705)">
      <path id="Path_15241" data-name="Path 15241" d="M27.188,126.7A27.261,27.261,0,0,1,0,99.75c0-.044,0-.088,0-.134v-.042A7.354,7.354,0,0,1,7.336,92.28h.108a7.448,7.448,0,0,1,1.519.158,7.24,7.24,0,0,1,1.036.3.753.753,0,0,1,.475.545l2.393,10.791a.753.753,0,0,1-.2.692,7.31,7.31,0,0,1-2.79,1.773,18.879,18.879,0,0,0,10.41,10.334,7.276,7.276,0,0,1,1.8-2.783.755.755,0,0,1,.683-.194L33.467,116.2a.757.757,0,0,1,.54.453,6.66,6.66,0,0,1,.327,1.044,7.329,7.329,0,0,1-7.146,9ZM7.321,93.79a5.841,5.841,0,0,0-5.812,5.794c0,.051,0,.069,0,.088s0,.031,0,.047a25.748,25.748,0,0,0,25.677,25.47,5.823,5.823,0,0,0,5.673-7.152c-.034-.152-.075-.3-.121-.446l-9.878-2.131a5.764,5.764,0,0,0-1.347,2.574.755.755,0,0,1-.984.542A20.369,20.369,0,0,1,8.168,106.293a.754.754,0,0,1,.547-.991,5.793,5.793,0,0,0,2.586-1.32L9.093,94.027c-.148-.043-.294-.081-.437-.11a5.917,5.917,0,0,0-1.209-.126A.928.928,0,0,1,7.321,93.79Zm.154,0h0Zm-.208,0h0Zm0,0h0Zm0,0h0Z" transform="translate(0 -92.28)" fill="#364550"/>
    </g>
  </g>
</svg>
