<svg id="Group_15417" data-name="Group 15417" xmlns="http://www.w3.org/2000/svg" width="36.674" height="36.674" viewBox="0 0 36.674 36.674">
  <g id="Group_15415" data-name="Group 15415" transform="translate(10.625 6.031)">
    <g id="Group_15412" data-name="Group 15412">
      <g id="Group_15411" data-name="Group 15411">
        <path id="Path_15295" data-name="Path 15295" d="M139.534,92.037h-3.265a.653.653,0,0,1-.653-.653V88.616a4.093,4.093,0,0,1,3.072-3.97,3.142,3.142,0,1,0-2.948-5.322,3.113,3.113,0,0,0-.98,2.279.653.653,0,0,1-.653.653h-3.265a.653.653,0,0,1-.653-.653,7.745,7.745,0,0,1,2.4-5.595,7.646,7.646,0,0,1,5.719-2.106,7.712,7.712,0,0,1,1.873,15.067v2.415A.652.652,0,0,1,139.534,92.037Zm-2.612-1.306h1.959V88.616a.83.83,0,0,1,.622-.809,6.407,6.407,0,0,0-1.258-12.6,6.355,6.355,0,0,0-4.752,1.749,6.438,6.438,0,0,0-1.964,3.995H133.5a4.451,4.451,0,0,1,4.641-3.788,4.448,4.448,0,0,1,.872,8.748,2.789,2.789,0,0,0-2.091,2.705Zm2.908-1.66h0Z" transform="translate(-130.19 -73.892)" fill="#e8b300"/>
      </g>
    </g>
    <g id="Group_15414" data-name="Group 15414" transform="translate(5.426 20.044)">
      <g id="Group_15413" data-name="Group 15413">
        <path id="Path_15296" data-name="Path 15296" d="M198.964,324.06a2.3,2.3,0,0,1-1.614-.668,2.2,2.2,0,0,1-.284-.348,2.09,2.09,0,0,1-.215-.411,2.183,2.183,0,0,1-.123-.4,2.239,2.239,0,0,1,0-.9,2.354,2.354,0,0,1,.139-.447,2.314,2.314,0,0,1,.49-.73,2.277,2.277,0,0,1,.344-.284,2.371,2.371,0,0,1,.387-.208,2.319,2.319,0,0,1,.446-.134,2.24,2.24,0,0,1,.884,0,2.195,2.195,0,0,1,.418.126,2.289,2.289,0,0,1,.4.214,2.544,2.544,0,0,1,.347.287,2.14,2.14,0,0,1,.29.357,2.175,2.175,0,0,1,.207.392,2.328,2.328,0,0,1,.125.4,2.542,2.542,0,0,1,.046.465,2.462,2.462,0,0,1-.04.439,2.289,2.289,0,0,1-.138.444,2.076,2.076,0,0,1-.206.387,2.267,2.267,0,0,1-1.9,1.014Zm0-3.264a.876.876,0,0,0-.185.019,1.066,1.066,0,0,0-.194.058.955.955,0,0,0-.309.211.88.88,0,0,0-.115.139.961.961,0,0,0-.093.17,1.148,1.148,0,0,0-.064.206,1.073,1.073,0,0,0-.017.176,1.153,1.153,0,0,0,.021.2.954.954,0,0,0,.051.163.925.925,0,0,0,.094.182.964.964,0,0,0,.121.148,1.016,1.016,0,0,0,1.385,0,.95.95,0,0,0,.121-.148.843.843,0,0,0,.085-.158.867.867,0,0,0,.08-.388,1.186,1.186,0,0,0-.019-.2,1.016,1.016,0,0,0-.051-.16.963.963,0,0,0-.095-.18.822.822,0,0,0-.12-.147,1.2,1.2,0,0,0-.162-.133,1,1,0,0,0-.162-.082.974.974,0,0,0-.37-.073Z" transform="translate(-196.68 -319.49)" fill="#e8b300"/>
      </g>
    </g>
  </g>
  <g id="Group_15416" data-name="Group 15416">
    <path id="Path_15297" data-name="Path 15297" d="M18.337,36.674A18.337,18.337,0,1,1,36.674,18.337,18.358,18.358,0,0,1,18.337,36.674Zm0-35.368A17.031,17.031,0,1,0,35.368,18.337,17.05,17.05,0,0,0,18.337,1.306Z" fill="#364550"/>
  </g>
</svg>
