<svg xmlns="http://www.w3.org/2000/svg" width="43.543" height="57.763" viewBox="0 0 43.543 57.763">
  <g id="Group_15215" data-name="Group 15215" transform="translate(8.074 -1.546) rotate(13)">
    <path id="Path_15175" data-name="Path 15175" d="M24.726,37.96H3.211a.912.912,0,0,1-.863-.619C-2.373,23.35.906,13.975,4.488,8.574A25.872,25.872,0,0,1,13.563.093a.927.927,0,0,1,.81,0,25.872,25.872,0,0,1,9.075,8.481c3.582,5.4,6.862,14.777,2.141,28.767A.912.912,0,0,1,24.726,37.96ZM3.869,36.138h20.2C27.436,25.732,26.717,16.8,21.929,9.58a24.976,24.976,0,0,0-7.96-7.634A25.105,25.105,0,0,0,5.958,9.653C1.214,16.862.512,25.77,3.869,36.138Z" transform="translate(6.871 0)" fill="#364550"/>
    <path id="Path_15176" data-name="Path 15176" d="M9.432,13.034H.911A.911.911,0,0,1,0,12.123,13.146,13.146,0,0,1,7.4,0l.723,1.673a11.3,11.3,0,0,0-6.276,9.541h7.58Z" transform="translate(0 22.859)" fill="#364550"/>
    <path id="Path_15177" data-name="Path 15177" d="M8.52,13.035H0V11.214H7.58A11.3,11.3,0,0,0,1.3,1.673L2.027,0a13.148,13.148,0,0,1,7.4,12.123A.913.913,0,0,1,8.52,13.035Z" transform="translate(32.247 22.857)" fill="#364550"/>
    <path id="Path_15180" data-name="Path 15180" d="M8.344,16.688a8.344,8.344,0,1,1,8.344-8.344A8.354,8.354,0,0,1,8.344,16.688Zm0-14.866a6.522,6.522,0,1,0,6.522,6.522A6.53,6.53,0,0,0,8.344,1.822Z" transform="translate(12.496 11.766)" fill="#20baef"/>
    <path id="Path_15181" data-name="Path 15181" d="M5.347,5.347H3.525A3.53,3.53,0,0,0,0,1.822V0A5.353,5.353,0,0,1,5.347,5.347Z" transform="translate(20.336 15.267)" fill="#20baef"/>
    <path id="Path_15182" data-name="Path 15182" d="M7.194,12.647a.917.917,0,0,1-.455-.122C-2.986,6.909.664.068.7,0L2.295.885c-.112.208-2.667,5.176,4.9,9.793,7.629-4.658,4.928-9.741,4.9-9.793L13.687,0c.038.068,3.688,6.909-6.037,12.525A.914.914,0,0,1,7.194,12.647Z" transform="translate(13.646 41.749)" fill="#e8b300"/>
    <path id="Path_15183" data-name="Path 15183" d="M3.112,4.4A7.5,7.5,0,0,1,0,.536L1.741,0A5.738,5.738,0,0,0,4.058,2.846Z" transform="translate(16.761 45.559)" fill="#e8b300"/>
    <path id="Path_15178" data-name="Path 15178" d="M11.643,6.27h-9.5a.912.912,0,0,1-.885-.693L0,.434,1.769,0,2.861,4.448h8.781V6.27Z" transform="translate(9.197 36.832)" fill="#364550"/>
    <path id="Path_15179" data-name="Path 15179" d="M9.5,6.27H0V4.448H8.781L9.873,0l1.769.434L10.38,5.576A.911.911,0,0,1,9.5,6.27Z" transform="translate(20.84 36.832)" fill="#364550"/>
  </g>
</svg>
