<svg id="Group_15225" data-name="Group 15225" xmlns="http://www.w3.org/2000/svg" width="40.572" height="39.66" viewBox="0 0 40.572 39.66">
  <g id="Group_15221" data-name="Group 15221">
    <g id="Group_15216" data-name="Group 15216">
      <path id="Path_15184" data-name="Path 15184" d="M36.656,39.66H3.916A3.92,3.92,0,0,1,0,35.744V3.916A3.92,3.92,0,0,1,3.916,0H36.656a3.92,3.92,0,0,1,3.916,3.916V35.743A3.92,3.92,0,0,1,36.656,39.66ZM3.916,1.56A2.358,2.358,0,0,0,1.56,3.916V35.743A2.358,2.358,0,0,0,3.916,38.1H36.656a2.357,2.357,0,0,0,2.355-2.355V3.916A2.358,2.358,0,0,0,36.656,1.56H3.916Z" fill="#364550"/>
    </g>
    <g id="Group_15217" data-name="Group 15217" transform="translate(3.22 6.293)">
      <rect id="Rectangle_67" data-name="Rectangle 67" width="34.132" height="1.56" fill="#364550"/>
    </g>
    <g id="Group_15218" data-name="Group 15218" transform="translate(3.915 3.371)">
      <path id="Path_15185" data-name="Path 15185" d="M49.983,36.13H40.92a.78.78,0,0,1,0-1.56h9.064a.78.78,0,1,1,0,1.56Z" transform="translate(-40.14 -34.57)" fill="#20baef"/>
    </g>
    <g id="Group_15219" data-name="Group 15219" transform="translate(18.008 3.371)">
      <path id="Path_15186" data-name="Path 15186" d="M186.426,36.13h-1a.78.78,0,1,1,0-1.56h1a.78.78,0,1,1,0,1.56Z" transform="translate(-184.65 -34.57)" fill="#20baef"/>
    </g>
    <g id="Group_15220" data-name="Group 15220" transform="translate(23.884 3.371)">
      <path id="Path_15187" data-name="Path 15187" d="M246.676,36.13h-1a.78.78,0,1,1,0-1.56h1a.78.78,0,1,1,0,1.56Z" transform="translate(-244.9 -34.57)" fill="#20baef"/>
    </g>
  </g>
  <g id="Group_15222" data-name="Group 15222" transform="translate(8.168 18.286)">
    <path id="Path_15188" data-name="Path 15188" d="M90.4,198.44l-6.341-4.851a.779.779,0,0,1,0-1.239L90.4,187.5l.948,1.24-5.531,4.231,5.531,4.231Z" transform="translate(-83.75 -187.5)" fill="#e8b300"/>
  </g>
  <g id="Group_15223" data-name="Group 15223" transform="translate(24.81 18.286)">
    <path id="Path_15189" data-name="Path 15189" d="M255.338,198.44l-.948-1.24,5.531-4.231-5.531-4.231.948-1.24,6.341,4.851a.779.779,0,0,1,0,1.239Z" transform="translate(-254.39 -187.5)" fill="#e8b300"/>
  </g>
  <g id="Group_15224" data-name="Group 15224" transform="translate(17.38 13.573)">
    <rect id="Rectangle_68" data-name="Rectangle 68" width="20.492" height="1.56" transform="translate(0 20.039) rotate(-77.925)" fill="#e8b300"/>
  </g>
</svg>
