<svg xmlns="http://www.w3.org/2000/svg" width="41.336" height="41.336" viewBox="0 0 41.336 41.336">
  <g id="Group_15344" data-name="Group 15344" transform="translate(-0.01 -0.002)">
    <g id="Group_15338" data-name="Group 15338" transform="translate(0.01 19.597)">
      <path id="Path_15258" data-name="Path 15258" d="M7.186,231.522A7.151,7.151,0,0,1,4.506,231a.747.747,0,0,1-.249-1.221l3.832-3.832-2.5-2.5-3.832,3.832a.747.747,0,0,1-1.221-.249,7.172,7.172,0,0,1,8.493-9.61l7.637-7.637,1.056,1.056-7.953,7.953a.746.746,0,0,1-.767.18,5.678,5.678,0,0,0-7.408,6.354l3.466-3.466a.748.748,0,0,1,1.056,0l3.562,3.562a.748.748,0,0,1,0,1.056l-3.466,3.466a5.68,5.68,0,0,0,6.357-7.406.748.748,0,0,1,.18-.766l2.734-2.734,1.056,1.056-2.419,2.419a7.177,7.177,0,0,1-6.931,9.011Z" transform="translate(-0.01 -209.78)" fill="#e8b300"/>
    </g>
    <g id="Group_15339" data-name="Group 15339" transform="translate(21.68 0.002)">
      <path id="Path_15259" data-name="Path 15259" d="M237.629,19.145l-1.056-1.056,5.35-5.35a.749.749,0,0,1,.767-.18A5.68,5.68,0,0,0,250.1,6.2l-3.53,3.53a.748.748,0,0,1-1.056,0l-3.562-3.562a.748.748,0,0,1,0-1.056l3.53-3.53a5.678,5.678,0,0,0-6.354,7.408.747.747,0,0,1-.18.767l-5.876,5.876-1.056-1.056,5.56-5.56A7.172,7.172,0,0,1,247.18.523a.747.747,0,0,1,.249,1.221l-3.9,3.9,2.5,2.5,3.9-3.9a.747.747,0,0,1,1.221.249,7.174,7.174,0,0,1-8.491,9.612Z" transform="translate(-232.01 -0.002)" fill="#e8b300"/>
    </g>
    <g id="Group_15343" data-name="Group 15343" transform="translate(0.118 0.351)">
      <g id="Group_15340" data-name="Group 15340" transform="translate(16.393 16.387)">
        <path id="Path_15260" data-name="Path 15260" d="M197.268,203.77a5.436,5.436,0,0,1-3.794-1.646l-9.935-9.934a2.493,2.493,0,0,0-1.13-.656l-2.766-.694a3.942,3.942,0,0,1-1.823-1.049,3.36,3.36,0,0,1-.334-4.71L182.57,180a2.885,2.885,0,0,1,2.354-.805,3.86,3.86,0,0,1,2.357,1.14h0a3.949,3.949,0,0,1,1.048,1.823l.694,2.766a2.487,2.487,0,0,0,.656,1.13l9.934,9.935a5.514,5.514,0,0,1,1.631,3.364,4.03,4.03,0,0,1-1.118,3.287A3.981,3.981,0,0,1,197.268,203.77Zm-12.65-23.1a1.377,1.377,0,0,0-.993.381l-5.084,5.085a1.885,1.885,0,0,0,.334,2.6,2.492,2.492,0,0,0,1.13.656l2.766.694a3.942,3.942,0,0,1,1.823,1.049l9.934,9.935c1.393,1.392,3.428,1.621,4.538.512a2.564,2.564,0,0,0,.687-2.094,4.014,4.014,0,0,0-1.2-2.443l-9.933-9.935a3.951,3.951,0,0,1-1.049-1.823l-.694-2.766a2.487,2.487,0,0,0-.656-1.13h0a2.361,2.361,0,0,0-1.436-.708A1.475,1.475,0,0,0,184.618,180.673Z" transform="translate(-176.671 -179.178)" fill="#364550"/>
      </g>
      <g id="Group_15341" data-name="Group 15341" transform="translate(27.612 27.612)">
        <rect id="Rectangle_79" data-name="Rectangle 79" width="1.494" height="11.398" transform="translate(0 1.057) rotate(-45)" fill="#364550"/>
      </g>
      <g id="Group_15342" data-name="Group 15342">
        <path id="Path_15261" data-name="Path 15261" d="M20.09,26.111a.745.745,0,0,1-.529-.219L6.2,12.526l-2.34-.473a.746.746,0,0,1-.535-.431L1.228,6.889a.746.746,0,0,1,.155-.83L3.489,3.953a.746.746,0,0,1,.83-.155L9.053,5.891a.748.748,0,0,1,.431.535l.473,2.339L23.322,22.132a.748.748,0,0,1,0,1.056l-2.7,2.7A.742.742,0,0,1,20.09,26.111ZM4.532,10.665l2.181.44a.741.741,0,0,1,.38.2l13,13,1.647-1.647-13-13a.755.755,0,0,1-.2-.38L8.1,7.1,4.184,5.372,2.8,6.754Z" transform="translate(-1.164 -3.734)" fill="#364550"/>
      </g>
    </g>
  </g>
</svg>
