<svg xmlns="http://www.w3.org/2000/svg" width="56.885" height="18.322" viewBox="0 0 56.885 18.322">
  <path id="Path_15108" data-name="Path 15108" d="M577.457,2135.6h-2.382v-3.9l-2.125-7.109h1.979c.421,2.254,1.466,3.5,1.521,4.288.165-1.246,1.319-2.474,1.7-4.288h2.089l-2.785,7.109Zm6.394-6.595a3.159,3.159,0,0,0-.073-.916c-.055-.129-.513-.183-.678-.183-.183,0-.513.055-.568.183a2.448,2.448,0,0,0-.092.916v4.012a2.4,2.4,0,0,0,.092.879c.055.128.385.2.549.2.183,0,.641-.073.7-.183a2.589,2.589,0,0,0,.073-.806Zm1.594,6.045c-.293.349-.66.312-1.1.476a1.755,1.755,0,0,1-.88.073,4.171,4.171,0,0,1-1.337-.037,2.213,2.213,0,0,1-1.044-.64c-.238-.275-.422-.33-.513-.734a7.4,7.4,0,0,1-.165-1.814v-2.437a5.706,5.706,0,0,1,.293-2.07,2.1,2.1,0,0,1,1.026-1.082,2.328,2.328,0,0,1,1.5-.4,2.165,2.165,0,0,1,1.154.239,2.692,2.692,0,0,1,1.081.641,2.568,2.568,0,0,1,.513.953,6.039,6.039,0,0,1,.146,1.5v2.326a11.109,11.109,0,0,1-.128,1.887A2.776,2.776,0,0,1,585.445,2135.052Zm6.156-.127c-.2.329-1.649.458-1.942.6a3.283,3.283,0,0,1-1.3.184c-.44,0,.806-.074.513-.221a1.418,1.418,0,0,1-.623-.6c-.147-.257-.22-.184-.256-.458a15.1,15.1,0,0,1-.055-1.631v-6.284h1.521v6.339a5.837,5.837,0,0,0,.073,1.319c.037.147.165.2.367.2a6.223,6.223,0,0,0,1.649-.2,9.185,9.185,0,0,0,.055-1.392v-6.265h1.685v9.2h-1.741Zm24.842-.55c-.183,0-.806-.073-.879-.2a3.455,3.455,0,0,1-.092-.989V2129.1a3.276,3.276,0,0,1,.092-.989c.055-.146.385-.2.568-.2s.586.073.66.219a3.4,3.4,0,0,1,.091.971v3.994a3.835,3.835,0,0,1-.091,1.062A.329.329,0,0,1,616.443,2134.375Zm7.75-6.193a.321.321,0,0,1,.33.22,3.474,3.474,0,0,1,.073.953v.7h-1.081v-.7a4.512,4.512,0,0,1,.073-.989C623.643,2128.255,623.991,2128.182,624.192,2128.182Zm2.62,4.2h-2.107v1.264c0,.476-.036.33-.128.494a.426.426,0,0,1-.44.239c-.165,0-.513-.055-.586-.184a2.476,2.476,0,0,1-.092-.824v-2.29h3.353v-1.026a5.586,5.586,0,0,0-.33-2.144,2.448,2.448,0,0,0-1.1-1.228c-.531-.312-.22-.458-1.044-.458a3.874,3.874,0,0,0-1.759.385,2.82,2.82,0,0,0-1.319,1.1,4.471,4.471,0,0,0-.348,1.96v2.785a7.189,7.189,0,0,0,.146,1.612,2.856,2.856,0,0,0,.549,1.008,3.639,3.639,0,0,0,1.319.733,4.881,4.881,0,0,0,1.612.256c.641,0,.183-.091.6-.256a2.492,2.492,0,0,0,1.026-.806,2.756,2.756,0,0,0,.531-1.026,2.351,2.351,0,0,0,.11-.879Zm-7.511-3.407a11.513,11.513,0,0,0-.037-1.374,1.685,1.685,0,0,0-.275-.66,1.526,1.526,0,0,0-.678-.532,3.393,3.393,0,0,0-1.191-.183c-.348,0-.33.073-.623.2a3.508,3.508,0,0,0-1.026.623v-2.565h-2.2v11.414h2.015l.183-.714a3.566,3.566,0,0,0,1.044.66c.293.146.257.219.6.219a2.68,2.68,0,0,0,1.392-.366,1.632,1.632,0,0,0,.659-.9,6.535,6.535,0,0,0,.128-1.557Zm-7.291-2.584h-2.382v6.394a9.228,9.228,0,0,1-.055,1.392c-.037.129-.568.2-.788.2-.2,0-.312-.055-.367-.2a4.418,4.418,0,0,1-.183-1.319v-6.468h-2.308v6.413c0,.824,0,1.355.037,1.631a2.338,2.338,0,0,0,.257.788,1.617,1.617,0,0,0,.641.623c.275.146.183.219.623.219a2,2,0,0,0,1.008-.238c.293-.165.935-.4,1.136-.715l-.036.788h2.418Zm-6.65-1.8h-6.577v2.034h1.777v9.27h2.327v-9.27h2.473Zm17.148,14.73H602.354a7.327,7.327,0,0,1-7.328-7.329v-3.664a7.327,7.327,0,0,1,7.328-7.329h20.153a7.327,7.327,0,0,1,7.328,7.329v3.664A7.326,7.326,0,0,1,622.507,2139.321Z" transform="translate(-572.95 -2121)" fill="#20baef" fill-rule="evenodd"/>
</svg>
